<svg width="54" height="54" viewBox="0 0 54 54" fill="none" xmlns="http://www.w3.org/2000/svg">
<g clip-path="url(#clip0_3680_32493)">
<path d="M53.3518 31.736C57.1746 44.7876 45.0567 56.9061 32.0058 53.0831C28.8487 52.1581 25.491 52.1581 22.3339 53.0831C9.28303 56.9061 -2.83489 44.7876 0.987882 31.736C1.91283 28.5787 1.91283 25.2209 0.987882 22.0637C-2.83489 9.01212 9.28303 -3.10641 22.3339 0.716555C25.491 1.64155 28.8487 1.64155 32.0058 0.716555C45.0567 -3.10641 57.1746 9.01212 53.3518 22.0637C52.4269 25.2209 52.4269 28.5787 53.3518 31.736Z" fill="url(#paint0_linear_3680_32493)"/>
<path opacity="0.8" d="M36.9233 0V1.53721C41.7726 1.53721 46.4428 3.90584 49.4128 7.87316C52.3802 11.8325 53.2757 16.8478 51.8749 21.6305C50.8644 25.0765 50.8644 28.7203 51.8749 32.1663C53.2757 36.9491 52.3775 41.9644 49.4128 45.9237C46.4402 49.891 41.7726 52.2596 36.9233 52.2596C35.429 52.2596 33.9186 52.0404 32.4376 51.6046C30.7267 51.102 28.9543 50.8481 27.1713 50.8481C25.3882 50.8481 23.6158 51.102 21.9049 51.6046C20.4239 52.0377 18.9135 52.2596 17.4192 52.2596C12.5699 52.2596 7.89967 49.891 4.92967 45.9237C1.96234 41.9644 1.0668 36.9491 2.46759 32.1663C3.47808 28.7203 3.47808 25.0765 2.46759 21.6305C1.0668 16.8478 1.96502 11.8325 4.92967 7.87316C7.90234 3.90584 12.5699 1.53721 17.4192 1.53721C18.9135 1.53721 20.4239 1.75642 21.9049 2.19219C23.6158 2.69479 25.3882 2.94876 27.1713 2.94876C28.9543 2.94876 30.7267 2.69479 32.4376 2.19219C33.9186 1.7591 35.429 1.53721 36.9233 1.53721V0ZM36.9207 0C35.3167 0 33.6673 0.227239 32.0019 0.716471C30.422 1.17897 28.7939 1.40888 27.1659 1.40888C25.5379 1.40888 23.9099 1.17897 22.33 0.716471C20.6645 0.229912 19.0151 0 17.4112 0C6.44808 0 -2.35231 10.6776 0.983925 22.0636C1.90888 25.2209 1.90888 28.5786 0.983925 31.7359C-2.35231 43.1219 6.44541 53.7995 17.4112 53.7995C19.0151 53.7995 20.6645 53.5723 22.33 53.083C23.9099 52.6205 25.5379 52.3906 27.1659 52.3906C28.7939 52.3906 30.422 52.6205 32.0019 53.083C33.6673 53.5696 35.3167 53.7995 36.9207 53.7995C47.8837 53.7995 56.6841 43.1219 53.3479 31.7359C52.4229 28.5786 52.4229 25.2209 53.3479 22.0636C56.6841 10.6776 47.8864 0 36.9207 0Z" fill="url(#paint1_linear_3680_32493)"/>
<path d="M38.4559 29.3539C38.4559 34.4547 33.4034 38.5905 27.1693 38.5905C20.9353 38.5905 15.8828 34.4547 15.8828 29.3539H38.4559Z" fill="url(#paint2_linear_3680_32493)"/>
<g opacity="0.75">
<path d="M38.4559 29.3539C38.4559 34.4547 33.4034 38.5905 27.1693 38.5905C20.9353 38.5905 15.8828 34.4547 15.8828 29.3539H38.4559Z" fill="#29472E"/>
</g>
<path d="M31.4834 23.5675C31.6973 22.0705 33.2531 20.9076 35.1431 20.9076C37.0304 20.9076 38.5863 22.0705 38.8028 23.5675" stroke="#1A211B" stroke-width="1.60396" stroke-miterlimit="10" stroke-linecap="round"/>
<path d="M14.9805 23.5675C15.1943 22.0705 16.7502 20.9076 18.6402 20.9076C20.5275 20.9076 22.0833 22.0705 22.2999 23.5675" stroke="#1A211B" stroke-width="1.60396" stroke-miterlimit="10" stroke-linecap="round"/>
<path d="M38.4754 29.354C38.4754 34.4549 33.4229 38.5906 27.1889 38.5906C20.9548 38.5906 15.9023 34.4549 15.9023 29.354H38.4754Z" fill="url(#paint3_linear_3680_32493)"/>
<g opacity="0.75">
<path d="M38.4754 29.354C38.4754 34.4549 33.4229 38.5906 27.1889 38.5906C20.9548 38.5906 15.9023 34.4549 15.9023 29.354H38.4754Z" fill="url(#paint4_linear_3680_32493)"/>
</g>
<path opacity="0.85" d="M34.3635 36.5008C32.4708 35.0947 29.966 34.2312 27.2098 34.2312C24.4537 34.2312 21.9488 35.0947 20.0562 36.5008C22.005 37.8054 24.4938 38.5913 27.2098 38.5913C29.9259 38.5913 32.4147 37.8054 34.3635 36.5008Z" fill="url(#paint5_linear_3680_32493)"/>
</g>
<defs>
<linearGradient id="paint0_linear_3680_32493" x1="5.67663" y1="5.40597" x2="52.3371" y2="52.0641" gradientUnits="userSpaceOnUse">
<stop stop-color="#A0F2B7"/>
<stop offset="0.058" stop-color="#99EFAF"/>
<stop offset="0.2248" stop-color="#8AE89D"/>
<stop offset="0.3457" stop-color="#85E597"/>
<stop offset="0.3602" stop-color="#83E395"/>
<stop offset="0.535" stop-color="#6ED486"/>
<stop offset="0.6515" stop-color="#67CE80"/>
<stop offset="1" stop-color="#5FB772"/>
</linearGradient>
<linearGradient id="paint1_linear_3680_32493" x1="27.1683" y1="-5.98494" x2="27.1683" y2="63.0618" gradientUnits="userSpaceOnUse">
<stop stop-color="white"/>
<stop offset="0.2428" stop-color="#FDFDFD"/>
<stop offset="0.3863" stop-color="#F4F8F5"/>
<stop offset="0.5041" stop-color="#E6EEE8"/>
<stop offset="0.6079" stop-color="#D2E0D5"/>
<stop offset="0.7025" stop-color="#B8CEBC"/>
<stop offset="0.7905" stop-color="#98B89E"/>
<stop offset="0.8733" stop-color="#719E7B"/>
<stop offset="0.9499" stop-color="#468152"/>
<stop offset="1" stop-color="#266B34"/>
</linearGradient>
<linearGradient id="paint2_linear_3680_32493" x1="27.1692" y1="29.1138" x2="27.1692" y2="42.2961" gradientUnits="userSpaceOnUse">
<stop offset="0.0014881" stop-color="#29472E"/>
<stop offset="1" stop-color="#468751"/>
</linearGradient>
<linearGradient id="paint3_linear_3680_32493" x1="27.1887" y1="29.1139" x2="27.1887" y2="42.2962" gradientUnits="userSpaceOnUse">
<stop offset="0.0014881" stop-color="#29472E"/>
<stop offset="1" stop-color="#468751"/>
</linearGradient>
<linearGradient id="paint4_linear_3680_32493" x1="27.1889" y1="29.354" x2="27.1889" y2="38.5906" gradientUnits="userSpaceOnUse">
<stop stop-color="#1E3622"/>
<stop offset="1" stop-color="#29472E" stop-opacity="0"/>
</linearGradient>
<linearGradient id="paint5_linear_3680_32493" x1="27.2112" y1="33.2303" x2="27.2112" y2="40.3616" gradientUnits="userSpaceOnUse">
<stop stop-color="#FFCCCC"/>
<stop offset="0.5683" stop-color="#FF908A"/>
<stop offset="0.7337" stop-color="#F97973"/>
</linearGradient>
<clipPath id="clip0_3680_32493">
<rect width="54" height="54" fill="white"/>
</clipPath>
</defs>
</svg>
