<svg width="54" height="54" viewBox="0 0 54 54" fill="none" xmlns="http://www.w3.org/2000/svg">
<path d="M53.2784 31.8525C57.1146 44.9524 44.9524 57.1146 31.8525 53.2784C28.6834 52.3488 25.3133 52.3488 22.1442 53.2784C9.04436 57.1146 -3.11785 44.9524 0.718336 31.8525C1.64792 28.6834 1.64792 25.3133 0.718336 22.1442C-3.11785 9.04437 9.04436 -3.11785 22.1442 0.718336C25.3133 1.64792 28.6834 1.64792 31.8525 0.718336C44.9524 -3.11785 57.1146 9.04437 53.2784 22.1442C52.3515 25.3133 52.3515 28.6834 53.2784 31.8525Z" fill="url(#paint0_linear_30_32999)"/>
<path opacity="0.8" d="M36.7896 0.000244141V1.54329C41.6572 1.54329 46.3426 3.91948 49.3269 7.90301C52.3031 11.8785 53.2059 16.9122 51.7995 21.7128C50.7869 25.1712 50.7869 28.8279 51.7995 32.2864C53.2059 37.087 52.3058 42.1206 49.3269 46.0961C46.3452 50.077 41.6572 52.4558 36.7896 52.4558C35.2894 52.4558 33.7732 52.2362 32.2864 51.7995C30.5692 51.2959 28.7904 51.0414 26.9982 51.0414C25.2087 51.0414 23.4299 51.2959 21.7101 51.7995C20.2233 52.2362 18.707 52.4558 17.2068 52.4558C12.3392 52.4558 7.65117 50.0797 4.66955 46.0961C1.69329 42.1206 0.790507 37.087 2.19693 32.2864C3.20956 28.8279 3.20956 25.1712 2.19693 21.7128C0.790507 16.9122 1.69061 11.8785 4.66955 7.90301C7.65117 3.92216 12.3392 1.54329 17.2068 1.54329C18.707 1.54329 20.2233 1.76296 21.7101 2.19962C23.4272 2.70326 25.206 2.95775 26.9982 2.95775C28.7877 2.95775 30.5665 2.70326 32.2864 2.19962C33.7732 1.76296 35.2894 1.54329 36.7896 1.54329V0.000244141ZM36.7896 0.000244141C35.1796 0.000244141 33.524 0.23063 31.8524 0.71819C30.2665 1.18164 28.6323 1.4147 26.9982 1.4147C25.3641 1.4147 23.7299 1.18164 22.144 0.71819C20.4724 0.227951 18.8195 0.000244141 17.2095 0.000244141C6.20456 0.000244141 -2.62778 10.7159 0.720853 22.1441C1.65043 25.3132 1.65043 28.6833 0.720853 31.8524C-2.62778 43.2806 6.20456 53.9962 17.2095 53.9962C18.8195 53.9962 20.4751 53.7658 22.1467 53.2783C23.7326 52.8148 25.3668 52.5817 27.0009 52.5817C28.635 52.5817 30.2691 52.8148 31.8551 53.2783C33.5267 53.7685 35.1822 53.9962 36.7923 53.9962C47.7972 53.9962 56.6296 43.2806 53.2809 31.8524C52.3513 28.6833 52.3513 25.3132 53.2809 22.1441C56.6269 10.7159 47.7945 0.000244141 36.7896 0.000244141Z" fill="url(#paint1_linear_30_32999)"/>
<path d="M35.2686 25.1473C36.6164 25.1473 37.7091 24.0547 37.7091 22.7068C37.7091 21.359 36.6164 20.2664 35.2686 20.2664C33.9208 20.2664 32.8281 21.359 32.8281 22.7068C32.8281 24.0547 33.9208 25.1473 35.2686 25.1473Z" fill="#3F0606"/>
<path d="M18.7276 25.1473C20.0754 25.1473 21.1681 24.0547 21.1681 22.7068C21.1681 21.359 20.0754 20.2664 18.7276 20.2664C17.3797 20.2664 16.2871 21.359 16.2871 22.7068C16.2871 24.0547 17.3797 25.1473 18.7276 25.1473Z" fill="#3F0606"/>
<path opacity="0.3" d="M34.4427 22.4979C34.8155 22.4979 35.1177 22.1956 35.1177 21.8228C35.1177 21.4499 34.8155 21.1477 34.4427 21.1477C34.0698 21.1477 33.7676 21.4499 33.7676 21.8228C33.7676 22.1956 34.0698 22.4979 34.4427 22.4979Z" fill="#FFCCCC"/>
<path opacity="0.3" d="M17.9143 22.4979C18.2872 22.4979 18.5894 22.1956 18.5894 21.8228C18.5894 21.4499 18.2872 21.1477 17.9143 21.1477C17.5415 21.1477 17.2393 21.4499 17.2393 21.8228C17.2393 22.1956 17.5415 22.4979 17.9143 22.4979Z" fill="#FFCCCC"/>
<path opacity="0.7" d="M38.7725 32.2705C38.7725 34.4083 37.8537 35.0539 36.7178 35.0539C35.5846 35.0539 34.6631 34.4056 34.6631 32.2705C34.6631 30.1354 36.7178 26.8618 36.7178 26.8618C36.7178 26.8618 38.7725 30.1328 38.7725 32.2705Z" fill="url(#paint2_linear_30_32999)"/>
<path opacity="0.6" d="M37.709 30.4274C37.709 31.4561 37.2669 31.7695 36.7178 31.7695C36.1713 31.7695 35.7266 31.4588 35.7266 30.4274C35.7266 29.396 36.7178 27.8208 36.7178 27.8208C36.7178 27.8208 37.709 29.3987 37.709 30.4274Z" fill="white"/>
<path d="M21.9805 33.5912C22.393 31.6705 24.4424 30.2131 26.907 30.2131C29.3233 30.2131 31.3406 31.6169 31.8067 33.4814" stroke="#3F0606" stroke-width="1.60734" stroke-miterlimit="10" stroke-linecap="round"/>
<defs>
<linearGradient id="paint0_linear_30_32999" x1="10.5881" y1="10.5882" x2="121.062" y2="121.062" gradientUnits="userSpaceOnUse">
<stop stop-color="#FFCCCC"/>
<stop offset="0.0446" stop-color="#FFC0BF"/>
<stop offset="0.165" stop-color="#FFA6A2"/>
<stop offset="0.2691" stop-color="#FF9690"/>
<stop offset="0.3444" stop-color="#FF908A"/>
<stop offset="0.6998" stop-color="#FB807A"/>
<stop offset="1" stop-color="#F97973"/>
</linearGradient>
<linearGradient id="paint1_linear_30_32999" x1="26.9986" y1="-6.00821" x2="26.9986" y2="63.2948" gradientUnits="userSpaceOnUse">
<stop stop-color="white"/>
<stop offset="0.1673" stop-color="#FEFCFC"/>
<stop offset="0.3105" stop-color="#F9F1F1"/>
<stop offset="0.4449" stop-color="#F2DFDF"/>
<stop offset="0.5739" stop-color="#E8C7C7"/>
<stop offset="0.6991" stop-color="#DCA6A6"/>
<stop offset="0.8214" stop-color="#CC7F7F"/>
<stop offset="0.9392" stop-color="#B95151"/>
<stop offset="0.9987" stop-color="#AF3737"/>
</linearGradient>
<linearGradient id="paint2_linear_30_32999" x1="36.7185" y1="26.2526" x2="36.7185" y2="38.8367" gradientUnits="userSpaceOnUse">
<stop stop-color="white"/>
<stop offset="0.2216" stop-color="#FEFCFC"/>
<stop offset="0.3816" stop-color="#FBF3F3"/>
<stop offset="0.5222" stop-color="#F6E3E3"/>
<stop offset="0.6517" stop-color="#EFCDCD"/>
<stop offset="0.7736" stop-color="#E6B0B0"/>
<stop offset="0.8881" stop-color="#DB8D8D"/>
<stop offset="0.9979" stop-color="#CE6464"/>
<stop offset="1" stop-color="#CE6363"/>
</linearGradient>
</defs>
</svg>
