<svg width="24" height="24" viewBox="0 0 24 24" fill="none" xmlns="http://www.w3.org/2000/svg">
<path fill-rule="evenodd" clip-rule="evenodd" d="M17.207 10.415L11.623 15.999C11.4355 16.1865 11.1812 16.2918 10.916 16.2918C10.6508 16.2918 10.3965 16.1865 10.209 15.999L6.79299 12.582C6.70014 12.4892 6.6265 12.379 6.57625 12.2577C6.526 12.1364 6.50014 12.0064 6.50014 11.875C6.50014 11.7437 6.526 11.6137 6.57625 11.4924C6.6265 11.3711 6.70014 11.2609 6.79299 11.168C6.88583 11.0752 6.99605 11.0016 7.11736 10.9513C7.23867 10.9011 7.36869 10.8752 7.49999 10.8752C7.63129 10.8752 7.76131 10.9011 7.88261 10.9513C8.00392 11.0016 8.11414 11.0752 8.20699 11.168L10.916 13.877L15.793 9.00105C15.8858 8.9082 15.9961 8.83456 16.1174 8.78431C16.2387 8.73406 16.3687 8.7082 16.5 8.7082C16.6313 8.7082 16.7613 8.73406 16.8826 8.78431C17.0039 8.83456 17.1141 8.9082 17.207 9.00105C17.2998 9.09389 17.3735 9.20412 17.4237 9.32542C17.474 9.44673 17.4998 9.57675 17.4998 9.70805C17.4998 9.83935 17.474 9.96937 17.4237 10.0907C17.3735 10.212 17.2998 10.3222 17.207 10.415ZM19.7 2.80005H18.07V1.80005C18.07 1.53483 17.9646 1.28048 17.7771 1.09294C17.5896 0.905406 17.3352 0.800049 17.07 0.800049C16.8048 0.800049 16.5504 0.905406 16.3629 1.09294C16.1753 1.28048 16.07 1.53483 16.07 1.80005V2.80005H7.92999V1.80005C7.92999 1.53483 7.82463 1.28048 7.63709 1.09294C7.44956 0.905406 7.1952 0.800049 6.92999 0.800049C6.66477 0.800049 6.41042 0.905406 6.22288 1.09294C6.03534 1.28048 5.92999 1.53483 5.92999 1.80005V2.80005H4.29999C3.76956 2.80005 3.26085 3.01076 2.88577 3.38584C2.5107 3.76091 2.29999 4.26962 2.29999 4.80005V20.2001C2.29999 20.7305 2.5107 21.2392 2.88577 21.6143C3.26085 21.9893 3.76956 22.2001 4.29999 22.2001H19.7C20.2304 22.2001 20.7391 21.9893 21.1142 21.6143C21.4893 21.2392 21.7 20.7305 21.7 20.2001V4.80005C21.7 4.26962 21.4893 3.76091 21.1142 3.38584C20.7391 3.01076 20.2304 2.80005 19.7 2.80005Z" fill="#E2E4E6"/>
</svg>
