<svg width="54" height="54" viewBox="0 0 54 54" fill="none" xmlns="http://www.w3.org/2000/svg">
<path d="M53.2782 31.8524C57.1153 44.9521 44.9521 57.1153 31.8524 53.2782C28.6835 52.3498 25.3133 52.3498 22.1444 53.2782C9.04473 57.1153 -3.11847 44.9521 0.718584 31.8524C1.64699 28.6835 1.64699 25.3133 0.718584 22.1444C-3.11847 9.04473 9.04473 -3.11847 22.1444 0.718584C25.3133 1.64699 28.6835 1.64699 31.8524 0.718584C44.9521 -3.11847 57.1153 9.04473 53.2782 22.1444C52.3498 25.316 52.3498 28.6835 53.2782 31.8524Z" fill="url(#paint0_linear_3680_32490)"/>
<path opacity="0.8" d="M36.79 0.00219727V1.54507C41.6575 1.54507 46.3451 3.92243 49.3262 7.90439C52.3046 11.8783 53.2035 16.9121 51.7975 21.7124C50.7832 25.1711 50.7832 28.8284 51.7975 32.2871C53.2035 37.0875 52.3019 42.1213 49.3262 46.0952C46.3424 50.0771 41.6575 52.4545 36.79 52.4545C35.2901 52.4545 33.7741 52.2345 32.2875 51.7971C30.5702 51.2926 28.7912 51.0377 27.0015 51.0377C25.2118 51.0377 23.4328 51.2926 21.7155 51.7971C20.229 52.2318 18.7129 52.4545 17.213 52.4545C12.3456 52.4545 7.65792 50.0771 4.67683 46.0952C1.69841 42.1213 0.799524 37.0875 2.20555 32.2871C3.21982 28.8284 3.21982 25.1711 2.20555 21.7124C0.799524 16.9121 1.7011 11.8783 4.67683 7.90439C7.66061 3.92243 12.3456 1.54507 17.213 1.54507C18.7129 1.54507 20.229 1.7651 21.7155 2.20247C23.4328 2.70692 25.2118 2.96183 27.0015 2.96183C28.7912 2.96183 30.5703 2.70692 32.2902 2.20247C33.7767 1.76778 35.2928 1.54507 36.7927 1.54507L36.79 0.00219727ZM36.79 0.00219727C35.1801 0.00219727 33.5245 0.230274 31.8528 0.72131C30.267 1.18551 28.6329 1.41627 26.9988 1.41627C25.3647 1.41627 23.7306 1.18551 22.1448 0.72131C20.4732 0.232957 18.8176 0.00219727 17.2076 0.00219727C6.2036 0.00219727 -2.62968 10.7191 0.719024 22.1471C1.64743 25.316 1.64743 28.6862 0.719024 31.8551C-2.62968 43.2831 6.20091 54 17.2076 54C18.8176 54 20.4732 53.772 22.1448 53.2809C23.7306 52.8167 25.3647 52.586 26.9988 52.586C28.6329 52.586 30.267 52.8167 31.8528 53.2809C33.5245 53.7693 35.1801 54 36.79 54C47.7941 54 56.6273 43.2831 53.2786 31.8551C52.3502 28.6862 52.3502 25.316 53.2786 22.1471C56.6273 10.7164 47.7968 0.00219727 36.79 0.00219727Z" fill="url(#paint1_linear_3680_32490)"/>
<path d="M31.6089 23.6551C31.8235 22.1524 33.3852 20.9852 35.2823 20.9852C37.1766 20.9852 38.7383 22.1524 38.9556 23.6551" stroke="#1A211B" stroke-width="1.60995" stroke-miterlimit="10" stroke-linecap="round"/>
<path d="M15.0459 23.6551C15.2606 22.1524 16.8222 20.9852 18.7193 20.9852C20.6137 20.9852 22.1753 22.1524 22.3927 23.6551" stroke="#1A211B" stroke-width="1.60995" stroke-miterlimit="10" stroke-linecap="round"/>
<path d="M31.964 30.9293C31.5508 32.8532 29.4981 34.3129 27.0295 34.3129C24.6092 34.3129 22.5887 32.9069 22.1191 31.0393" stroke="#1A211B" stroke-width="1.60995" stroke-miterlimit="10" stroke-linecap="round"/>
<g filter="url(#filter0_d_3680_32490)">
<path d="M41.8037 17.4453C32.8944 11.789 36.7437 7.61446 36.8521 7.50603C36.8882 7.46989 36.9244 7.43375 36.9605 7.37953C37.4846 6.80124 38.2436 6.45789 39.093 6.45789C40.3399 6.45789 41.388 7.23496 41.8037 8.33732C42.2193 7.23496 43.2855 6.45789 44.5144 6.45789C45.3638 6.45789 46.1047 6.81932 46.6468 7.37953C46.683 7.41567 46.7191 7.45182 46.7553 7.50603C46.8818 7.61446 50.7129 11.789 41.8037 17.4453Z" fill="url(#paint2_linear_3680_32490)"/>
</g>
<path d="M44.5344 6.80125C45.2572 6.80125 45.9078 7.09039 46.3957 7.61447L46.5042 7.74097C46.5403 7.77711 47.4981 8.80718 47.2993 10.524C47.0463 12.6022 45.1488 14.8431 41.8056 16.9936C38.4804 14.8431 36.5829 12.6022 36.3299 10.524C36.1131 8.80718 37.0889 7.75904 37.1431 7.70482L37.2335 7.59639C37.7214 7.07232 38.3901 6.78318 39.0949 6.78318C40.143 6.78318 41.1008 7.45182 41.4803 8.42768C41.5345 8.57226 41.661 8.66261 41.8237 8.66261C41.9863 8.66261 42.1128 8.57226 42.167 8.42768C42.5104 7.46989 43.4682 6.80125 44.5344 6.80125ZM44.5344 6.43982C43.2875 6.43982 42.2393 7.21689 41.8237 8.31926C41.408 7.21689 40.3418 6.43982 39.1129 6.43982C38.2636 6.43982 37.5226 6.80125 36.9805 7.36147C36.9444 7.39761 36.9082 7.43375 36.8721 7.48797C36.7636 7.61447 32.8963 11.7709 41.8237 17.4273C50.7329 11.7709 46.9017 7.59639 46.7933 7.48797C46.7572 7.45182 46.721 7.41568 46.6849 7.36147C46.1247 6.80125 45.3657 6.43982 44.5344 6.43982Z" fill="url(#paint3_linear_3680_32490)"/>
<path d="M44.5344 6.80125C45.2572 6.80125 45.9078 7.09039 46.3957 7.61447L46.5042 7.74097C46.5403 7.77711 47.4981 8.80718 47.2993 10.524C47.0463 12.6022 45.1488 14.8431 41.8056 16.9936C38.4804 14.8431 36.5829 12.6022 36.3299 10.524C36.1131 8.80718 37.0889 7.75904 37.1431 7.70482L37.2335 7.59639C37.7214 7.07232 38.3901 6.78318 39.0949 6.78318C40.143 6.78318 41.1008 7.45182 41.4803 8.42768C41.5345 8.57225 41.661 8.66261 41.8237 8.66261C41.9863 8.66261 42.1128 8.57225 42.167 8.42768C42.5104 7.46989 43.4682 6.80125 44.5344 6.80125ZM44.5344 6.43982C43.2875 6.43982 42.2393 7.21689 41.8237 8.31926C41.408 7.21689 40.3418 6.43982 39.1129 6.43982C38.2636 6.43982 37.5226 6.80125 36.9805 7.36147C36.9444 7.39761 36.9082 7.43375 36.8721 7.48797C36.7636 7.61447 32.8963 11.7709 41.8237 17.4273C50.7329 11.7709 46.9017 7.59639 46.7933 7.48797C46.7572 7.45182 46.721 7.41568 46.6849 7.36147C46.1247 6.80125 45.3657 6.43982 44.5344 6.43982Z" fill="url(#paint4_linear_3680_32490)"/>
<g filter="url(#filter1_d_3680_32490)">
<path d="M39.9218 48.8914C31.0126 43.235 34.8618 39.0605 34.9703 38.9521C35.0064 38.9159 35.0425 38.8798 35.0787 38.8256C35.6028 38.2473 36.3618 37.9039 37.2111 37.9039C38.458 37.9039 39.5062 38.681 39.9218 39.7834C40.3375 38.681 41.4037 37.9039 42.6326 37.9039C43.4819 37.9039 44.2229 38.2654 44.765 38.8256C44.8011 38.8617 44.8373 38.8979 44.8734 38.9521C44.9999 39.0605 48.8311 43.235 39.9218 48.8914Z" fill="url(#paint5_linear_3680_32490)"/>
</g>
<path d="M42.6525 38.2472C43.3754 38.2472 44.026 38.5363 44.5139 39.0604L44.6223 39.1869C44.6585 39.223 45.6163 40.2531 45.4175 41.9699C45.1645 44.0481 43.267 46.289 39.9238 48.4395C36.5986 46.289 34.7011 44.0481 34.4481 41.9699C34.2312 40.2531 35.2071 39.205 35.2613 39.1507L35.3517 39.0423C35.8396 38.5182 36.5082 38.2291 37.213 38.2291C38.2612 38.2291 39.219 38.8977 39.5985 39.8736C39.6527 40.0182 39.7792 40.1085 39.9418 40.1085C40.1045 40.1085 40.231 40.0182 40.2852 39.8736C40.6285 38.9158 41.5863 38.2472 42.6525 38.2472ZM42.6525 37.8857C41.4056 37.8857 40.3575 38.6628 39.9418 39.7652C39.5262 38.6628 38.46 37.8857 37.2311 37.8857C36.3817 37.8857 35.6408 38.2472 35.0987 38.8074C35.0625 38.8435 35.0264 38.8797 34.9902 38.9339C34.8818 39.0604 31.0145 43.2168 39.9418 48.8732C48.8511 43.2168 45.0199 39.0423 44.9115 38.9339C44.8753 38.8977 44.8392 38.8616 44.8031 38.8074C44.2428 38.2472 43.4838 37.8857 42.6525 37.8857Z" fill="url(#paint6_linear_3680_32490)"/>
<path d="M42.6525 38.2472C43.3754 38.2472 44.026 38.5363 44.5139 39.0604L44.6223 39.1869C44.6585 39.223 45.6163 40.2531 45.4175 41.9699C45.1645 44.0481 43.267 46.289 39.9238 48.4395C36.5986 46.289 34.7011 44.0481 34.4481 41.9699C34.2312 40.2531 35.2071 39.205 35.2613 39.1507L35.3517 39.0423C35.8396 38.5182 36.5082 38.2291 37.213 38.2291C38.2612 38.2291 39.219 38.8977 39.5985 39.8736C39.6527 40.0182 39.7792 40.1085 39.9418 40.1085C40.1045 40.1085 40.231 40.0182 40.2852 39.8736C40.6285 38.9158 41.5863 38.2472 42.6525 38.2472ZM42.6525 37.8857C41.4056 37.8857 40.3575 38.6628 39.9418 39.7652C39.5262 38.6628 38.46 37.8857 37.2311 37.8857C36.3817 37.8857 35.6408 38.2472 35.0987 38.8074C35.0625 38.8435 35.0264 38.8797 34.9902 38.9339C34.8818 39.0604 31.0145 43.2168 39.9418 48.8732C48.8511 43.2168 45.0199 39.0423 44.9115 38.9339C44.8753 38.8977 44.8392 38.8616 44.8031 38.8074C44.2428 38.2472 43.4838 37.8857 42.6525 37.8857Z" fill="url(#paint7_linear_3680_32490)"/>
<g filter="url(#filter2_d_3680_32490)">
<path d="M9.2817 39.7524C0.372459 34.096 4.22169 29.9215 4.33012 29.813C4.36626 29.7769 4.4024 29.7408 4.43854 29.6865C4.96262 29.1083 5.72162 28.7649 6.57098 28.7649C7.81791 28.7649 8.86606 29.542 9.2817 30.6443C9.69735 29.542 10.7636 28.7649 11.9924 28.7649C12.8418 28.7649 13.5827 29.1263 14.1249 29.6865C14.161 29.7227 14.1971 29.7588 14.2333 29.813C14.3598 29.9215 18.1909 34.096 9.2817 39.7524Z" fill="url(#paint8_linear_3680_32490)"/>
</g>
<path d="M12.0124 29.1081C12.7353 29.1081 13.3858 29.3973 13.8738 29.9214L13.9822 30.0479C14.0183 30.084 14.9761 31.1141 14.7773 32.8309C14.5243 34.9091 12.6268 37.1499 9.28362 39.3005C5.95846 37.1499 4.06096 34.9091 3.80796 32.8309C3.5911 31.1141 4.56696 30.0659 4.62117 30.0117L4.71153 29.9033C5.19946 29.3792 5.86811 29.0901 6.57289 29.0901C7.62104 29.0901 8.57883 29.7587 8.95833 30.7346C9.01254 30.8791 9.13905 30.9695 9.30169 30.9695C9.46433 30.9695 9.59083 30.8791 9.64504 30.7346C9.9884 29.7768 10.9462 29.1081 12.0124 29.1081ZM12.0124 28.7467C10.7655 28.7467 9.71733 29.5238 9.30169 30.6261C8.88604 29.5238 7.81983 28.7467 6.59097 28.7467C5.74161 28.7467 5.00067 29.1081 4.45853 29.6684C4.42239 29.7045 4.38624 29.7406 4.3501 29.7949C4.24167 29.9214 0.374374 34.0778 9.30169 39.7342C18.2109 34.0778 14.3798 29.9033 14.2713 29.7949C14.2352 29.7587 14.1991 29.7226 14.1629 29.6684C13.6027 29.1081 12.8437 28.7467 12.0124 28.7467Z" fill="url(#paint9_linear_3680_32490)"/>
<path d="M12.0124 29.1081C12.7353 29.1081 13.3858 29.3973 13.8738 29.9213L13.9822 30.0479C14.0183 30.084 14.9761 31.1141 14.7773 32.8309C14.5243 34.9091 12.6268 37.1499 9.28362 39.3005C5.95846 37.1499 4.06096 34.9091 3.80796 32.8309C3.5911 31.1141 4.56696 30.0659 4.62117 30.0117L4.71153 29.9033C5.19946 29.3792 5.86811 29.0901 6.57289 29.0901C7.62104 29.0901 8.57883 29.7587 8.95833 30.7346C9.01254 30.8791 9.13905 30.9695 9.30169 30.9695C9.46433 30.9695 9.59083 30.8791 9.64504 30.7346C9.9884 29.7768 10.9462 29.1081 12.0124 29.1081ZM12.0124 28.7467C10.7655 28.7467 9.71733 29.5238 9.30169 30.6261C8.88604 29.5238 7.81983 28.7467 6.59097 28.7467C5.74161 28.7467 5.00067 29.1081 4.45853 29.6684C4.42239 29.7045 4.38624 29.7406 4.3501 29.7948C4.24167 29.9214 0.374374 34.0778 9.30169 39.7342C18.2109 34.0778 14.3798 29.9033 14.2713 29.7948C14.2352 29.7587 14.1991 29.7226 14.1629 29.6684C13.6027 29.1081 12.8437 28.7467 12.0124 28.7467Z" fill="url(#paint10_linear_3680_32490)"/>
<defs>
<filter id="filter0_d_3680_32490" x="33.4691" y="3.99389" width="16.6765" height="15.9154" filterUnits="userSpaceOnUse" color-interpolation-filters="sRGB">
<feFlood flood-opacity="0" result="BackgroundImageFix"/>
<feColorMatrix in="SourceAlpha" type="matrix" values="0 0 0 0 0 0 0 0 0 0 0 0 0 0 0 0 0 0 127 0" result="hardAlpha"/>
<feOffset/>
<feGaussianBlur stdDeviation="1.232"/>
<feComposite in2="hardAlpha" operator="out"/>
<feColorMatrix type="matrix" values="0 0 0 0 0 0 0 0 0 0 0 0 0 0 0 0 0 0 0.1 0"/>
<feBlend mode="normal" in2="BackgroundImageFix" result="effect1_dropShadow_3680_32490"/>
<feBlend mode="normal" in="SourceGraphic" in2="effect1_dropShadow_3680_32490" result="shape"/>
</filter>
<filter id="filter1_d_3680_32490" x="31.5873" y="35.4399" width="16.6765" height="15.9154" filterUnits="userSpaceOnUse" color-interpolation-filters="sRGB">
<feFlood flood-opacity="0" result="BackgroundImageFix"/>
<feColorMatrix in="SourceAlpha" type="matrix" values="0 0 0 0 0 0 0 0 0 0 0 0 0 0 0 0 0 0 127 0" result="hardAlpha"/>
<feOffset/>
<feGaussianBlur stdDeviation="1.232"/>
<feComposite in2="hardAlpha" operator="out"/>
<feColorMatrix type="matrix" values="0 0 0 0 0 0 0 0 0 0 0 0 0 0 0 0 0 0 0.1 0"/>
<feBlend mode="normal" in2="BackgroundImageFix" result="effect1_dropShadow_3680_32490"/>
<feBlend mode="normal" in="SourceGraphic" in2="effect1_dropShadow_3680_32490" result="shape"/>
</filter>
<filter id="filter2_d_3680_32490" x="0.947138" y="26.3009" width="16.6765" height="15.9154" filterUnits="userSpaceOnUse" color-interpolation-filters="sRGB">
<feFlood flood-opacity="0" result="BackgroundImageFix"/>
<feColorMatrix in="SourceAlpha" type="matrix" values="0 0 0 0 0 0 0 0 0 0 0 0 0 0 0 0 0 0 127 0" result="hardAlpha"/>
<feOffset/>
<feGaussianBlur stdDeviation="1.232"/>
<feComposite in2="hardAlpha" operator="out"/>
<feColorMatrix type="matrix" values="0 0 0 0 0 0 0 0 0 0 0 0 0 0 0 0 0 0 0.1 0"/>
<feBlend mode="normal" in2="BackgroundImageFix" result="effect1_dropShadow_3680_32490"/>
<feBlend mode="normal" in="SourceGraphic" in2="effect1_dropShadow_3680_32490" result="shape"/>
</filter>
<linearGradient id="paint0_linear_3680_32490" x1="5.42647" y1="5.42585" x2="52.2589" y2="52.2583" gradientUnits="userSpaceOnUse">
<stop stop-color="#A0F2B7"/>
<stop offset="0.058" stop-color="#99EFAF"/>
<stop offset="0.2248" stop-color="#8AE89D"/>
<stop offset="0.3457" stop-color="#85E597"/>
<stop offset="0.3602" stop-color="#83E395"/>
<stop offset="0.535" stop-color="#6ED486"/>
<stop offset="0.6515" stop-color="#67CE80"/>
<stop offset="1" stop-color="#5FB772"/>
</linearGradient>
<linearGradient id="paint1_linear_3680_32490" x1="27.0002" y1="-6.00693" x2="27.0002" y2="63.2944" gradientUnits="userSpaceOnUse">
<stop stop-color="white"/>
<stop offset="0.2428" stop-color="#FDFDFD"/>
<stop offset="0.3863" stop-color="#F4F8F5"/>
<stop offset="0.5041" stop-color="#E6EEE8"/>
<stop offset="0.6079" stop-color="#D2E0D5"/>
<stop offset="0.7025" stop-color="#B8CEBC"/>
<stop offset="0.7905" stop-color="#98B89E"/>
<stop offset="0.8733" stop-color="#719E7B"/>
<stop offset="0.9499" stop-color="#468152"/>
<stop offset="1" stop-color="#266B34"/>
</linearGradient>
<linearGradient id="paint2_linear_3680_32490" x1="41.8017" y1="7.91228" x2="41.8017" y2="17.3369" gradientUnits="userSpaceOnUse">
<stop stop-color="#FFCCCC"/>
<stop offset="0.546875" stop-color="#FF908A"/>
<stop offset="1" stop-color="#F97973"/>
</linearGradient>
<linearGradient id="paint3_linear_3680_32490" x1="41.8036" y1="4.99934" x2="41.8036" y2="20.1286" gradientUnits="userSpaceOnUse">
<stop stop-color="white"/>
<stop offset="0.1253" stop-color="#FCF4F4"/>
<stop offset="0.3432" stop-color="#F3D8D8"/>
<stop offset="0.520833" stop-color="#E4AAAA"/>
<stop offset="0.791667" stop-color="#D06A6A"/>
<stop offset="1" stop-color="#CE6363"/>
</linearGradient>
<linearGradient id="paint4_linear_3680_32490" x1="39.2101" y1="5.04506" x2="41.3024" y2="9.14783" gradientUnits="userSpaceOnUse">
<stop stop-color="white"/>
<stop offset="0.359375" stop-color="white" stop-opacity="0.0868"/>
<stop offset="0.729167" stop-color="white" stop-opacity="0"/>
</linearGradient>
<linearGradient id="paint5_linear_3680_32490" x1="39.9199" y1="39.3583" x2="39.9199" y2="48.783" gradientUnits="userSpaceOnUse">
<stop stop-color="#FFCCCC"/>
<stop offset="0.546875" stop-color="#FF908A"/>
<stop offset="1" stop-color="#F97973"/>
</linearGradient>
<linearGradient id="paint6_linear_3680_32490" x1="39.9218" y1="36.4453" x2="39.9218" y2="51.5745" gradientUnits="userSpaceOnUse">
<stop stop-color="white"/>
<stop offset="0.1253" stop-color="#FCF4F4"/>
<stop offset="0.3432" stop-color="#F3D8D8"/>
<stop offset="0.520833" stop-color="#E4AAAA"/>
<stop offset="0.791667" stop-color="#D06A6A"/>
<stop offset="1" stop-color="#CE6363"/>
</linearGradient>
<linearGradient id="paint7_linear_3680_32490" x1="37.3269" y1="36.491" x2="39.4192" y2="40.5938" gradientUnits="userSpaceOnUse">
<stop stop-color="white"/>
<stop offset="0.359375" stop-color="white" stop-opacity="0.0868"/>
<stop offset="0.729167" stop-color="white" stop-opacity="0"/>
</linearGradient>
<linearGradient id="paint8_linear_3680_32490" x1="9.27971" y1="30.2193" x2="9.27971" y2="39.6439" gradientUnits="userSpaceOnUse">
<stop stop-color="#FFCCCC"/>
<stop offset="0.546875" stop-color="#FF908A"/>
<stop offset="1" stop-color="#F97973"/>
</linearGradient>
<linearGradient id="paint9_linear_3680_32490" x1="9.28163" y1="27.3062" x2="9.28163" y2="42.4355" gradientUnits="userSpaceOnUse">
<stop stop-color="white"/>
<stop offset="0.1253" stop-color="#FCF4F4"/>
<stop offset="0.3432" stop-color="#F3D8D8"/>
<stop offset="0.520833" stop-color="#E4AAAA"/>
<stop offset="0.791667" stop-color="#D06A6A"/>
<stop offset="1" stop-color="#CE6363"/>
</linearGradient>
<linearGradient id="paint10_linear_3680_32490" x1="6.68674" y1="27.3519" x2="8.77906" y2="31.4547" gradientUnits="userSpaceOnUse">
<stop stop-color="white"/>
<stop offset="0.359375" stop-color="white" stop-opacity="0.0868"/>
<stop offset="0.729167" stop-color="white" stop-opacity="0"/>
</linearGradient>
</defs>
</svg>
