<svg width="28" height="29" viewBox="0 0 28 29" fill="none" xmlns="http://www.w3.org/2000/svg">
<path d="M27.6271 16.5168C29.6168 23.3095 23.3097 29.6166 16.517 27.6269C14.8737 27.1455 13.1262 27.1455 11.483 27.6269C4.69025 29.6166 -1.61687 23.3095 0.372798 16.5168C0.854215 14.8736 0.854215 13.126 0.372798 11.4828C-1.61687 4.69006 4.69025 -1.61706 11.483 0.372615C13.1262 0.854032 14.8737 0.854032 16.517 0.372615C23.3097 -1.61706 29.6168 4.69006 27.6271 11.4828C27.1457 13.1274 27.1457 14.8736 27.6271 16.5168Z" fill="url(#paint0_linear_221_38066)"/>
<path opacity="0.8" d="M19.0771 0.00146484V0.801507C21.6011 0.801507 24.0318 2.03427 25.5777 4.09907C27.1221 6.1597 27.5882 8.76993 26.8591 11.2591C26.3332 13.0526 26.3332 14.949 26.8591 16.7425C27.5882 19.2317 27.1207 21.8419 25.5777 23.9026C24.0304 25.9674 21.6011 27.2001 19.0771 27.2001C18.2994 27.2001 17.5132 27.086 16.7424 26.8592C15.8519 26.5977 14.9294 26.4655 14.0014 26.4655C13.0733 26.4655 12.1509 26.5977 11.2604 26.8592C10.4896 27.0846 9.70343 27.2001 8.92565 27.2001C6.40169 27.2001 3.97095 25.9674 2.42513 23.9026C0.880696 21.8419 0.414586 19.2317 1.14367 16.7425C1.66961 14.949 1.66961 13.0526 1.14367 11.2591C0.414586 8.76993 0.882088 6.1597 2.42513 4.09907C3.97234 2.03427 6.40169 0.801507 8.92565 0.801507C9.70343 0.801507 10.4896 0.9156 11.2604 1.1424C12.1509 1.40397 13.0733 1.53615 14.0014 1.53615C14.9294 1.53615 15.8519 1.40397 16.7438 1.1424C17.5146 0.916992 18.3007 0.801507 19.0785 0.801507L19.0771 0.00146484ZM19.0771 0.00146484C18.2423 0.00146484 17.3838 0.119732 16.517 0.374354C15.6947 0.615063 14.8473 0.734721 14 0.734721C13.1526 0.734721 12.3053 0.615063 11.483 0.374354C10.6162 0.121123 9.75769 0.00146484 8.92286 0.00146484C3.21682 0.00146484 -1.3636 5.55863 0.372843 11.4845C0.85426 13.1277 0.85426 14.8753 0.372843 16.5185C-1.3636 22.4444 3.21543 28.0016 8.92286 28.0016C9.75769 28.0016 10.6162 27.8833 11.483 27.6287C12.3053 27.388 13.1526 27.2683 14 27.2683C14.8473 27.2683 15.6947 27.388 16.517 27.6287C17.3838 27.8819 18.2423 28.0016 19.0771 28.0016C24.7832 28.0016 29.3636 22.4444 27.6272 16.5185C27.1457 14.8753 27.1457 13.1277 27.6272 11.4845C29.3636 5.55724 24.7846 0.00146484 19.0771 0.00146484Z" fill="url(#paint1_linear_221_38066)"/>
<path d="M16.3902 12.2663C16.5015 11.4871 17.3113 10.8818 18.295 10.8818C19.2773 10.8818 20.0871 11.4871 20.1998 12.2663" stroke="#1A211B" stroke-width="0.834834" stroke-miterlimit="10" stroke-linecap="round"/>
<path d="M7.80237 12.2663C7.91368 11.4871 8.72346 10.8818 9.70717 10.8818C10.6895 10.8818 11.4993 11.4871 11.612 12.2663" stroke="#1A211B" stroke-width="0.834834" stroke-miterlimit="10" stroke-linecap="round"/>
<path d="M16.5752 16.0381C16.3609 17.0357 15.2965 17.7926 14.0164 17.7926C12.7614 17.7926 11.7137 17.0635 11.4702 16.0951" stroke="#1A211B" stroke-width="0.834834" stroke-miterlimit="10" stroke-linecap="round"/>
<g filter="url(#filter0_d_221_38066)">
<path d="M21.6771 9.04608C17.0573 6.11302 19.0532 3.94836 19.1095 3.89214C19.1282 3.8734 19.1469 3.85466 19.1657 3.82654C19.4374 3.52668 19.831 3.34863 20.2714 3.34863C20.918 3.34863 21.4615 3.75158 21.6771 4.3232C21.8926 3.75158 22.4455 3.34863 23.0827 3.34863C23.5231 3.34863 23.9073 3.53605 24.1884 3.82654C24.2072 3.84529 24.2259 3.86403 24.2447 3.89214C24.3103 3.94836 26.2969 6.11302 21.6771 9.04608Z" fill="url(#paint2_linear_221_38066)"/>
</g>
<path d="M23.0926 3.52677C23.4674 3.52677 23.8047 3.6767 24.0577 3.94846L24.114 4.01405C24.1327 4.0328 24.6294 4.56693 24.5263 5.45716C24.3951 6.5348 23.4112 7.69678 21.6776 8.81191C19.9533 7.69678 18.9694 6.5348 18.8382 5.45716C18.7258 4.56693 19.2318 4.02342 19.2599 3.99531L19.3067 3.93909C19.5598 3.66733 19.9065 3.5174 20.2719 3.5174C20.8154 3.5174 21.3121 3.86412 21.5089 4.37014C21.537 4.44511 21.6026 4.49196 21.6869 4.49196C21.7713 4.49196 21.8369 4.44511 21.865 4.37014C22.043 3.87349 22.5397 3.52677 23.0926 3.52677ZM23.0926 3.33936C22.446 3.33936 21.9025 3.7423 21.6869 4.31392C21.4714 3.7423 20.9185 3.33936 20.2813 3.33936C19.8409 3.33936 19.4567 3.52677 19.1756 3.81727C19.1568 3.83601 19.1381 3.85475 19.1193 3.88286C19.0631 3.94846 17.0578 6.10374 21.6869 9.03681C26.3067 6.10374 24.3201 3.93909 24.2639 3.88286C24.2452 3.86412 24.2264 3.84538 24.2077 3.81727C23.9172 3.52677 23.5236 3.33936 23.0926 3.33936Z" fill="url(#paint3_linear_221_38066)"/>
<path d="M23.0926 3.52677C23.4674 3.52677 23.8047 3.6767 24.0577 3.94846L24.114 4.01405C24.1327 4.0328 24.6294 4.56693 24.5263 5.45716C24.3951 6.5348 23.4112 7.69678 21.6776 8.8119C19.9533 7.69678 18.9694 6.5348 18.8382 5.45716C18.7258 4.56693 19.2318 4.02342 19.2599 3.99531L19.3067 3.93909C19.5598 3.66733 19.9065 3.5174 20.2719 3.5174C20.8154 3.5174 21.3121 3.86412 21.5089 4.37014C21.537 4.44511 21.6026 4.49196 21.6869 4.49196C21.7713 4.49196 21.8369 4.44511 21.865 4.37014C22.043 3.87349 22.5397 3.52677 23.0926 3.52677ZM23.0926 3.33936C22.446 3.33936 21.9025 3.7423 21.6869 4.31392C21.4714 3.7423 20.9185 3.33936 20.2813 3.33936C19.8409 3.33936 19.4567 3.52677 19.1756 3.81727C19.1568 3.83601 19.1381 3.85475 19.1193 3.88286C19.0631 3.94846 17.0578 6.10374 21.6869 9.0368C26.3067 6.10374 24.3201 3.93909 24.2639 3.88286C24.2452 3.86412 24.2264 3.84538 24.2077 3.81727C23.9172 3.52677 23.5236 3.33936 23.0926 3.33936Z" fill="url(#paint4_linear_221_38066)"/>
<g filter="url(#filter1_d_221_38066)">
<path d="M20.7009 25.3522C16.0811 22.4192 18.0771 20.2545 18.1333 20.1983C18.1521 20.1796 18.1708 20.1608 18.1896 20.1327C18.4613 19.8328 18.8549 19.6548 19.2953 19.6548C19.9419 19.6548 20.4854 20.0577 20.7009 20.6293C20.9165 20.0577 21.4693 19.6548 22.1066 19.6548C22.547 19.6548 22.9312 19.8422 23.2123 20.1327C23.231 20.1514 23.2498 20.1702 23.2685 20.1983C23.3341 20.2545 25.3207 22.4192 20.7009 25.3522Z" fill="url(#paint5_linear_221_38066)"/>
</g>
<path d="M22.1174 19.8329C22.4922 19.8329 22.8296 19.9829 23.0826 20.2546L23.1388 20.3202C23.1576 20.3389 23.6542 20.8731 23.5511 21.7633C23.4199 22.841 22.436 24.0029 20.7024 25.1181C18.9782 24.0029 17.9942 22.841 17.863 21.7633C17.7506 20.8731 18.2566 20.3296 18.2847 20.3015L18.3316 20.2452C18.5846 19.9735 18.9313 19.8236 19.2968 19.8236C19.8403 19.8236 20.3369 20.1703 20.5337 20.6763C20.5618 20.7513 20.6274 20.7981 20.7118 20.7981C20.7961 20.7981 20.8617 20.7513 20.8898 20.6763C21.0679 20.1796 21.5645 19.8329 22.1174 19.8329ZM22.1174 19.6455C21.4708 19.6455 20.9273 20.0485 20.7118 20.6201C20.4962 20.0485 19.9434 19.6455 19.3062 19.6455C18.8657 19.6455 18.4815 19.8329 18.2004 20.1234C18.1817 20.1422 18.1629 20.1609 18.1442 20.189C18.0879 20.2546 16.0826 22.4099 20.7118 25.343C25.3316 22.4099 23.345 20.2452 23.2887 20.189C23.27 20.1703 23.2513 20.1515 23.2325 20.1234C22.942 19.8329 22.5485 19.6455 22.1174 19.6455Z" fill="url(#paint6_linear_221_38066)"/>
<path d="M22.1174 19.8329C22.4922 19.8329 22.8296 19.9829 23.0826 20.2546L23.1388 20.3202C23.1576 20.3389 23.6542 20.8731 23.5511 21.7633C23.4199 22.841 22.436 24.0029 20.7024 25.1181C18.9782 24.0029 17.9942 22.841 17.863 21.7633C17.7506 20.8731 18.2566 20.3296 18.2847 20.3015L18.3316 20.2452C18.5846 19.9735 18.9313 19.8236 19.2968 19.8236C19.8403 19.8236 20.3369 20.1703 20.5337 20.6763C20.5618 20.7513 20.6274 20.7981 20.7118 20.7981C20.7961 20.7981 20.8617 20.7513 20.8898 20.6763C21.0679 20.1796 21.5645 19.8329 22.1174 19.8329ZM22.1174 19.6455C21.4708 19.6455 20.9273 20.0485 20.7118 20.6201C20.4962 20.0485 19.9434 19.6455 19.3062 19.6455C18.8657 19.6455 18.4815 19.8329 18.2004 20.1234C18.1817 20.1422 18.1629 20.1609 18.1442 20.189C18.0879 20.2546 16.0826 22.4099 20.7118 25.343C25.3316 22.4099 23.345 20.2452 23.2887 20.189C23.27 20.1703 23.2513 20.1515 23.2325 20.1234C22.942 19.8329 22.5485 19.6455 22.1174 19.6455Z" fill="url(#paint7_linear_221_38066)"/>
<g filter="url(#filter2_d_221_38066)">
<path d="M4.8133 20.613C0.193489 17.6799 2.18947 15.5153 2.2457 15.459C2.26444 15.4403 2.28318 15.4216 2.30192 15.3934C2.57367 15.0936 2.96725 14.9155 3.40767 14.9155C4.05426 14.9155 4.59777 15.3185 4.8133 15.8901C5.02882 15.3185 5.5817 14.9155 6.21892 14.9155C6.65934 14.9155 7.04355 15.1029 7.32467 15.3934C7.34341 15.4122 7.36215 15.4309 7.3809 15.459C7.44649 15.5153 9.4331 17.6799 4.8133 20.613Z" fill="url(#paint8_linear_221_38066)"/>
</g>
<path d="M6.22976 15.0937C6.60459 15.0937 6.94194 15.2436 7.19495 15.5154L7.25118 15.5809C7.26992 15.5997 7.76657 16.1338 7.66349 17.0241C7.5323 18.1017 6.54837 19.2637 4.81477 20.3788C3.09054 19.2637 2.1066 18.1017 1.97541 17.0241C1.86296 16.1338 2.36899 15.5903 2.3971 15.5622L2.44395 15.506C2.69696 15.2342 3.04368 15.0843 3.40915 15.0843C3.95265 15.0843 4.44931 15.431 4.64609 15.937C4.6742 16.012 4.7398 16.0589 4.82414 16.0589C4.90848 16.0589 4.97407 16.012 5.00218 15.937C5.18023 15.4404 5.67688 15.0937 6.22976 15.0937ZM6.22976 14.9062C5.58317 14.9062 5.03967 15.3092 4.82414 15.8808C4.60861 15.3092 4.05573 14.9062 3.41852 14.9062C2.97809 14.9062 2.59389 15.0937 2.31276 15.3842C2.29402 15.4029 2.27528 15.4216 2.25654 15.4498C2.20031 15.5154 0.19496 17.6706 4.82414 20.6037C9.44395 17.6706 7.45733 15.506 7.40111 15.4498C7.38237 15.431 7.36363 15.4123 7.34488 15.3842C7.05439 15.0937 6.66082 14.9062 6.22976 14.9062Z" fill="url(#paint9_linear_221_38066)"/>
<path d="M6.22976 15.0937C6.60459 15.0937 6.94194 15.2436 7.19495 15.5154L7.25118 15.5809C7.26992 15.5997 7.76657 16.1338 7.66349 17.0241C7.5323 18.1017 6.54837 19.2637 4.81477 20.3788C3.09054 19.2637 2.1066 18.1017 1.97541 17.0241C1.86296 16.1338 2.36899 15.5903 2.3971 15.5622L2.44395 15.506C2.69696 15.2342 3.04368 15.0843 3.40915 15.0843C3.95265 15.0843 4.44931 15.431 4.64609 15.937C4.6742 16.012 4.7398 16.0589 4.82414 16.0589C4.90848 16.0589 4.97407 16.012 5.00218 15.937C5.18023 15.4404 5.67688 15.0937 6.22976 15.0937ZM6.22976 14.9062C5.58317 14.9062 5.03967 15.3092 4.82414 15.8808C4.60861 15.3092 4.05573 14.9062 3.41852 14.9062C2.97809 14.9062 2.59389 15.0937 2.31276 15.3842C2.29402 15.4029 2.27528 15.4216 2.25654 15.4498C2.20031 15.5154 0.19496 17.6706 4.82414 20.6037C9.44394 17.6706 7.45733 15.506 7.40111 15.4498C7.38237 15.431 7.36363 15.4123 7.34488 15.3842C7.05439 15.0937 6.66082 14.9062 6.22976 14.9062Z" fill="url(#paint10_linear_221_38066)"/>
<path d="M0.372805 11.483C-1.61747 4.68992 4.68992 -1.61747 11.483 0.372805C13.1268 0.854 14.8732 0.854 16.517 0.372805C23.3101 -1.61656 29.6175 4.68992 27.6272 11.483C27.146 13.1268 27.146 14.8732 27.6272 16.517C29.6166 23.3101 23.3101 29.6175 16.517 27.6272C14.8732 27.146 13.1268 27.146 11.483 27.6272C4.68992 29.6166 -1.61747 23.3101 0.372805 16.517C0.854 14.8732 0.854 13.1268 0.372805 11.483Z" fill="#292A2B" fill-opacity="0.4"/>
<defs>
<filter id="filter0_d_221_38066" x="17.3552" y="2.07094" width="8.64737" height="8.25265" filterUnits="userSpaceOnUse" color-interpolation-filters="sRGB">
<feFlood flood-opacity="0" result="BackgroundImageFix"/>
<feColorMatrix in="SourceAlpha" type="matrix" values="0 0 0 0 0 0 0 0 0 0 0 0 0 0 0 0 0 0 127 0" result="hardAlpha"/>
<feOffset/>
<feGaussianBlur stdDeviation="0.638847"/>
<feComposite in2="hardAlpha" operator="out"/>
<feColorMatrix type="matrix" values="0 0 0 0 0 0 0 0 0 0 0 0 0 0 0 0 0 0 0.1 0"/>
<feBlend mode="normal" in2="BackgroundImageFix" result="effect1_dropShadow_221_38066"/>
<feBlend mode="normal" in="SourceGraphic" in2="effect1_dropShadow_221_38066" result="shape"/>
</filter>
<filter id="filter1_d_221_38066" x="16.3791" y="18.3771" width="8.64737" height="8.25265" filterUnits="userSpaceOnUse" color-interpolation-filters="sRGB">
<feFlood flood-opacity="0" result="BackgroundImageFix"/>
<feColorMatrix in="SourceAlpha" type="matrix" values="0 0 0 0 0 0 0 0 0 0 0 0 0 0 0 0 0 0 127 0" result="hardAlpha"/>
<feOffset/>
<feGaussianBlur stdDeviation="0.638847"/>
<feComposite in2="hardAlpha" operator="out"/>
<feColorMatrix type="matrix" values="0 0 0 0 0 0 0 0 0 0 0 0 0 0 0 0 0 0 0.1 0"/>
<feBlend mode="normal" in2="BackgroundImageFix" result="effect1_dropShadow_221_38066"/>
<feBlend mode="normal" in="SourceGraphic" in2="effect1_dropShadow_221_38066" result="shape"/>
</filter>
<filter id="filter2_d_221_38066" x="0.491472" y="13.6378" width="8.64737" height="8.25265" filterUnits="userSpaceOnUse" color-interpolation-filters="sRGB">
<feFlood flood-opacity="0" result="BackgroundImageFix"/>
<feColorMatrix in="SourceAlpha" type="matrix" values="0 0 0 0 0 0 0 0 0 0 0 0 0 0 0 0 0 0 127 0" result="hardAlpha"/>
<feOffset/>
<feGaussianBlur stdDeviation="0.638847"/>
<feComposite in2="hardAlpha" operator="out"/>
<feColorMatrix type="matrix" values="0 0 0 0 0 0 0 0 0 0 0 0 0 0 0 0 0 0 0.1 0"/>
<feBlend mode="normal" in2="BackgroundImageFix" result="effect1_dropShadow_221_38066"/>
<feBlend mode="normal" in="SourceGraphic" in2="effect1_dropShadow_221_38066" result="shape"/>
</filter>
<linearGradient id="paint0_linear_221_38066" x1="2.81403" y1="2.81352" x2="27.0986" y2="27.0981" gradientUnits="userSpaceOnUse">
<stop stop-color="#A0F2B7"/>
<stop offset="0.058" stop-color="#99EFAF"/>
<stop offset="0.2248" stop-color="#8AE89D"/>
<stop offset="0.3457" stop-color="#85E597"/>
<stop offset="0.3602" stop-color="#83E395"/>
<stop offset="0.535" stop-color="#6ED486"/>
<stop offset="0.6515" stop-color="#67CE80"/>
<stop offset="1" stop-color="#5FB772"/>
</linearGradient>
<linearGradient id="paint1_linear_221_38066" x1="14.0007" y1="-3.11451" x2="14.0007" y2="32.821" gradientUnits="userSpaceOnUse">
<stop stop-color="white"/>
<stop offset="0.2428" stop-color="#FDFDFD"/>
<stop offset="0.3863" stop-color="#F4F8F5"/>
<stop offset="0.5041" stop-color="#E6EEE8"/>
<stop offset="0.6079" stop-color="#D2E0D5"/>
<stop offset="0.7025" stop-color="#B8CEBC"/>
<stop offset="0.7905" stop-color="#98B89E"/>
<stop offset="0.8733" stop-color="#719E7B"/>
<stop offset="0.9499" stop-color="#468152"/>
<stop offset="1" stop-color="#266B34"/>
</linearGradient>
<linearGradient id="paint2_linear_221_38066" x1="21.676" y1="4.1028" x2="21.676" y2="8.98986" gradientUnits="userSpaceOnUse">
<stop stop-color="#FFCCCC"/>
<stop offset="0.546875" stop-color="#FF908A"/>
<stop offset="1" stop-color="#F97973"/>
</linearGradient>
<linearGradient id="paint3_linear_221_38066" x1="21.6765" y1="2.59241" x2="21.6765" y2="10.4376" gradientUnits="userSpaceOnUse">
<stop stop-color="white"/>
<stop offset="0.1253" stop-color="#FCF4F4"/>
<stop offset="0.3432" stop-color="#F3D8D8"/>
<stop offset="0.520833" stop-color="#E4AAAA"/>
<stop offset="0.791667" stop-color="#D06A6A"/>
<stop offset="1" stop-color="#CE6363"/>
</linearGradient>
<linearGradient id="paint4_linear_221_38066" x1="20.3317" y1="2.61612" x2="21.4166" y2="4.74357" gradientUnits="userSpaceOnUse">
<stop stop-color="white"/>
<stop offset="0.359375" stop-color="white" stop-opacity="0.0868"/>
<stop offset="0.729167" stop-color="white" stop-opacity="0"/>
</linearGradient>
<linearGradient id="paint5_linear_221_38066" x1="20.6999" y1="20.4089" x2="20.6999" y2="25.296" gradientUnits="userSpaceOnUse">
<stop stop-color="#FFCCCC"/>
<stop offset="0.546875" stop-color="#FF908A"/>
<stop offset="1" stop-color="#F97973"/>
</linearGradient>
<linearGradient id="paint6_linear_221_38066" x1="20.7014" y1="18.8986" x2="20.7014" y2="26.7437" gradientUnits="userSpaceOnUse">
<stop stop-color="white"/>
<stop offset="0.1253" stop-color="#FCF4F4"/>
<stop offset="0.3432" stop-color="#F3D8D8"/>
<stop offset="0.520833" stop-color="#E4AAAA"/>
<stop offset="0.791667" stop-color="#D06A6A"/>
<stop offset="1" stop-color="#CE6363"/>
</linearGradient>
<linearGradient id="paint7_linear_221_38066" x1="19.3558" y1="18.9223" x2="20.4408" y2="21.0497" gradientUnits="userSpaceOnUse">
<stop stop-color="white"/>
<stop offset="0.359375" stop-color="white" stop-opacity="0.0868"/>
<stop offset="0.729167" stop-color="white" stop-opacity="0"/>
</linearGradient>
<linearGradient id="paint8_linear_221_38066" x1="4.81226" y1="15.6697" x2="4.81226" y2="20.5568" gradientUnits="userSpaceOnUse">
<stop stop-color="#FFCCCC"/>
<stop offset="0.546875" stop-color="#FF908A"/>
<stop offset="1" stop-color="#F97973"/>
</linearGradient>
<linearGradient id="paint9_linear_221_38066" x1="4.81374" y1="14.1593" x2="4.81374" y2="22.0044" gradientUnits="userSpaceOnUse">
<stop stop-color="white"/>
<stop offset="0.1253" stop-color="#FCF4F4"/>
<stop offset="0.3432" stop-color="#F3D8D8"/>
<stop offset="0.520833" stop-color="#E4AAAA"/>
<stop offset="0.791667" stop-color="#D06A6A"/>
<stop offset="1" stop-color="#CE6363"/>
</linearGradient>
<linearGradient id="paint10_linear_221_38066" x1="3.46818" y1="14.183" x2="4.55313" y2="16.3105" gradientUnits="userSpaceOnUse">
<stop stop-color="white"/>
<stop offset="0.359375" stop-color="white" stop-opacity="0.0868"/>
<stop offset="0.729167" stop-color="white" stop-opacity="0"/>
</linearGradient>
</defs>
</svg>
