<svg width="34" height="34" viewBox="0 0 34 34" fill="none" xmlns="http://www.w3.org/2000/svg">
<circle cx="17" cy="17" r="17" fill="#E5FAE9"/>
<g clip-path="url(#clip0_30_33665)">
<path d="M28.7092 19.1039C30.4082 24.9043 25.0225 30.2901 19.2221 28.5911C17.8189 28.18 16.3266 28.18 14.9235 28.5911C9.12308 30.2901 3.73734 24.9043 5.43635 19.1039C5.84744 17.7008 5.84744 16.2085 5.43635 14.8053C3.73734 9.00491 9.12308 3.61917 14.9235 5.31818C16.3266 5.72927 17.8189 5.72927 19.2221 5.31818C25.0225 3.61917 30.4082 9.00491 28.7092 14.8053C28.2981 16.2085 28.2981 17.7008 28.7092 19.1039Z" fill="url(#paint0_linear_30_33665)"/>
<path opacity="0.8" d="M21.4084 5.00098V5.68414C23.5637 5.68414 25.6393 6.73682 26.9593 8.49999C28.2781 10.2596 28.6761 12.4885 28.0536 14.614C27.6045 16.1455 27.6045 17.7649 28.0536 19.2964C28.6761 21.422 28.2769 23.6509 26.9593 25.4105C25.6381 27.1737 23.5637 28.2263 21.4084 28.2263C20.7443 28.2263 20.073 28.1289 19.4147 27.9352C18.6544 27.7119 17.8666 27.599 17.0742 27.599C16.2817 27.599 15.494 27.7119 14.7324 27.9352C14.0742 28.1277 13.4029 28.2263 12.7387 28.2263C10.5835 28.2263 8.50783 27.1737 7.18783 25.4105C5.86902 23.6509 5.47099 21.422 6.09356 19.2964C6.54267 17.7649 6.54267 16.1455 6.09356 14.614C5.47099 12.4885 5.8702 10.2596 7.18783 8.49999C8.50902 6.73682 10.5835 5.68414 12.7387 5.68414C13.4029 5.68414 14.0742 5.78157 14.7324 5.97523C15.4928 6.1986 16.2805 6.31147 17.073 6.31147C17.8654 6.31147 18.6532 6.1986 19.4136 5.97523C20.0718 5.78276 20.7431 5.68414 21.4072 5.68414L21.4084 5.00098ZM21.4084 5.00098C20.6955 5.00098 19.9625 5.10197 19.2223 5.31939C18.5201 5.52494 17.7965 5.62712 17.073 5.62712C16.3494 5.62712 15.6258 5.52494 14.9237 5.31939C14.1835 5.10315 13.4504 5.00098 12.7375 5.00098C7.86505 5.00098 3.95377 9.74632 5.43654 14.8065C5.84763 16.2097 5.84763 17.702 5.43654 19.1051C3.95377 24.1653 7.86386 28.9107 12.7375 28.9107C13.4504 28.9107 14.1835 28.8097 14.9237 28.5923C15.6258 28.3867 16.3494 28.2845 17.073 28.2845C17.7965 28.2845 18.5201 28.3867 19.2223 28.5923C19.9625 28.8085 20.6955 28.9107 21.4084 28.9107C26.2809 28.9107 30.1922 24.1653 28.7094 19.1051C28.2983 17.702 28.2983 16.2097 28.7094 14.8065C30.1922 9.74514 26.2821 5.00098 21.4084 5.00098Z" fill="url(#paint1_linear_30_33665)"/>
<path d="M17.1731 22.0781C18.3431 22.0781 19.2915 20.9147 19.2915 19.4796C19.2915 18.0446 18.3431 16.8812 17.1731 16.8812C16.0031 16.8812 15.0547 18.0446 15.0547 19.4796C15.0547 20.9147 16.0031 22.0781 17.1731 22.0781Z" fill="url(#paint2_radial_30_33665)"/>
<path d="M17.1731 22.0897C18.3431 22.0897 19.2915 20.9263 19.2915 19.4912C19.2915 18.0562 18.3431 16.8928 17.1731 16.8928C16.0031 16.8928 15.0547 18.0562 15.0547 19.4912C15.0547 20.9263 16.0031 22.0897 17.1731 22.0897Z" fill="url(#paint3_linear_30_33665)" fill-opacity="0.8"/>
<path d="M20.7353 16.0932C21.3318 16.0932 21.8153 15.6097 21.8153 15.0132C21.8153 14.4168 21.3318 13.9332 20.7353 13.9332C20.1388 13.9332 19.6553 14.4168 19.6553 15.0132C19.6553 15.6097 20.1388 16.0932 20.7353 16.0932Z" fill="#1A211B"/>
<path d="M13.413 16.0932C14.0095 16.0932 14.493 15.6097 14.493 15.0132C14.493 14.4168 14.0095 13.9332 13.413 13.9332C12.8166 13.9332 12.333 14.4168 12.333 15.0132C12.333 15.6097 12.8166 16.0932 13.413 16.0932Z" fill="#1A211B"/>
<path opacity="0.5" d="M20.3687 14.9206C20.5341 14.9206 20.6682 14.7865 20.6682 14.6212C20.6682 14.4558 20.5341 14.3218 20.3687 14.3218C20.2034 14.3218 20.0693 14.4558 20.0693 14.6212C20.0693 14.7865 20.2034 14.9206 20.3687 14.9206Z" fill="#5FB772"/>
<path opacity="0.5" d="M13.0514 14.9206C13.2167 14.9206 13.3508 14.7865 13.3508 14.6212C13.3508 14.4558 13.2167 14.3218 13.0514 14.3218C12.886 14.3218 12.752 14.4558 12.752 14.6212C12.752 14.7865 12.886 14.9206 13.0514 14.9206Z" fill="#5FB772"/>
</g>
<defs>
<linearGradient id="paint0_linear_30_33665" x1="7.5206" y1="7.40236" x2="28.2576" y2="28.1393" gradientUnits="userSpaceOnUse">
<stop stop-color="#A0F2B7"/>
<stop offset="0.058" stop-color="#99EFAF"/>
<stop offset="0.2248" stop-color="#8AE89D"/>
<stop offset="0.3457" stop-color="#85E597"/>
<stop offset="0.3602" stop-color="#83E395"/>
<stop offset="0.535" stop-color="#6ED486"/>
<stop offset="0.6515" stop-color="#67CE80"/>
<stop offset="1" stop-color="#5FB772"/>
</linearGradient>
<linearGradient id="paint1_linear_30_33665" x1="17.0732" y1="2.34004" x2="17.0732" y2="33.026" gradientUnits="userSpaceOnUse">
<stop stop-color="white"/>
<stop offset="0.2428" stop-color="#FDFDFD"/>
<stop offset="0.3863" stop-color="#F4F8F5"/>
<stop offset="0.5041" stop-color="#E6EEE8"/>
<stop offset="0.6079" stop-color="#D2E0D5"/>
<stop offset="0.7025" stop-color="#B8CEBC"/>
<stop offset="0.7905" stop-color="#98B89E"/>
<stop offset="0.8733" stop-color="#719E7B"/>
<stop offset="0.9499" stop-color="#468152"/>
<stop offset="1" stop-color="#266B34"/>
</linearGradient>
<radialGradient id="paint2_radial_30_33665" cx="0" cy="0" r="1" gradientUnits="userSpaceOnUse" gradientTransform="translate(17.1731 19.4796) rotate(89.6124) scale(2.98581 2.43425)">
<stop stop-color="#1F4925"/>
<stop offset="1" stop-color="#143119"/>
</radialGradient>
<linearGradient id="paint3_linear_30_33665" x1="17.1726" y1="16.9907" x2="17.1726" y2="22.6678" gradientUnits="userSpaceOnUse">
<stop stop-color="#143018"/>
<stop offset="1" stop-color="#468751"/>
</linearGradient>
<clipPath id="clip0_30_33665">
<rect width="24" height="24" fill="white" transform="translate(5 5)"/>
</clipPath>
</defs>
</svg>
