<svg width="24" height="24" viewBox="0 0 24 24" fill="none" xmlns="http://www.w3.org/2000/svg">
<path fill-rule="evenodd" clip-rule="evenodd" d="M12.0601 3.92C10.3101 3.92 8.89009 5.29 8.77009 7.01H6.84009C6.96009 4.23 9.24009 2 12.0601 2C14.8801 2 17.1601 4.23 17.2801 7.01H15.3501C15.2301 5.28 13.8101 3.92 12.0601 3.92ZM5.52 7.01013H18.6C19.99 7.01013 21.12 8.14013 21.12 9.53013V19.5601C21.12 20.9501 19.99 22.0801 18.6 22.0801H5.52C4.13 22.0801 3 20.9501 3 19.5601V9.53013C3 8.14013 4.13 7.01013 5.52 7.01013ZM13 16.9501V14.6401C13.53 14.3201 13.88 13.7501 13.87 13.0901C13.87 12.0801 13.06 11.2701 12.05 11.2701C11.04 11.2701 10.23 12.0801 10.23 13.0901C10.23 13.7501 10.58 14.3201 11.1 14.6401V16.9501C11.1 17.4801 11.52 17.9001 12.05 17.9001C12.58 17.9001 13 17.4701 13 16.9501Z" fill="#CFD3D6"/>
</svg>
