<svg width="54" height="54" viewBox="0 0 54 54" fill="none" xmlns="http://www.w3.org/2000/svg">
<g clip-path="url(#clip0_3680_32505)">
<path d="M53.0799 31.7338C56.9026 44.7847 44.7847 56.9026 31.7338 53.0799C28.5767 52.1549 25.2191 52.1549 22.0619 53.0799C9.01106 56.9026 -3.10686 44.7847 0.715909 31.7338C1.64086 28.5767 1.64086 25.2191 0.715909 22.0619C-3.10686 9.01106 9.01106 -3.10686 22.0619 0.715909C25.2191 1.64086 28.5767 1.64086 31.7338 0.715909C44.7847 -3.10686 56.9026 9.01106 53.0799 22.0619C52.1549 25.2217 52.1549 28.5767 53.0799 31.7338Z" fill="url(#paint0_linear_3680_32505)"/>
<path opacity="0.8" d="M36.6514 0.00134277V1.53847C41.5007 1.53847 46.1709 3.90699 49.1409 7.87412C52.1082 11.8332 53.0038 16.8483 51.603 21.6308C50.5925 25.0766 50.5925 28.7203 51.603 32.1661C53.0038 36.9486 52.1055 41.9636 49.1409 45.9227C46.1682 49.8899 41.5007 52.2584 36.6514 52.2584C35.157 52.2584 33.6466 52.0392 32.1656 51.6034C30.4547 51.1008 28.6824 50.8469 26.8993 50.8469C25.1162 50.8469 23.3439 51.1008 21.633 51.6034C20.152 52.0365 18.6416 52.2584 17.1472 52.2584C12.2979 52.2584 7.62772 49.8899 4.65772 45.9227C1.69039 41.9636 0.794849 36.9486 2.19564 32.1661C3.20614 28.7203 3.20614 25.0766 2.19564 21.6308C0.794849 16.8483 1.69307 11.8332 4.65772 7.87412C7.63039 3.90699 12.2979 1.53847 17.1472 1.53847C18.6416 1.53847 20.152 1.75768 21.633 2.19342C23.3439 2.696 25.1162 2.94996 26.8993 2.94996C28.6824 2.94996 30.4547 2.696 32.1656 2.19342C33.6466 1.76035 35.157 1.53847 36.6514 1.53847V0.00134277ZM36.6514 0.00134277C35.0474 0.00134277 33.398 0.228571 31.7326 0.717778C30.1527 1.18025 28.5246 1.41015 26.8966 1.41015C25.2686 1.41015 23.6406 1.18025 22.0634 0.717778C20.3979 0.228571 18.7485 0.00134277 17.1446 0.00134277C6.18148 0.00134277 -2.61891 10.6784 0.717324 22.0638C1.64227 25.2209 1.64227 28.5786 0.717324 31.7357C-2.61891 43.1211 6.17881 53.7982 17.1446 53.7982C18.7485 53.7982 20.3979 53.5709 22.0634 53.0817C23.6433 52.6193 25.2713 52.3894 26.8993 52.3894C28.5273 52.3894 30.1553 52.6193 31.7352 53.0817C33.4007 53.5683 35.0501 53.7982 36.6541 53.7982C47.6171 53.7982 56.4175 43.1211 53.0813 31.7357C52.1563 28.5786 52.1563 25.2209 53.0813 22.0638C56.4148 10.6757 47.6171 0.00134277 36.6514 0.00134277Z" fill="url(#paint1_linear_3680_32505)"/>
<path d="M35.137 24.9624C36.4791 24.9624 37.567 23.8745 37.567 22.5324C37.567 21.1904 36.4791 20.1024 35.137 20.1024C33.795 20.1024 32.707 21.1904 32.707 22.5324C32.707 23.8745 33.795 24.9624 35.137 24.9624Z" fill="#1A211B"/>
<path d="M18.6605 24.9624C20.0025 24.9624 21.0905 23.8745 21.0905 22.5324C21.0905 21.1904 20.0025 20.1024 18.6605 20.1024C17.3184 20.1024 16.2305 21.1904 16.2305 22.5324C16.2305 23.8745 17.3184 24.9624 18.6605 24.9624Z" fill="#1A211B"/>
<path opacity="0.5" d="M34.3172 22.324C34.6893 22.324 34.9909 22.0224 34.9909 21.6503C34.9909 21.2783 34.6893 20.9767 34.3172 20.9767C33.9452 20.9767 33.6436 21.2783 33.6436 21.6503C33.6436 22.0224 33.9452 22.324 34.3172 22.324Z" fill="#5FB772"/>
<path opacity="0.5" d="M17.8499 22.324C18.222 22.324 18.5236 22.0224 18.5236 21.6503C18.5236 21.2783 18.222 20.9767 17.8499 20.9767C17.4779 20.9767 17.1763 21.2783 17.1763 21.6503C17.1763 22.0224 17.4779 22.324 17.8499 22.324Z" fill="#5FB772"/>
<path d="M41.7091 22.9923C41.6877 22.9843 41.6663 22.9789 41.6449 22.9736C38.4718 22.3186 35.1435 22.1422 31.9223 22.5164C30.6231 22.6662 29.3238 23.0377 28.0995 23.4895C28.0514 23.5082 28.0032 23.5162 27.9525 23.5162H26.9473H26.8537H25.8486C25.7978 23.5162 25.747 23.5082 25.7016 23.4895C24.4745 23.0377 23.178 22.6662 21.8788 22.5164C18.6575 22.1449 15.332 22.3186 12.1561 22.9736C12.1347 22.9789 12.1133 22.9843 12.092 22.9923C11.9209 23.0564 11.8086 23.2195 11.8086 23.4013V24.6845C11.8086 24.8823 11.9423 25.0561 12.1321 25.1068L12.5731 25.2245C12.7576 25.2726 12.8859 25.4357 12.8966 25.6255C12.91 25.8527 12.926 26.0772 12.9474 26.3045C13.1426 28.3415 13.5997 30.5202 15.2731 31.8702C15.4977 32.052 15.741 32.2151 15.9949 32.3541C17.3423 33.0999 18.981 33.2763 20.4833 32.993C21.2987 32.8379 22.0659 32.5225 22.753 32.0573C24.2393 31.0495 25.2257 29.4429 25.6802 27.7266C25.7524 27.4593 25.7791 27.1626 25.9047 26.914C26.0464 26.636 26.2656 26.4542 26.5116 26.3579C26.7575 26.2617 27.0382 26.2617 27.2841 26.3579C27.5301 26.4542 27.7493 26.636 27.891 26.914C28.0193 27.1626 28.046 27.4593 28.1155 27.7266C28.57 29.4429 29.5591 31.0495 31.0428 32.0573C31.7298 32.5225 32.497 32.8379 33.3124 32.993C34.8147 33.2763 36.4534 33.0999 37.8008 32.3541C38.0547 32.2151 38.2953 32.052 38.5226 31.8702C40.196 30.5202 40.6531 28.3415 40.8483 26.3045C40.8697 26.0799 40.8857 25.8527 40.8991 25.6255C40.9098 25.4357 41.0381 25.2726 41.2226 25.2245L41.6636 25.1068C41.8534 25.0561 41.9871 24.8823 41.9871 24.6845V23.4013C41.9925 23.2195 41.8802 23.0538 41.7091 22.9923Z" fill="url(#paint2_linear_3680_32505)"/>
<path d="M41.6676 25.1068L41.2265 25.2244C41.042 25.2726 40.9137 25.4356 40.903 25.6254C40.8896 25.8527 40.8736 26.0772 40.8522 26.3044C40.6571 28.3415 40.1999 30.5202 38.5265 31.8702C38.3019 32.052 38.0586 32.215 37.8047 32.3541C36.4574 33.0999 34.8186 33.2763 33.3163 32.993C32.5009 32.8379 31.7337 32.5225 31.0467 32.0573C29.5603 31.0495 28.5739 29.4429 28.1194 27.7266C28.0473 27.4593 28.0205 27.1626 27.8949 26.914C27.7532 26.6359 27.534 26.4541 27.288 26.3579C27.0421 26.2617 26.7614 26.2617 26.5155 26.3579C26.2695 26.4541 26.0503 26.6359 25.9086 26.914C25.7803 27.1626 25.7536 27.4593 25.6841 27.7266C25.2296 29.4429 24.2405 31.0495 22.7569 32.0573C22.0698 32.5225 21.3026 32.8379 20.4873 32.993C18.9849 33.2763 17.3462 33.0999 15.9988 32.3541C15.7449 32.215 15.5043 32.052 15.2771 31.8702C13.6036 30.5202 13.1465 28.3415 12.9513 26.3044C12.9299 26.0799 12.9139 25.8527 12.9005 25.6254C12.8898 25.4356 12.7615 25.2726 12.5771 25.2244L12.136 25.1068C11.9462 25.056 11.8125 24.8823 11.8125 24.6844V24.893C11.8125 25.0908 11.9462 25.2645 12.136 25.3153L12.5771 25.433C12.7615 25.4811 12.8898 25.6441 12.9005 25.834C12.9139 26.0612 12.9299 26.2857 12.9513 26.513C13.1465 28.55 13.6036 30.7287 15.2771 32.0787C15.5016 32.2605 15.7449 32.4236 15.9988 32.5626C17.3462 33.3057 18.9849 33.4848 20.4873 33.2015C21.3026 33.0464 22.0698 32.731 22.7569 32.2658C24.2432 31.258 25.2296 29.6514 25.6841 27.9351C25.7563 27.6678 25.783 27.3711 25.9086 27.1225C26.0503 26.8444 26.2695 26.6627 26.5155 26.5664C26.7614 26.4702 27.0421 26.4702 27.288 26.5664C27.534 26.6627 27.7532 26.8444 27.8949 27.1225C28.0232 27.3711 28.0499 27.6678 28.1194 27.9351C28.5739 29.6514 29.563 31.258 31.0467 32.2658C31.7337 32.731 32.5009 33.0464 33.3163 33.2015C34.8186 33.4848 36.4574 33.3084 37.8047 32.5626C38.0586 32.4236 38.2992 32.2605 38.5265 32.0787C40.1999 30.7287 40.6571 28.55 40.8522 26.513C40.8736 26.2884 40.8896 26.0612 40.903 25.834C40.9137 25.6441 41.042 25.4811 41.2265 25.433L41.6676 25.3153C41.8574 25.2645 41.991 25.0908 41.991 24.893V24.6844C41.991 24.8823 41.86 25.0534 41.6676 25.1068Z" fill="url(#paint3_linear_3680_32505)"/>
<path d="M25.3576 24.7005C25.3415 24.6738 25.3041 24.6551 25.2293 24.6256C25.1036 24.5749 24.97 24.5348 24.8416 24.492C24.593 24.4091 24.3391 24.3343 24.0851 24.2648C23.5799 24.1257 23.0666 24.0135 22.548 23.9226C21.5428 23.7461 20.5243 23.6526 19.5058 23.6205C17.8564 23.5697 16.1936 23.6686 14.5656 23.9359C14.2181 23.9921 13.8759 24.0616 13.4883 24.1979C13.6139 26.1227 13.9909 28.2934 15.5066 29.6354C15.5601 29.6808 15.6135 29.7262 15.667 29.7717C15.8755 29.9401 16.0974 30.0898 16.3326 30.2181C17.5757 30.9052 19.0861 31.0682 20.4709 30.8062C21.222 30.6646 21.9305 30.3732 22.5613 29.9455C24.2027 28.8334 25.1892 26.9995 25.3442 25.0427C25.3496 24.9839 25.3549 24.9277 25.3576 24.8689C25.3683 24.778 25.3763 24.7326 25.3576 24.7005Z" fill="url(#paint4_linear_3680_32505)"/>
<path d="M28.3862 24.7005C28.4023 24.6738 28.4397 24.6551 28.5145 24.6256C28.6402 24.5749 28.7738 24.5348 28.9022 24.492C29.1508 24.4091 29.4047 24.3343 29.6587 24.2648C30.1639 24.1257 30.6772 24.0135 31.1958 23.9226C32.201 23.7461 33.2195 23.6526 34.238 23.6205C35.8874 23.5697 37.5502 23.6686 39.1782 23.9359C39.5257 23.9921 39.8679 24.0616 40.2555 24.1979C40.1299 26.1227 39.753 28.2934 38.2372 29.6354C38.1838 29.6808 38.1303 29.7262 38.0768 29.7717C37.8683 29.9401 37.6464 30.0898 37.4112 30.2181C36.1681 30.9052 34.6577 31.0682 33.273 30.8062C32.5218 30.6646 31.8134 30.3732 31.1825 29.9455C29.5411 28.8334 28.5546 26.9995 28.3996 25.0427C28.3942 24.9839 28.3889 24.9277 28.3862 24.8689C28.3755 24.778 28.3675 24.7326 28.3862 24.7005Z" fill="url(#paint5_linear_3680_32505)"/>
<path d="M41.828 18.1805C44.8084 18.1805 47.2244 15.7643 47.2244 12.7836C47.2244 9.80299 44.8084 7.38672 41.828 7.38672C38.8477 7.38672 36.4316 9.80299 36.4316 12.7836C36.4316 15.7643 38.8477 18.1805 41.828 18.1805Z" fill="url(#paint6_linear_3680_32505)"/>
<path d="M41.828 18.1269C44.8084 18.1269 47.2244 15.7107 47.2244 12.73C47.2244 9.74941 44.8084 7.33313 41.828 7.33313C38.8477 7.33313 36.4316 9.74941 36.4316 12.73C36.4316 15.7107 38.8477 18.1269 41.828 18.1269Z" fill="url(#paint7_linear_3680_32505)"/>
<path d="M41.828 18.0546C44.8084 18.0546 47.2244 15.6383 47.2244 12.6576C47.2244 9.67702 44.8084 7.26074 41.828 7.26074C38.8477 7.26074 36.4316 9.67702 36.4316 12.6576C36.4316 15.6383 38.8477 18.0546 41.828 18.0546Z" fill="url(#paint8_linear_3680_32505)"/>
<path d="M41.828 18.0005C44.8084 18.0005 47.2244 15.5842 47.2244 12.6036C47.2244 9.62294 44.8084 7.20667 41.828 7.20667C38.8477 7.20667 36.4316 9.62294 36.4316 12.6036C36.4316 15.5842 38.8477 18.0005 41.828 18.0005Z" fill="url(#paint9_linear_3680_32505)"/>
<path d="M41.828 17.9281C44.8084 17.9281 47.2244 15.5118 47.2244 12.5312C47.2244 9.55055 44.8084 7.13428 41.828 7.13428C38.8477 7.13428 36.4316 9.55055 36.4316 12.5312C36.4316 15.5118 38.8477 17.9281 41.828 17.9281Z" fill="url(#paint10_linear_3680_32505)"/>
<path d="M41.828 17.8558C44.8084 17.8558 47.2244 15.4395 47.2244 12.4589C47.2244 9.47829 44.8084 7.06201 41.828 7.06201C38.8477 7.06201 36.4316 9.47829 36.4316 12.4589C36.4316 15.4395 38.8477 17.8558 41.828 17.8558Z" fill="url(#paint11_linear_3680_32505)"/>
<path d="M41.828 17.8016C44.8084 17.8016 47.2244 15.3853 47.2244 12.4047C47.2244 9.42409 44.8084 7.00781 41.828 7.00781C38.8477 7.00781 36.4316 9.42409 36.4316 12.4047C36.4316 15.3853 38.8477 17.8016 41.828 17.8016Z" fill="url(#paint12_linear_3680_32505)"/>
<path d="M41.828 17.7294C44.8084 17.7294 47.2244 15.3131 47.2244 12.3325C47.2244 9.35182 44.8084 6.93555 41.828 6.93555C38.8477 6.93555 36.4316 9.35182 36.4316 12.3325C36.4316 15.3131 38.8477 17.7294 41.828 17.7294Z" fill="url(#paint13_linear_3680_32505)"/>
<path d="M41.828 17.6756C44.8084 17.6756 47.2244 15.2594 47.2244 12.2787C47.2244 9.29811 44.8084 6.88184 41.828 6.88184C38.8477 6.88184 36.4316 9.29811 36.4316 12.2787C36.4316 15.2594 38.8477 17.6756 41.828 17.6756Z" fill="url(#paint14_linear_3680_32505)"/>
<path d="M41.828 17.6033C44.8084 17.6033 47.2244 15.187 47.2244 12.2064C47.2244 9.22572 44.8084 6.80945 41.828 6.80945C38.8477 6.80945 36.4316 9.22572 36.4316 12.2064C36.4316 15.187 38.8477 17.6033 41.828 17.6033Z" fill="url(#paint15_linear_3680_32505)"/>
<path d="M41.828 17.5493C44.8084 17.5493 47.2244 15.133 47.2244 12.1524C47.2244 9.17177 44.8084 6.75549 41.828 6.75549C38.8477 6.75549 36.4316 9.17177 36.4316 12.1524C36.4316 15.133 38.8477 17.5493 41.828 17.5493Z" fill="url(#paint16_linear_3680_32505)"/>
<path d="M41.828 17.4769C44.8084 17.4769 47.2244 15.0606 47.2244 12.08C47.2244 9.09938 44.8084 6.68311 41.828 6.68311C38.8477 6.68311 36.4316 9.09938 36.4316 12.08C36.4316 15.0606 38.8477 17.4769 41.828 17.4769Z" fill="url(#paint17_linear_3680_32505)"/>
<path d="M41.828 17.477C44.8084 17.477 47.2244 15.0608 47.2244 12.0801C47.2244 9.0995 44.8084 6.68323 41.828 6.68323C38.8477 6.68323 36.4316 9.0995 36.4316 12.0801C36.4316 15.0608 38.8477 17.477 41.828 17.477Z" fill="url(#paint18_radial_3680_32505)"/>
<path d="M41.829 15.9063C43.9424 15.9063 45.6556 14.1931 45.6556 12.0797C45.6556 9.96639 43.9424 8.25317 41.829 8.25317C39.7157 8.25317 38.0024 9.96639 38.0024 12.0797C38.0024 14.1931 39.7157 15.9063 41.829 15.9063Z" fill="url(#paint19_linear_3680_32505)"/>
<path d="M41.8295 8.72247C43.8691 8.72247 45.5117 10.3109 45.6199 12.3144C45.6199 12.2422 45.638 12.17 45.638 12.0797C45.638 9.96791 43.9233 8.25317 41.8114 8.25317C39.6996 8.25317 37.9849 9.96791 37.9849 12.0797C37.9849 12.1519 38.0029 12.2422 38.0029 12.3144C38.1473 10.3109 39.7898 8.72247 41.8295 8.72247Z" fill="url(#paint20_linear_3680_32505)"/>
<path d="M42.711 10.7983C42.7832 10.8885 42.8193 11.0149 42.8193 11.1232C42.8193 11.3578 42.6569 11.5383 42.4403 11.5383C42.3139 11.5383 42.2056 11.5022 41.989 11.3398C41.9168 11.2676 41.8627 11.2495 41.8266 11.2495C41.7544 11.2495 41.7002 11.3037 41.7002 11.3578C41.7002 11.43 41.7544 11.4842 41.8988 11.5203C42.2056 11.6286 42.2598 11.6466 42.332 11.6827C42.7291 11.8632 42.9276 12.152 42.9276 12.5672C42.9276 12.8379 42.8193 13.0906 42.6388 13.2892C42.5486 13.3794 42.4764 13.4155 42.3139 13.5058C42.2959 13.6502 42.2598 13.7224 42.2056 13.8126C42.1154 13.9209 41.971 13.9751 41.8266 13.9751C41.6822 13.9751 41.5378 13.9209 41.4475 13.8126C41.3934 13.7404 41.3753 13.6682 41.3392 13.5419C41.1046 13.4697 40.9963 13.3975 40.906 13.3072C40.7617 13.1809 40.6895 13.0004 40.6895 12.8379C40.6895 12.6033 40.888 12.4047 41.1226 12.4047C41.2309 12.4047 41.3573 12.4408 41.4656 12.5311L41.6461 12.6755C41.7002 12.7116 41.7544 12.7477 41.8085 12.7477C41.8807 12.7477 41.9349 12.6935 41.9349 12.6213C41.9349 12.513 41.8446 12.4589 41.5378 12.3686C41.2309 12.2784 41.0685 12.1701 40.9421 12.0076C40.8158 11.8452 40.7617 11.6647 40.7617 11.4481C40.7617 11.2134 40.8519 10.9788 40.9963 10.7983C41.0685 10.708 41.1587 10.6539 41.3573 10.5636C41.4475 10.3109 41.5919 10.2026 41.8266 10.2026C42.0432 10.2026 42.1695 10.2929 42.2778 10.5095C42.5125 10.6178 42.6208 10.69 42.711 10.7983Z" fill="url(#paint21_linear_3680_32505)"/>
<path d="M40.2157 47.5841C43.1961 47.5841 45.6121 45.1678 45.6121 42.1872C45.6121 39.2066 43.1961 36.7903 40.2157 36.7903C37.2354 36.7903 34.8193 39.2066 34.8193 42.1872C34.8193 45.1678 37.2354 47.5841 40.2157 47.5841Z" fill="url(#paint22_linear_3680_32505)"/>
<path d="M40.2157 47.5304C43.1961 47.5304 45.6121 45.1141 45.6121 42.1335C45.6121 39.1528 43.1961 36.7366 40.2157 36.7366C37.2354 36.7366 34.8193 39.1528 34.8193 42.1335C34.8193 45.1141 37.2354 47.5304 40.2157 47.5304Z" fill="url(#paint23_linear_3680_32505)"/>
<path d="M40.2157 47.4581C43.1961 47.4581 45.6121 45.0418 45.6121 42.0612C45.6121 39.0806 43.1961 36.6643 40.2157 36.6643C37.2354 36.6643 34.8193 39.0806 34.8193 42.0612C34.8193 45.0418 37.2354 47.4581 40.2157 47.4581Z" fill="url(#paint24_linear_3680_32505)"/>
<path d="M40.2157 47.404C43.1961 47.404 45.6121 44.9878 45.6121 42.0071C45.6121 39.0265 43.1961 36.6102 40.2157 36.6102C37.2354 36.6102 34.8193 39.0265 34.8193 42.0071C34.8193 44.9878 37.2354 47.404 40.2157 47.404Z" fill="url(#paint25_linear_3680_32505)"/>
<path d="M40.2157 47.3318C43.1961 47.3318 45.6121 44.9155 45.6121 41.9349C45.6121 38.9542 43.1961 36.538 40.2157 36.538C37.2354 36.538 34.8193 38.9542 34.8193 41.9349C34.8193 44.9155 37.2354 47.3318 40.2157 47.3318Z" fill="url(#paint26_linear_3680_32505)"/>
<path d="M40.2157 47.2594C43.1961 47.2594 45.6121 44.8431 45.6121 41.8625C45.6121 38.8819 43.1961 36.4656 40.2157 36.4656C37.2354 36.4656 34.8193 38.8819 34.8193 41.8625C34.8193 44.8431 37.2354 47.2594 40.2157 47.2594Z" fill="url(#paint27_linear_3680_32505)"/>
<path d="M40.2157 47.2052C43.1961 47.2052 45.6121 44.7889 45.6121 41.8083C45.6121 38.8277 43.1961 36.4114 40.2157 36.4114C37.2354 36.4114 34.8193 38.8277 34.8193 41.8083C34.8193 44.7889 37.2354 47.2052 40.2157 47.2052Z" fill="url(#paint28_linear_3680_32505)"/>
<path d="M40.2157 47.1329C43.1961 47.1329 45.6121 44.7166 45.6121 41.736C45.6121 38.7554 43.1961 36.3391 40.2157 36.3391C37.2354 36.3391 34.8193 38.7554 34.8193 41.736C34.8193 44.7166 37.2354 47.1329 40.2157 47.1329Z" fill="url(#paint29_linear_3680_32505)"/>
<path d="M40.2157 47.0792C43.1961 47.0792 45.6121 44.6629 45.6121 41.6823C45.6121 38.7017 43.1961 36.2854 40.2157 36.2854C37.2354 36.2854 34.8193 38.7017 34.8193 41.6823C34.8193 44.6629 37.2354 47.0792 40.2157 47.0792Z" fill="url(#paint30_linear_3680_32505)"/>
<path d="M40.2157 47.0069C43.1961 47.0069 45.6121 44.5907 45.6121 41.61C45.6121 38.6294 43.1961 36.2131 40.2157 36.2131C37.2354 36.2131 34.8193 38.6294 34.8193 41.61C34.8193 44.5907 37.2354 47.0069 40.2157 47.0069Z" fill="url(#paint31_linear_3680_32505)"/>
<path d="M40.2157 46.9529C43.1961 46.9529 45.6121 44.5366 45.6121 41.556C45.6121 38.5753 43.1961 36.1591 40.2157 36.1591C37.2354 36.1591 34.8193 38.5753 34.8193 41.556C34.8193 44.5366 37.2354 46.9529 40.2157 46.9529Z" fill="url(#paint32_linear_3680_32505)"/>
<path d="M40.2157 46.8805C43.1961 46.8805 45.6121 44.4642 45.6121 41.4836C45.6121 38.5029 43.1961 36.0867 40.2157 36.0867C37.2354 36.0867 34.8193 38.5029 34.8193 41.4836C34.8193 44.4642 37.2354 46.8805 40.2157 46.8805Z" fill="url(#paint33_linear_3680_32505)"/>
<path d="M40.2162 46.8806C43.1966 46.8806 45.6126 44.4643 45.6126 41.4837C45.6126 38.5031 43.1966 36.0868 40.2162 36.0868C37.2359 36.0868 34.8198 38.5031 34.8198 41.4837C34.8198 44.4643 37.2359 46.8806 40.2162 46.8806Z" fill="url(#paint34_radial_3680_32505)"/>
<path d="M40.2167 45.31C42.3301 45.31 44.0433 43.5968 44.0433 41.4834C44.0433 39.3701 42.3301 37.6569 40.2167 37.6569C38.1034 37.6569 36.3901 39.3701 36.3901 41.4834C36.3901 43.5968 38.1034 45.31 40.2167 45.31Z" fill="url(#paint35_linear_3680_32505)"/>
<path d="M40.2157 38.1262C42.2553 38.1262 43.8979 39.7145 44.0062 41.7181C44.0062 41.6459 44.0242 41.5737 44.0242 41.4834C44.0242 39.3716 42.3095 37.6569 40.1977 37.6569C38.0858 37.6569 36.3711 39.3716 36.3711 41.4834C36.3711 41.5556 36.3891 41.6459 36.3891 41.7181C36.5335 39.7145 38.1761 38.1262 40.2157 38.1262Z" fill="url(#paint36_linear_3680_32505)"/>
<path d="M41.1002 40.202C41.1724 40.2922 41.2085 40.4186 41.2085 40.5269C41.2085 40.7615 41.046 40.942 40.8294 40.942C40.7031 40.942 40.5948 40.9059 40.3782 40.7435C40.306 40.6713 40.2519 40.6532 40.2158 40.6532C40.1436 40.6532 40.0894 40.7074 40.0894 40.7615C40.0894 40.8337 40.1436 40.8879 40.288 40.924C40.5948 41.0323 40.649 41.0503 40.7211 41.0864C41.1182 41.2669 41.3168 41.5557 41.3168 41.9709C41.3168 42.2416 41.2085 42.4943 41.028 42.6928C40.9377 42.7831 40.8655 42.8192 40.7031 42.9094C40.685 43.0538 40.6489 43.126 40.5948 43.2163C40.5045 43.3246 40.3602 43.3787 40.2158 43.3787C40.0714 43.3787 39.927 43.3246 39.8367 43.2163C39.7826 43.1441 39.7645 43.0719 39.7284 42.9455C39.4938 42.8733 39.3855 42.8011 39.2952 42.7109C39.1508 42.5845 39.0786 42.4041 39.0786 42.2416C39.0786 42.007 39.2772 41.8084 39.5118 41.8084C39.6201 41.8084 39.7465 41.8445 39.8548 41.9348L40.0353 42.0792C40.0894 42.1153 40.1436 42.1514 40.1977 42.1514C40.2699 42.1514 40.3241 42.0972 40.3241 42.025C40.3241 41.9167 40.2338 41.8626 39.927 41.7723C39.6201 41.6821 39.4577 41.5738 39.3313 41.4113C39.205 41.2489 39.1508 41.0684 39.1508 40.8518C39.1508 40.6171 39.2411 40.3825 39.3855 40.202C39.4577 40.1117 39.5479 40.0576 39.7465 39.9673C39.8367 39.7146 39.9811 39.6063 40.2158 39.6063C40.4324 39.6063 40.5587 39.6966 40.667 39.9132C40.9016 40.0215 41.0099 40.0937 41.1002 40.202Z" fill="url(#paint37_linear_3680_32505)"/>
<path d="M9.14053 41.5697C12.1209 41.5697 14.5369 39.1534 14.5369 36.1728C14.5369 33.1922 12.1209 30.7759 9.14053 30.7759C6.16018 30.7759 3.74414 33.1922 3.74414 36.1728C3.74414 39.1534 6.16018 41.5697 9.14053 41.5697Z" fill="url(#paint38_linear_3680_32505)"/>
<path d="M9.14053 41.516C12.1209 41.516 14.5369 39.0997 14.5369 36.1191C14.5369 33.1384 12.1209 30.7222 9.14053 30.7222C6.16018 30.7222 3.74414 33.1384 3.74414 36.1191C3.74414 39.0997 6.16018 41.516 9.14053 41.516Z" fill="url(#paint39_linear_3680_32505)"/>
<path d="M9.14053 41.4437C12.1209 41.4437 14.5369 39.0274 14.5369 36.0468C14.5369 33.0662 12.1209 30.6499 9.14053 30.6499C6.16018 30.6499 3.74414 33.0662 3.74414 36.0468C3.74414 39.0274 6.16018 41.4437 9.14053 41.4437Z" fill="url(#paint40_linear_3680_32505)"/>
<path d="M9.14053 41.3896C12.1209 41.3896 14.5369 38.9734 14.5369 35.9927C14.5369 33.0121 12.1209 30.5958 9.14053 30.5958C6.16018 30.5958 3.74414 33.0121 3.74414 35.9927C3.74414 38.9734 6.16018 41.3896 9.14053 41.3896Z" fill="url(#paint41_linear_3680_32505)"/>
<path d="M9.14053 41.3172C12.1209 41.3172 14.5369 38.901 14.5369 35.9203C14.5369 32.9397 12.1209 30.5234 9.14053 30.5234C6.16018 30.5234 3.74414 32.9397 3.74414 35.9203C3.74414 38.901 6.16018 41.3172 9.14053 41.3172Z" fill="url(#paint42_linear_3680_32505)"/>
<path d="M9.14053 41.245C12.1209 41.245 14.5369 38.8287 14.5369 35.8481C14.5369 32.8674 12.1209 30.4512 9.14053 30.4512C6.16018 30.4512 3.74414 32.8674 3.74414 35.8481C3.74414 38.8287 6.16018 41.245 9.14053 41.245Z" fill="url(#paint43_linear_3680_32505)"/>
<path d="M9.14053 41.1909C12.1209 41.1909 14.5369 38.7746 14.5369 35.794C14.5369 32.8134 12.1209 30.3971 9.14053 30.3971C6.16018 30.3971 3.74414 32.8134 3.74414 35.794C3.74414 38.7746 6.16018 41.1909 9.14053 41.1909Z" fill="url(#paint44_linear_3680_32505)"/>
<path d="M9.14053 41.1185C12.1209 41.1185 14.5369 38.7022 14.5369 35.7216C14.5369 32.741 12.1209 30.3247 9.14053 30.3247C6.16018 30.3247 3.74414 32.741 3.74414 35.7216C3.74414 38.7022 6.16018 41.1185 9.14053 41.1185Z" fill="url(#paint45_linear_3680_32505)"/>
<path d="M9.14053 41.0649C12.1209 41.0649 14.5369 38.6487 14.5369 35.668C14.5369 32.6874 12.1209 30.2711 9.14053 30.2711C6.16018 30.2711 3.74414 32.6874 3.74414 35.668C3.74414 38.6487 6.16018 41.0649 9.14053 41.0649Z" fill="url(#paint46_linear_3680_32505)"/>
<path d="M9.14053 40.9924C12.1209 40.9924 14.5369 38.5761 14.5369 35.5955C14.5369 32.6149 12.1209 30.1986 9.14053 30.1986C6.16018 30.1986 3.74414 32.6149 3.74414 35.5955C3.74414 38.5761 6.16018 40.9924 9.14053 40.9924Z" fill="url(#paint47_linear_3680_32505)"/>
<path d="M9.14053 40.9385C12.1209 40.9385 14.5369 38.5222 14.5369 35.5416C14.5369 32.5609 12.1209 30.1447 9.14053 30.1447C6.16018 30.1447 3.74414 32.5609 3.74414 35.5416C3.74414 38.5222 6.16018 40.9385 9.14053 40.9385Z" fill="url(#paint48_linear_3680_32505)"/>
<path d="M9.14053 40.8661C12.1209 40.8661 14.5369 38.4498 14.5369 35.4692C14.5369 32.4885 12.1209 30.0723 9.14053 30.0723C6.16018 30.0723 3.74414 32.4885 3.74414 35.4692C3.74414 38.4498 6.16018 40.8661 9.14053 40.8661Z" fill="url(#paint49_linear_3680_32505)"/>
<path d="M9.14053 40.8662C12.1209 40.8662 14.5369 38.4499 14.5369 35.4693C14.5369 32.4887 12.1209 30.0724 9.14053 30.0724C6.16018 30.0724 3.74414 32.4887 3.74414 35.4693C3.74414 38.4499 6.16018 40.8662 9.14053 40.8662Z" fill="url(#paint50_radial_3680_32505)"/>
<path d="M9.14102 39.2956C11.2544 39.2956 12.9676 37.5824 12.9676 35.469C12.9676 33.3557 11.2544 31.6425 9.14102 31.6425C7.02767 31.6425 5.31445 33.3557 5.31445 35.469C5.31445 37.5824 7.02767 39.2956 9.14102 39.2956Z" fill="url(#paint51_linear_3680_32505)"/>
<path d="M9.14003 32.1118C11.1797 32.1118 12.8222 33.7001 12.9305 35.7037C12.9305 35.6315 12.9485 35.5593 12.9485 35.469C12.9485 33.3572 11.2338 31.6425 9.12198 31.6425C7.01014 31.6425 5.29541 33.3572 5.29541 35.469C5.29541 35.5412 5.31346 35.6315 5.31346 35.7037C5.45786 33.7001 7.10039 32.1118 9.14003 32.1118Z" fill="url(#paint52_linear_3680_32505)"/>
<path d="M10.0245 34.1874C10.0967 34.2777 10.1328 34.404 10.1328 34.5123C10.1328 34.747 9.97036 34.9275 9.75376 34.9275C9.62742 34.9275 9.51912 34.8914 9.30252 34.7289C9.23032 34.6567 9.17617 34.6387 9.14007 34.6387C9.06787 34.6387 9.01372 34.6928 9.01372 34.747C9.01372 34.8192 9.06787 34.8733 9.21227 34.9094C9.51912 35.0177 9.57327 35.0358 9.64547 35.0719C10.0426 35.2524 10.2411 35.5412 10.2411 35.9563C10.2411 36.2271 10.1328 36.4798 9.95231 36.6783C9.86206 36.7686 9.78986 36.8047 9.62742 36.8949C9.60937 37.0393 9.57326 37.1115 9.51911 37.2018C9.42886 37.3101 9.28447 37.3642 9.14007 37.3642C8.99567 37.3642 8.85127 37.3101 8.76102 37.2018C8.70687 37.1296 8.68882 37.0574 8.65272 36.931C8.41807 36.8588 8.30978 36.7866 8.21953 36.6964C8.07513 36.57 8.00293 36.3895 8.00293 36.2271C8.00293 35.9924 8.20148 35.7939 8.43613 35.7939C8.54442 35.7939 8.67077 35.83 8.77907 35.9202L8.95957 36.0646C9.01372 36.1007 9.06787 36.1368 9.12202 36.1368C9.19422 36.1368 9.24837 36.0827 9.24837 36.0105C9.24837 35.9022 9.15812 35.848 8.85127 35.7578C8.54442 35.6675 8.38198 35.5592 8.25563 35.3968C8.12928 35.2343 8.07513 35.0538 8.07513 34.8372C8.07513 34.6026 8.16538 34.3679 8.30978 34.1874C8.38198 34.0972 8.47222 34.043 8.67077 33.9528C8.76102 33.7001 8.90542 33.5918 9.14007 33.5918C9.35667 33.5918 9.48302 33.682 9.59132 33.8986C9.82596 34.0069 9.93426 34.0791 10.0245 34.1874Z" fill="url(#paint53_linear_3680_32505)"/>
<path d="M26.9559 43.7721C29.5883 43.7721 31.7223 41.1546 31.7223 37.9257C31.7223 34.6968 29.5883 32.0792 26.9559 32.0792C24.3235 32.0792 22.1895 34.6968 22.1895 37.9257C22.1895 41.1546 24.3235 43.7721 26.9559 43.7721Z" fill="url(#paint54_radial_3680_32505)"/>
<path d="M26.9559 43.7983C29.5883 43.7983 31.7223 41.1808 31.7223 37.9519C31.7223 34.723 29.5883 32.1055 26.9559 32.1055C24.3235 32.1055 22.1895 34.723 22.1895 37.9519C22.1895 41.1808 24.3235 43.7983 26.9559 43.7983Z" fill="url(#paint55_linear_3680_32505)" fill-opacity="0.8"/>
</g>
<defs>
<linearGradient id="paint0_linear_3680_32505" x1="5.40648" y1="5.40645" x2="52.0646" y2="52.0646" gradientUnits="userSpaceOnUse">
<stop stop-color="#A0F2B7"/>
<stop offset="0.058" stop-color="#99EFAF"/>
<stop offset="0.2248" stop-color="#8AE89D"/>
<stop offset="0.3457" stop-color="#85E597"/>
<stop offset="0.3602" stop-color="#83E395"/>
<stop offset="0.535" stop-color="#6ED486"/>
<stop offset="0.6515" stop-color="#67CE80"/>
<stop offset="1" stop-color="#5FB772"/>
</linearGradient>
<linearGradient id="paint1_linear_3680_32505" x1="26.8982" y1="-5.98461" x2="26.8982" y2="63.0587" gradientUnits="userSpaceOnUse">
<stop stop-color="white"/>
<stop offset="0.2428" stop-color="#FDFDFD"/>
<stop offset="0.3863" stop-color="#F4F8F5"/>
<stop offset="0.5041" stop-color="#E6EEE8"/>
<stop offset="0.6079" stop-color="#D2E0D5"/>
<stop offset="0.7025" stop-color="#B8CEBC"/>
<stop offset="0.7905" stop-color="#98B89E"/>
<stop offset="0.8733" stop-color="#719E7B"/>
<stop offset="0.9499" stop-color="#468152"/>
<stop offset="1" stop-color="#266B34"/>
</linearGradient>
<linearGradient id="paint2_linear_3680_32505" x1="19.4749" y1="9.56904" x2="31.7917" y2="34.5044" gradientUnits="userSpaceOnUse">
<stop stop-color="white"/>
<stop offset="0.0483" stop-color="#E2E3E2"/>
<stop offset="0.1362" stop-color="#B4B6B4"/>
<stop offset="0.2297" stop-color="#8A8E8B"/>
<stop offset="0.3273" stop-color="#686C68"/>
<stop offset="0.4303" stop-color="#4B514C"/>
<stop offset="0.5404" stop-color="#353C36"/>
<stop offset="0.661" stop-color="#262D27"/>
<stop offset="0.8" stop-color="#1D241E"/>
<stop offset="1" stop-color="#1A211B"/>
</linearGradient>
<linearGradient id="paint3_linear_3680_32505" x1="7.94573" y1="20.592" x2="26.3403" y2="27.6359" gradientUnits="userSpaceOnUse">
<stop stop-color="white"/>
<stop offset="0.0483" stop-color="#E2E3E2"/>
<stop offset="0.1362" stop-color="#B4B6B4"/>
<stop offset="0.2297" stop-color="#8A8E8B"/>
<stop offset="0.3273" stop-color="#686C68"/>
<stop offset="0.4303" stop-color="#4B514C"/>
<stop offset="0.5404" stop-color="#353C36"/>
<stop offset="0.661" stop-color="#262D27"/>
<stop offset="0.8" stop-color="#1D241E"/>
<stop offset="1" stop-color="#1A211B"/>
</linearGradient>
<linearGradient id="paint4_linear_3680_32505" x1="18.7157" y1="20.8028" x2="20.5874" y2="31.2478" gradientUnits="userSpaceOnUse">
<stop stop-color="white"/>
<stop offset="0.0483" stop-color="#E2E3E2" stop-opacity="0.9517"/>
<stop offset="0.1362" stop-color="#B4B6B4" stop-opacity="0.8638"/>
<stop offset="0.2297" stop-color="#8A8E8B" stop-opacity="0.7703"/>
<stop offset="0.3273" stop-color="#686C68" stop-opacity="0.6727"/>
<stop offset="0.4303" stop-color="#4B514C" stop-opacity="0.5697"/>
<stop offset="0.5404" stop-color="#353C36" stop-opacity="0.4596"/>
<stop offset="0.661" stop-color="#262D27" stop-opacity="0.339"/>
<stop offset="0.8" stop-color="#1D241E" stop-opacity="0.2"/>
<stop offset="1" stop-color="#1A211B" stop-opacity="0"/>
</linearGradient>
<linearGradient id="paint5_linear_3680_32505" x1="32.3143" y1="19.2957" x2="36.6916" y2="31.6426" gradientUnits="userSpaceOnUse">
<stop stop-color="white"/>
<stop offset="0.0483" stop-color="#E2E3E2" stop-opacity="0.9517"/>
<stop offset="0.1362" stop-color="#B4B6B4" stop-opacity="0.8638"/>
<stop offset="0.2297" stop-color="#8A8E8B" stop-opacity="0.7703"/>
<stop offset="0.3273" stop-color="#686C68" stop-opacity="0.6727"/>
<stop offset="0.4303" stop-color="#4B514C" stop-opacity="0.5697"/>
<stop offset="0.5404" stop-color="#353C36" stop-opacity="0.4596"/>
<stop offset="0.661" stop-color="#262D27" stop-opacity="0.339"/>
<stop offset="0.8" stop-color="#1D241E" stop-opacity="0.2"/>
<stop offset="1" stop-color="#1A211B" stop-opacity="0"/>
</linearGradient>
<linearGradient id="paint6_linear_3680_32505" x1="47.3152" y1="12.7865" x2="34.1727" y2="12.7865" gradientUnits="userSpaceOnUse">
<stop stop-color="#DA7711"/>
<stop offset="1" stop-color="#FFC749"/>
</linearGradient>
<linearGradient id="paint7_linear_3680_32505" x1="47.3152" y1="12.723" x2="34.1727" y2="12.723" gradientUnits="userSpaceOnUse">
<stop stop-color="#DA7711"/>
<stop offset="1" stop-color="#FFC749"/>
</linearGradient>
<linearGradient id="paint8_linear_3680_32505" x1="47.3152" y1="12.6589" x2="34.1727" y2="12.6589" gradientUnits="userSpaceOnUse">
<stop stop-color="#DA7711"/>
<stop offset="1" stop-color="#FFC749"/>
</linearGradient>
<linearGradient id="paint9_linear_3680_32505" x1="47.3152" y1="12.5951" x2="34.1727" y2="12.5951" gradientUnits="userSpaceOnUse">
<stop stop-color="#DA7711"/>
<stop offset="1" stop-color="#FFC749"/>
</linearGradient>
<linearGradient id="paint10_linear_3680_32505" x1="47.3152" y1="12.531" x2="34.1727" y2="12.531" gradientUnits="userSpaceOnUse">
<stop stop-color="#DA7711"/>
<stop offset="1" stop-color="#FFC749"/>
</linearGradient>
<linearGradient id="paint11_linear_3680_32505" x1="47.3152" y1="12.4669" x2="34.1727" y2="12.4669" gradientUnits="userSpaceOnUse">
<stop stop-color="#DA7711"/>
<stop offset="1" stop-color="#FFC749"/>
</linearGradient>
<linearGradient id="paint12_linear_3680_32505" x1="47.3152" y1="12.4029" x2="34.1727" y2="12.4029" gradientUnits="userSpaceOnUse">
<stop stop-color="#DA7711"/>
<stop offset="1" stop-color="#FFC749"/>
</linearGradient>
<linearGradient id="paint13_linear_3680_32505" x1="47.3152" y1="12.3389" x2="34.1727" y2="12.3389" gradientUnits="userSpaceOnUse">
<stop stop-color="#DA7711"/>
<stop offset="1" stop-color="#FFC749"/>
</linearGradient>
<linearGradient id="paint14_linear_3680_32505" x1="47.3152" y1="12.2755" x2="34.1727" y2="12.2755" gradientUnits="userSpaceOnUse">
<stop stop-color="#DA7711"/>
<stop offset="1" stop-color="#FFC749"/>
</linearGradient>
<linearGradient id="paint15_linear_3680_32505" x1="47.3152" y1="12.2112" x2="34.1727" y2="12.2112" gradientUnits="userSpaceOnUse">
<stop stop-color="#DA7711"/>
<stop offset="1" stop-color="#FFC749"/>
</linearGradient>
<linearGradient id="paint16_linear_3680_32505" x1="47.3152" y1="12.1475" x2="34.1727" y2="12.1475" gradientUnits="userSpaceOnUse">
<stop stop-color="#DA7711"/>
<stop offset="1" stop-color="#FFC749"/>
</linearGradient>
<linearGradient id="paint17_linear_3680_32505" x1="47.3152" y1="12.0834" x2="34.1727" y2="12.0834" gradientUnits="userSpaceOnUse">
<stop stop-color="#DA7711"/>
<stop offset="1" stop-color="#FFC749"/>
</linearGradient>
<radialGradient id="paint18_radial_3680_32505" cx="0" cy="0" r="1" gradientUnits="userSpaceOnUse" gradientTransform="translate(41.8223 12.0836) rotate(90) scale(5.40196 5.40144)">
<stop stop-color="white"/>
<stop offset="0.416667" stop-color="#FFFAF0"/>
<stop offset="0.65625" stop-color="#FFEFCA"/>
<stop offset="0.791667" stop-color="#FFDC8C"/>
<stop offset="1" stop-color="#FFC749"/>
</radialGradient>
<linearGradient id="paint19_linear_3680_32505" x1="41.8232" y1="8.26057" x2="41.8232" y2="15.9058" gradientUnits="userSpaceOnUse">
<stop stop-color="#FFCF5B"/>
<stop offset="1" stop-color="#FFC749"/>
</linearGradient>
<linearGradient id="paint20_linear_3680_32505" x1="48.1051" y1="9.15899" x2="28.7769" y2="9.15899" gradientUnits="userSpaceOnUse">
<stop stop-color="#E79324"/>
<stop offset="1" stop-color="#E79324" stop-opacity="0"/>
</linearGradient>
<linearGradient id="paint21_linear_3680_32505" x1="42.4653" y1="13.991" x2="40.8546" y2="6.74297" gradientUnits="userSpaceOnUse">
<stop stop-color="#EA9929"/>
<stop offset="1" stop-color="#EA9929" stop-opacity="0"/>
</linearGradient>
<linearGradient id="paint22_linear_3680_32505" x1="45.7029" y1="42.1901" x2="32.5604" y2="42.1901" gradientUnits="userSpaceOnUse">
<stop stop-color="#DA7711"/>
<stop offset="1" stop-color="#FFC749"/>
</linearGradient>
<linearGradient id="paint23_linear_3680_32505" x1="45.7029" y1="42.1264" x2="32.5604" y2="42.1264" gradientUnits="userSpaceOnUse">
<stop stop-color="#DA7711"/>
<stop offset="1" stop-color="#FFC749"/>
</linearGradient>
<linearGradient id="paint24_linear_3680_32505" x1="45.7029" y1="42.0625" x2="32.5604" y2="42.0625" gradientUnits="userSpaceOnUse">
<stop stop-color="#DA7711"/>
<stop offset="1" stop-color="#FFC749"/>
</linearGradient>
<linearGradient id="paint25_linear_3680_32505" x1="45.7029" y1="41.9987" x2="32.5604" y2="41.9987" gradientUnits="userSpaceOnUse">
<stop stop-color="#DA7711"/>
<stop offset="1" stop-color="#FFC749"/>
</linearGradient>
<linearGradient id="paint26_linear_3680_32505" x1="45.7029" y1="41.9347" x2="32.5604" y2="41.9347" gradientUnits="userSpaceOnUse">
<stop stop-color="#DA7711"/>
<stop offset="1" stop-color="#FFC749"/>
</linearGradient>
<linearGradient id="paint27_linear_3680_32505" x1="45.7029" y1="41.8704" x2="32.5604" y2="41.8704" gradientUnits="userSpaceOnUse">
<stop stop-color="#DA7711"/>
<stop offset="1" stop-color="#FFC749"/>
</linearGradient>
<linearGradient id="paint28_linear_3680_32505" x1="45.7029" y1="41.8065" x2="32.5604" y2="41.8065" gradientUnits="userSpaceOnUse">
<stop stop-color="#DA7711"/>
<stop offset="1" stop-color="#FFC749"/>
</linearGradient>
<linearGradient id="paint29_linear_3680_32505" x1="45.7029" y1="41.7425" x2="32.5604" y2="41.7425" gradientUnits="userSpaceOnUse">
<stop stop-color="#DA7711"/>
<stop offset="1" stop-color="#FFC749"/>
</linearGradient>
<linearGradient id="paint30_linear_3680_32505" x1="45.7029" y1="41.6791" x2="32.5604" y2="41.6791" gradientUnits="userSpaceOnUse">
<stop stop-color="#DA7711"/>
<stop offset="1" stop-color="#FFC749"/>
</linearGradient>
<linearGradient id="paint31_linear_3680_32505" x1="45.7029" y1="41.6149" x2="32.5604" y2="41.6149" gradientUnits="userSpaceOnUse">
<stop stop-color="#DA7711"/>
<stop offset="1" stop-color="#FFC749"/>
</linearGradient>
<linearGradient id="paint32_linear_3680_32505" x1="45.7029" y1="41.5511" x2="32.5604" y2="41.5511" gradientUnits="userSpaceOnUse">
<stop stop-color="#DA7711"/>
<stop offset="1" stop-color="#FFC749"/>
</linearGradient>
<linearGradient id="paint33_linear_3680_32505" x1="45.7029" y1="41.487" x2="32.5604" y2="41.487" gradientUnits="userSpaceOnUse">
<stop stop-color="#DA7711"/>
<stop offset="1" stop-color="#FFC749"/>
</linearGradient>
<radialGradient id="paint34_radial_3680_32505" cx="0" cy="0" r="1" gradientUnits="userSpaceOnUse" gradientTransform="translate(40.2104 41.4871) rotate(90) scale(5.40196 5.40144)">
<stop stop-color="white"/>
<stop offset="0.416667" stop-color="#FFFAF0"/>
<stop offset="0.65625" stop-color="#FFEFCA"/>
<stop offset="0.791667" stop-color="#FFDC8C"/>
<stop offset="1" stop-color="#FFC749"/>
</radialGradient>
<linearGradient id="paint35_linear_3680_32505" x1="40.2109" y1="37.6643" x2="40.2109" y2="45.3095" gradientUnits="userSpaceOnUse">
<stop stop-color="#FFCF5B"/>
<stop offset="1" stop-color="#FFC749"/>
</linearGradient>
<linearGradient id="paint36_linear_3680_32505" x1="46.4913" y1="38.5627" x2="27.1631" y2="38.5627" gradientUnits="userSpaceOnUse">
<stop stop-color="#E79324"/>
<stop offset="1" stop-color="#E79324" stop-opacity="0"/>
</linearGradient>
<linearGradient id="paint37_linear_3680_32505" x1="40.8545" y1="43.3947" x2="39.2438" y2="36.1467" gradientUnits="userSpaceOnUse">
<stop stop-color="#EA9929"/>
<stop offset="1" stop-color="#EA9929" stop-opacity="0"/>
</linearGradient>
<linearGradient id="paint38_linear_3680_32505" x1="14.6277" y1="36.1757" x2="1.48524" y2="36.1757" gradientUnits="userSpaceOnUse">
<stop stop-color="#DA7711"/>
<stop offset="1" stop-color="#FFC749"/>
</linearGradient>
<linearGradient id="paint39_linear_3680_32505" x1="14.6277" y1="36.112" x2="1.48524" y2="36.112" gradientUnits="userSpaceOnUse">
<stop stop-color="#DA7711"/>
<stop offset="1" stop-color="#FFC749"/>
</linearGradient>
<linearGradient id="paint40_linear_3680_32505" x1="14.6277" y1="36.0481" x2="1.48524" y2="36.0481" gradientUnits="userSpaceOnUse">
<stop stop-color="#DA7711"/>
<stop offset="1" stop-color="#FFC749"/>
</linearGradient>
<linearGradient id="paint41_linear_3680_32505" x1="14.6277" y1="35.9842" x2="1.48524" y2="35.9842" gradientUnits="userSpaceOnUse">
<stop stop-color="#DA7711"/>
<stop offset="1" stop-color="#FFC749"/>
</linearGradient>
<linearGradient id="paint42_linear_3680_32505" x1="14.6277" y1="35.9202" x2="1.48524" y2="35.9202" gradientUnits="userSpaceOnUse">
<stop stop-color="#DA7711"/>
<stop offset="1" stop-color="#FFC749"/>
</linearGradient>
<linearGradient id="paint43_linear_3680_32505" x1="14.6277" y1="35.856" x2="1.48524" y2="35.856" gradientUnits="userSpaceOnUse">
<stop stop-color="#DA7711"/>
<stop offset="1" stop-color="#FFC749"/>
</linearGradient>
<linearGradient id="paint44_linear_3680_32505" x1="14.6277" y1="35.7922" x2="1.48524" y2="35.7922" gradientUnits="userSpaceOnUse">
<stop stop-color="#DA7711"/>
<stop offset="1" stop-color="#FFC749"/>
</linearGradient>
<linearGradient id="paint45_linear_3680_32505" x1="14.6277" y1="35.7281" x2="1.48524" y2="35.7281" gradientUnits="userSpaceOnUse">
<stop stop-color="#DA7711"/>
<stop offset="1" stop-color="#FFC749"/>
</linearGradient>
<linearGradient id="paint46_linear_3680_32505" x1="14.6277" y1="35.6648" x2="1.48524" y2="35.6648" gradientUnits="userSpaceOnUse">
<stop stop-color="#DA7711"/>
<stop offset="1" stop-color="#FFC749"/>
</linearGradient>
<linearGradient id="paint47_linear_3680_32505" x1="14.6277" y1="35.6004" x2="1.48524" y2="35.6004" gradientUnits="userSpaceOnUse">
<stop stop-color="#DA7711"/>
<stop offset="1" stop-color="#FFC749"/>
</linearGradient>
<linearGradient id="paint48_linear_3680_32505" x1="14.6277" y1="35.5367" x2="1.48524" y2="35.5367" gradientUnits="userSpaceOnUse">
<stop stop-color="#DA7711"/>
<stop offset="1" stop-color="#FFC749"/>
</linearGradient>
<linearGradient id="paint49_linear_3680_32505" x1="14.6277" y1="35.4726" x2="1.48524" y2="35.4726" gradientUnits="userSpaceOnUse">
<stop stop-color="#DA7711"/>
<stop offset="1" stop-color="#FFC749"/>
</linearGradient>
<radialGradient id="paint50_radial_3680_32505" cx="0" cy="0" r="1" gradientUnits="userSpaceOnUse" gradientTransform="translate(9.13475 35.4727) rotate(90) scale(5.40196 5.40144)">
<stop stop-color="white"/>
<stop offset="0.416667" stop-color="#FFFAF0"/>
<stop offset="0.65625" stop-color="#FFEFCA"/>
<stop offset="0.791667" stop-color="#FFDC8C"/>
<stop offset="1" stop-color="#FFC749"/>
</radialGradient>
<linearGradient id="paint51_linear_3680_32505" x1="9.13525" y1="31.6499" x2="9.13525" y2="39.2951" gradientUnits="userSpaceOnUse">
<stop stop-color="#FFCF5B"/>
<stop offset="1" stop-color="#FFC749"/>
</linearGradient>
<linearGradient id="paint52_linear_3680_32505" x1="15.4157" y1="32.5483" x2="-3.91254" y2="32.5483" gradientUnits="userSpaceOnUse">
<stop stop-color="#E79324"/>
<stop offset="1" stop-color="#E79324" stop-opacity="0"/>
</linearGradient>
<linearGradient id="paint53_linear_3680_32505" x1="9.77877" y1="37.3802" x2="8.16809" y2="30.1321" gradientUnits="userSpaceOnUse">
<stop stop-color="#EA9929"/>
<stop offset="1" stop-color="#EA9929" stop-opacity="0"/>
</linearGradient>
<radialGradient id="paint54_radial_3680_32505" cx="0" cy="0" r="1" gradientUnits="userSpaceOnUse" gradientTransform="translate(26.9559 37.9257) rotate(89.6124) scale(6.71807 5.47706)">
<stop stop-color="#1F4925"/>
<stop offset="1" stop-color="#143119"/>
</radialGradient>
<linearGradient id="paint55_linear_3680_32505" x1="26.9548" y1="32.3256" x2="26.9548" y2="45.0991" gradientUnits="userSpaceOnUse">
<stop stop-color="#143018"/>
<stop offset="1" stop-color="#468751"/>
</linearGradient>
<clipPath id="clip0_3680_32505">
<rect width="54" height="54" fill="white"/>
</clipPath>
</defs>
</svg>
