<svg width="34" height="34" viewBox="0 0 34 34" fill="none" xmlns="http://www.w3.org/2000/svg">
<circle cx="17" cy="17" r="17" fill="#E5FAE9"/>
<g clip-path="url(#clip0_30_33569)">
<path d="M28.5911 19.1039C30.2901 24.9043 24.9043 30.2901 19.1039 28.5911C17.7008 28.18 16.2085 28.18 14.8053 28.5911C9.00491 30.2901 3.61917 24.9043 5.31818 19.1039C5.72927 17.7008 5.72927 16.2085 5.31818 14.8053C3.61917 9.00491 9.00491 3.61917 14.8053 5.31818C16.2085 5.72927 17.7008 5.72927 19.1039 5.31818C24.9043 3.61917 30.2901 9.00491 28.5911 14.8053C28.18 16.2097 28.18 17.7008 28.5911 19.1039Z" fill="url(#paint0_linear_30_33569)"/>
<path opacity="0.8" d="M21.29 5.00085V5.68402C23.4453 5.68402 25.5209 6.7367 26.8409 8.49986C28.1597 10.2595 28.5578 12.4884 27.9352 14.6139C27.4861 16.1454 27.4861 17.7648 27.9352 19.2963C28.5578 21.4218 28.1586 23.6508 26.8409 25.4104C25.5198 27.1735 23.4453 28.2262 21.29 28.2262C20.6259 28.2262 19.9546 28.1288 19.2964 27.9351C18.536 27.7117 17.7483 27.5989 16.9558 27.5989C16.1633 27.5989 15.3756 27.7117 14.6152 27.9351C13.957 28.1276 13.2857 28.2262 12.6215 28.2262C10.4663 28.2262 8.39064 27.1735 7.07064 25.4104C5.75183 23.6508 5.35381 21.4218 5.97638 19.2963C6.42549 17.7648 6.42549 16.1454 5.97638 14.6139C5.35381 12.4884 5.75302 10.2595 7.07064 8.49986C8.39183 6.7367 10.4663 5.68402 12.6215 5.68402C13.2857 5.68402 13.957 5.78145 14.6152 5.97511C15.3756 6.19848 16.1633 6.31135 16.9558 6.31135C17.7483 6.31135 18.536 6.19848 19.2964 5.97511C19.9546 5.78264 20.6259 5.68402 21.29 5.68402V5.00085ZM21.29 5.00085C20.5772 5.00085 19.8441 5.10184 19.1039 5.31927C18.4017 5.52481 17.6782 5.62699 16.9546 5.62699C16.231 5.62699 15.5075 5.52481 14.8065 5.31927C14.0663 5.10184 13.3332 5.00085 12.6203 5.00085C7.74787 5.00085 3.83658 9.7462 5.31935 14.8064C5.73044 16.2096 5.73044 17.7018 5.31935 19.105C3.83658 24.1652 7.74668 28.9106 12.6203 28.9106C13.3332 28.9106 14.0663 28.8096 14.8065 28.5921C15.5087 28.3866 16.2322 28.2844 16.9558 28.2844C17.6794 28.2844 18.4029 28.3866 19.1051 28.5921C19.8453 28.8084 20.5784 28.9106 21.2912 28.9106C26.1637 28.9106 30.075 24.1652 28.5922 19.105C28.1811 17.7018 28.1811 16.2096 28.5922 14.8064C30.0738 9.74501 26.1637 5.00085 21.29 5.00085Z" fill="url(#paint1_linear_30_33569)"/>
<path d="M20.6161 16.0944C21.2126 16.0944 21.6961 15.6109 21.6961 15.0144C21.6961 14.418 21.2126 13.9344 20.6161 13.9344C20.0197 13.9344 19.5361 14.418 19.5361 15.0144C19.5361 15.6109 20.0197 16.0944 20.6161 16.0944Z" fill="#1A211B"/>
<path d="M13.2939 16.0944C13.8903 16.0944 14.3739 15.6109 14.3739 15.0144C14.3739 14.418 13.8903 13.9344 13.2939 13.9344C12.6974 13.9344 12.2139 14.418 12.2139 15.0144C12.2139 15.6109 12.6974 16.0944 13.2939 16.0944Z" fill="#1A211B"/>
<path opacity="0.5" d="M20.2516 14.9217C20.4169 14.9217 20.551 14.7876 20.551 14.6223C20.551 14.4569 20.4169 14.3229 20.2516 14.3229C20.0862 14.3229 19.9521 14.4569 19.9521 14.6223C19.9521 14.7876 20.0862 14.9217 20.2516 14.9217Z" fill="#5FB772"/>
<path opacity="0.5" d="M12.9332 14.9217C13.0986 14.9217 13.2326 14.7876 13.2326 14.6223C13.2326 14.4569 13.0986 14.3229 12.9332 14.3229C12.7678 14.3229 12.6338 14.4569 12.6338 14.6223C12.6338 14.7876 12.7678 14.9217 12.9332 14.9217Z" fill="#5FB772"/>
<path d="M23.5372 15.2187C23.5276 15.2151 23.5181 15.2128 23.5086 15.2104C22.0983 14.9193 20.6191 14.8409 19.1875 15.0072C18.61 15.0738 18.0326 15.2389 17.4884 15.4397C17.4671 15.448 17.4457 15.4516 17.4231 15.4516H16.9764H16.9348H16.488C16.4655 15.4516 16.4429 15.448 16.4227 15.4397C15.8774 15.2389 15.3011 15.0738 14.7237 15.0072C13.292 14.8421 11.814 14.9193 10.4025 15.2104C10.393 15.2128 10.3835 15.2151 10.374 15.2187C10.2979 15.2472 10.248 15.3197 10.248 15.4005V15.9708C10.248 16.0587 10.3075 16.1359 10.3918 16.1585L10.5878 16.2108C10.6698 16.2322 10.7269 16.3047 10.7316 16.389C10.7376 16.49 10.7447 16.5898 10.7542 16.6908C10.8409 17.5961 11.0441 18.5645 11.7878 19.1645C11.8877 19.2452 11.9958 19.3177 12.1086 19.3795C12.7075 19.711 13.4358 19.7894 14.1035 19.6635C14.4659 19.5946 14.8069 19.4544 15.1122 19.2476C15.7728 18.7997 16.2112 18.0856 16.4132 17.3229C16.4453 17.2041 16.4572 17.0722 16.513 16.9617C16.576 16.8381 16.6734 16.7573 16.7827 16.7146C16.892 16.6718 17.0168 16.6718 17.1261 16.7146C17.2354 16.7573 17.3328 16.8381 17.3958 16.9617C17.4528 17.0722 17.4647 17.2041 17.4956 17.3229C17.6976 18.0856 18.1372 18.7997 18.7966 19.2476C19.1019 19.4544 19.4429 19.5946 19.8053 19.6635C20.473 19.7894 21.2013 19.711 21.8001 19.3795C21.913 19.3177 22.0199 19.2452 22.1209 19.1645C22.8647 18.5645 23.0678 17.5961 23.1546 16.6908C23.1641 16.591 23.1712 16.49 23.1772 16.389C23.1819 16.3047 23.2389 16.2322 23.3209 16.2108L23.517 16.1585C23.6013 16.1359 23.6607 16.0587 23.6607 15.9708V15.4005C23.6631 15.3197 23.6132 15.246 23.5372 15.2187Z" fill="url(#paint2_linear_30_33569)"/>
<path d="M23.5189 16.1585L23.3229 16.2108C23.2409 16.2322 23.1839 16.3047 23.1791 16.389C23.1732 16.49 23.166 16.5898 23.1565 16.6908C23.0698 17.5962 22.8666 18.5645 22.1229 19.1645C22.0231 19.2453 21.915 19.3178 21.8021 19.3795C21.2033 19.711 20.475 19.7894 19.8072 19.6635C19.4449 19.5946 19.1039 19.4544 18.7985 19.2477C18.1379 18.7997 17.6995 18.0857 17.4975 17.3229C17.4654 17.2041 17.4536 17.0722 17.3977 16.9617C17.3348 16.8382 17.2373 16.7574 17.128 16.7146C17.0187 16.6718 16.894 16.6718 16.7847 16.7146C16.6753 16.7574 16.5779 16.8382 16.515 16.9617C16.4579 17.0722 16.446 17.2041 16.4151 17.3229C16.2132 18.0857 15.7736 18.7997 15.1142 19.2477C14.8088 19.4544 14.4678 19.5946 14.1054 19.6635C13.4377 19.7894 12.7094 19.711 12.1106 19.3795C11.9977 19.3178 11.8908 19.2453 11.7898 19.1645C11.046 18.5645 10.8429 17.5962 10.7561 16.6908C10.7466 16.591 10.7395 16.49 10.7336 16.389C10.7288 16.3047 10.6718 16.2322 10.5898 16.2108L10.3938 16.1585C10.3094 16.136 10.25 16.0587 10.25 15.9708V16.0635C10.25 16.1514 10.3094 16.2286 10.3938 16.2512L10.5898 16.3035C10.6718 16.3249 10.7288 16.3974 10.7336 16.4817C10.7395 16.5827 10.7466 16.6825 10.7561 16.7835C10.8429 17.6888 11.046 18.6572 11.7898 19.2572C11.8896 19.338 11.9977 19.4104 12.1106 19.4722C12.7094 19.8025 13.4377 19.8821 14.1054 19.7562C14.4678 19.6873 14.8088 19.5471 15.1142 19.3403C15.7748 18.8924 16.2132 18.1783 16.4151 17.4156C16.4472 17.2968 16.4591 17.1649 16.515 17.0544C16.5779 16.9308 16.6753 16.85 16.7847 16.8073C16.894 16.7645 17.0187 16.7645 17.128 16.8073C17.2373 16.85 17.3348 16.9308 17.3977 17.0544C17.4548 17.1649 17.4666 17.2968 17.4975 17.4156C17.6995 18.1783 18.1391 18.8924 18.7985 19.3403C19.1039 19.5471 19.4449 19.6873 19.8072 19.7562C20.475 19.8821 21.2033 19.8037 21.8021 19.4722C21.915 19.4104 22.0219 19.338 22.1229 19.2572C22.8666 18.6572 23.0698 17.6888 23.1565 16.7835C23.166 16.6837 23.1732 16.5827 23.1791 16.4817C23.1839 16.3974 23.2409 16.3249 23.3229 16.3035L23.5189 16.2512C23.6033 16.2286 23.6627 16.1514 23.6627 16.0635V15.9708C23.6627 16.0587 23.6045 16.1348 23.5189 16.1585Z" fill="url(#paint3_linear_30_33569)"/>
<path d="M16.2704 15.978C16.2632 15.9661 16.2466 15.9578 16.2133 15.9447C16.1575 15.9222 16.0981 15.9044 16.0411 15.8853C15.9306 15.8485 15.8177 15.8152 15.7048 15.7844C15.4803 15.7226 15.2521 15.6727 15.0217 15.6323C14.5749 15.5539 14.1222 15.5123 13.6696 15.498C12.9365 15.4754 12.1975 15.5194 11.4739 15.6382C11.3195 15.6632 11.1674 15.6941 10.9951 15.7546C11.051 16.6101 11.2185 17.5748 11.8921 18.1713C11.9159 18.1915 11.9397 18.2117 11.9634 18.2319C12.0561 18.3067 12.1547 18.3733 12.2593 18.4303C12.8118 18.7356 13.483 18.8081 14.0985 18.6917C14.4323 18.6287 14.7472 18.4992 15.0276 18.3091C15.7571 17.8148 16.1955 16.9998 16.2644 16.1301C16.2668 16.104 16.2692 16.079 16.2704 16.0529C16.2751 16.0125 16.2787 15.9923 16.2704 15.978Z" fill="url(#paint4_linear_30_33569)"/>
<path d="M17.6163 15.978C17.6234 15.9661 17.6401 15.9578 17.6733 15.9447C17.7292 15.9222 17.7886 15.9044 17.8456 15.8853C17.9561 15.8485 18.069 15.8152 18.1819 15.7844C18.4064 15.7226 18.6345 15.6727 18.865 15.6323C19.3118 15.5539 19.7644 15.5123 20.2171 15.498C20.9502 15.4754 21.6892 15.5194 22.4128 15.6382C22.5672 15.6632 22.7193 15.6941 22.8916 15.7546C22.8357 16.6101 22.6682 17.5748 21.9945 18.1713C21.9708 18.1915 21.947 18.2117 21.9232 18.2319C21.8306 18.3067 21.732 18.3733 21.6274 18.4303C21.0749 18.7356 20.4036 18.8081 19.7882 18.6917C19.4543 18.6287 19.1395 18.4992 18.8591 18.3091C18.1296 17.8148 17.6912 16.9998 17.6223 16.1301C17.6199 16.104 17.6175 16.079 17.6163 16.0529C17.6116 16.0125 17.608 15.9923 17.6163 15.978Z" fill="url(#paint5_linear_30_33569)"/>
<path d="M23.5898 13.0803C24.9144 13.0803 25.9882 12.0064 25.9882 10.6817C25.9882 9.35698 24.9144 8.28308 23.5898 8.28308C22.2652 8.28308 21.1914 9.35698 21.1914 10.6817C21.1914 12.0064 22.2652 13.0803 23.5898 13.0803Z" fill="url(#paint6_linear_30_33569)"/>
<path d="M23.5898 13.0565C24.9144 13.0565 25.9882 11.9826 25.9882 10.6579C25.9882 9.33318 24.9144 8.25928 23.5898 8.25928C22.2652 8.25928 21.1914 9.33318 21.1914 10.6579C21.1914 11.9826 22.2652 13.0565 23.5898 13.0565Z" fill="url(#paint7_linear_30_33569)"/>
<path d="M23.5898 13.0243C24.9144 13.0243 25.9882 11.9504 25.9882 10.6257C25.9882 9.30095 24.9144 8.22705 23.5898 8.22705C22.2652 8.22705 21.1914 9.30095 21.1914 10.6257C21.1914 11.9504 22.2652 13.0243 23.5898 13.0243Z" fill="url(#paint8_linear_30_33569)"/>
<path d="M23.5898 13.0003C24.9144 13.0003 25.9882 11.9264 25.9882 10.6016C25.9882 9.2769 24.9144 8.203 23.5898 8.203C22.2652 8.203 21.1914 9.2769 21.1914 10.6016C21.1914 11.9264 22.2652 13.0003 23.5898 13.0003Z" fill="url(#paint9_linear_30_33569)"/>
<path d="M23.5898 12.9681C24.9144 12.9681 25.9882 11.8942 25.9882 10.5695C25.9882 9.2448 24.9144 8.1709 23.5898 8.1709C22.2652 8.1709 21.1914 9.2448 21.1914 10.5695C21.1914 11.8942 22.2652 12.9681 23.5898 12.9681Z" fill="url(#paint10_linear_30_33569)"/>
<path d="M23.5898 12.9359C24.9144 12.9359 25.9882 11.862 25.9882 10.5373C25.9882 9.21257 24.9144 8.13867 23.5898 8.13867C22.2652 8.13867 21.1914 9.21257 21.1914 10.5373C21.1914 11.862 22.2652 12.9359 23.5898 12.9359Z" fill="url(#paint11_linear_30_33569)"/>
<path d="M23.5898 12.912C24.9144 12.912 25.9882 11.8381 25.9882 10.5134C25.9882 9.18865 24.9144 8.11475 23.5898 8.11475C22.2652 8.11475 21.1914 9.18865 21.1914 10.5134C21.1914 11.8381 22.2652 12.912 23.5898 12.912Z" fill="url(#paint12_linear_30_33569)"/>
<path d="M23.5898 12.8798C24.9144 12.8798 25.9882 11.8059 25.9882 10.4811C25.9882 9.15642 24.9144 8.08252 23.5898 8.08252C22.2652 8.08252 21.1914 9.15642 21.1914 10.4811C21.1914 11.8059 22.2652 12.8798 23.5898 12.8798Z" fill="url(#paint13_linear_30_33569)"/>
<path d="M23.5898 12.856C24.9144 12.856 25.9882 11.7821 25.9882 10.4573C25.9882 9.13262 24.9144 8.05872 23.5898 8.05872C22.2652 8.05872 21.1914 9.13262 21.1914 10.4573C21.1914 11.7821 22.2652 12.856 23.5898 12.856Z" fill="url(#paint14_linear_30_33569)"/>
<path d="M23.5898 12.8237C24.9144 12.8237 25.9882 11.7498 25.9882 10.4251C25.9882 9.10039 24.9144 8.02649 23.5898 8.02649C22.2652 8.02649 21.1914 9.10039 21.1914 10.4251C21.1914 11.7498 22.2652 12.8237 23.5898 12.8237Z" fill="url(#paint15_linear_30_33569)"/>
<path d="M23.5898 12.7997C24.9144 12.7997 25.9882 11.7258 25.9882 10.4011C25.9882 9.07634 24.9144 8.00244 23.5898 8.00244C22.2652 8.00244 21.1914 9.07634 21.1914 10.4011C21.1914 11.7258 22.2652 12.7997 23.5898 12.7997Z" fill="url(#paint16_linear_30_33569)"/>
<path d="M23.5898 12.7676C24.9144 12.7676 25.9882 11.6937 25.9882 10.369C25.9882 9.04424 24.9144 7.97034 23.5898 7.97034C22.2652 7.97034 21.1914 9.04424 21.1914 10.369C21.1914 11.6937 22.2652 12.7676 23.5898 12.7676Z" fill="url(#paint17_linear_30_33569)"/>
<path d="M23.5898 12.7677C24.9144 12.7677 25.9882 11.6938 25.9882 10.3691C25.9882 9.04436 24.9144 7.97046 23.5898 7.97046C22.2652 7.97046 21.1914 9.04436 21.1914 10.3691C21.1914 11.6938 22.2652 12.7677 23.5898 12.7677Z" fill="url(#paint18_radial_30_33569)"/>
<path d="M23.5903 12.0696C24.5296 12.0696 25.291 11.3082 25.291 10.3689C25.291 9.42964 24.5296 8.66821 23.5903 8.66821C22.6511 8.66821 21.8896 9.42964 21.8896 10.3689C21.8896 11.3082 22.6511 12.0696 23.5903 12.0696Z" fill="url(#paint19_linear_30_33569)"/>
<path d="M23.5896 8.87679C24.4961 8.87679 25.2261 9.58274 25.2742 10.4732C25.2742 10.4411 25.2823 10.409 25.2823 10.3689C25.2823 9.43032 24.5201 8.66821 23.5816 8.66821C22.643 8.66821 21.8809 9.43032 21.8809 10.3689C21.8809 10.401 21.8889 10.4411 21.8889 10.4732C21.9531 9.58274 22.6831 8.87679 23.5896 8.87679Z" fill="url(#paint20_linear_30_33569)"/>
<path d="M23.9815 9.79928C24.0136 9.83939 24.0296 9.89554 24.0296 9.94368C24.0296 10.048 23.9574 10.1282 23.8612 10.1282C23.805 10.1282 23.7569 10.1121 23.6606 10.0399C23.6285 10.0079 23.6044 9.99983 23.5884 9.99983C23.5563 9.99983 23.5322 10.0239 23.5322 10.048C23.5322 10.0801 23.5563 10.1041 23.6205 10.1202C23.7569 10.1683 23.7809 10.1763 23.813 10.1924C23.9895 10.2726 24.0778 10.4009 24.0778 10.5854C24.0778 10.7058 24.0296 10.8181 23.9494 10.9063C23.9093 10.9464 23.8772 10.9625 23.805 11.0026C23.797 11.0668 23.7809 11.0989 23.7569 11.139C23.7168 11.1871 23.6526 11.2112 23.5884 11.2112C23.5242 11.2112 23.46 11.1871 23.4199 11.139C23.3959 11.1069 23.3878 11.0748 23.3718 11.0186C23.2675 10.9866 23.2194 10.9545 23.1793 10.9144C23.1151 10.8582 23.083 10.778 23.083 10.7058C23.083 10.6015 23.1713 10.5132 23.2755 10.5132C23.3237 10.5132 23.3798 10.5293 23.428 10.5694L23.5082 10.6336C23.5322 10.6496 23.5563 10.6657 23.5804 10.6657C23.6125 10.6657 23.6365 10.6416 23.6365 10.6095C23.6365 10.5614 23.5964 10.5373 23.46 10.4972C23.3237 10.4571 23.2515 10.409 23.1953 10.3368C23.1392 10.2646 23.1151 10.1843 23.1151 10.0881C23.1151 9.98379 23.1552 9.8795 23.2194 9.79928C23.2515 9.75917 23.2916 9.7351 23.3798 9.69499C23.4199 9.58268 23.4841 9.53455 23.5884 9.53455C23.6847 9.53455 23.7408 9.57466 23.789 9.67092C23.8932 9.71906 23.9414 9.75114 23.9815 9.79928Z" fill="url(#paint21_linear_30_33569)"/>
<path d="M22.874 26.1486C24.1986 26.1486 25.2724 25.0747 25.2724 23.7499C25.2724 22.4252 24.1986 21.3513 22.874 21.3513C21.5494 21.3513 20.4756 22.4252 20.4756 23.7499C20.4756 25.0747 21.5494 26.1486 22.874 26.1486Z" fill="url(#paint22_linear_30_33569)"/>
<path d="M22.874 26.1248C24.1986 26.1248 25.2724 25.0509 25.2724 23.7261C25.2724 22.4014 24.1986 21.3275 22.874 21.3275C21.5494 21.3275 20.4756 22.4014 20.4756 23.7261C20.4756 25.0509 21.5494 26.1248 22.874 26.1248Z" fill="url(#paint23_linear_30_33569)"/>
<path d="M22.874 26.0925C24.1986 26.0925 25.2724 25.0186 25.2724 23.6939C25.2724 22.3692 24.1986 21.2953 22.874 21.2953C21.5494 21.2953 20.4756 22.3692 20.4756 23.6939C20.4756 25.0186 21.5494 26.0925 22.874 26.0925Z" fill="url(#paint24_linear_30_33569)"/>
<path d="M22.874 26.0685C24.1986 26.0685 25.2724 24.9946 25.2724 23.6699C25.2724 22.3451 24.1986 21.2712 22.874 21.2712C21.5494 21.2712 20.4756 22.3451 20.4756 23.6699C20.4756 24.9946 21.5494 26.0685 22.874 26.0685Z" fill="url(#paint25_linear_30_33569)"/>
<path d="M22.874 26.0364C24.1986 26.0364 25.2724 24.9625 25.2724 23.6378C25.2724 22.313 24.1986 21.2391 22.874 21.2391C21.5494 21.2391 20.4756 22.313 20.4756 23.6378C20.4756 24.9625 21.5494 26.0364 22.874 26.0364Z" fill="url(#paint26_linear_30_33569)"/>
<path d="M22.874 26.0042C24.1986 26.0042 25.2724 24.9303 25.2724 23.6055C25.2724 22.2808 24.1986 21.2069 22.874 21.2069C21.5494 21.2069 20.4756 22.2808 20.4756 23.6055C20.4756 24.9303 21.5494 26.0042 22.874 26.0042Z" fill="url(#paint27_linear_30_33569)"/>
<path d="M22.874 25.9802C24.1986 25.9802 25.2724 24.9063 25.2724 23.5816C25.2724 22.2569 24.1986 21.183 22.874 21.183C21.5494 21.183 20.4756 22.2569 20.4756 23.5816C20.4756 24.9063 21.5494 25.9802 22.874 25.9802Z" fill="url(#paint28_linear_30_33569)"/>
<path d="M22.874 25.948C24.1986 25.948 25.2724 24.8741 25.2724 23.5494C25.2724 22.2247 24.1986 21.1508 22.874 21.1508C21.5494 21.1508 20.4756 22.2247 20.4756 23.5494C20.4756 24.8741 21.5494 25.948 22.874 25.948Z" fill="url(#paint29_linear_30_33569)"/>
<path d="M22.874 25.9242C24.1986 25.9242 25.2724 24.8503 25.2724 23.5256C25.2724 22.2009 24.1986 21.127 22.874 21.127C21.5494 21.127 20.4756 22.2009 20.4756 23.5256C20.4756 24.8503 21.5494 25.9242 22.874 25.9242Z" fill="url(#paint30_linear_30_33569)"/>
<path d="M22.874 25.892C24.1986 25.892 25.2724 24.8181 25.2724 23.4934C25.2724 22.1686 24.1986 21.0947 22.874 21.0947C21.5494 21.0947 20.4756 22.1686 20.4756 23.4934C20.4756 24.8181 21.5494 25.892 22.874 25.892Z" fill="url(#paint31_linear_30_33569)"/>
<path d="M22.874 25.8679C24.1986 25.8679 25.2724 24.794 25.2724 23.4693C25.2724 22.1446 24.1986 21.0707 22.874 21.0707C21.5494 21.0707 20.4756 22.1446 20.4756 23.4693C20.4756 24.794 21.5494 25.8679 22.874 25.8679Z" fill="url(#paint32_linear_30_33569)"/>
<path d="M22.874 25.8358C24.1986 25.8358 25.2724 24.7619 25.2724 23.4372C25.2724 22.1125 24.1986 21.0386 22.874 21.0386C21.5494 21.0386 20.4756 22.1125 20.4756 23.4372C20.4756 24.7619 21.5494 25.8358 22.874 25.8358Z" fill="url(#paint33_linear_30_33569)"/>
<path d="M22.874 25.8359C24.1986 25.8359 25.2724 24.762 25.2724 23.4373C25.2724 22.1126 24.1986 21.0387 22.874 21.0387C21.5494 21.0387 20.4756 22.1126 20.4756 23.4373C20.4756 24.762 21.5494 25.8359 22.874 25.8359Z" fill="url(#paint34_radial_30_33569)"/>
<path d="M22.8745 25.1378C23.8138 25.1378 24.5752 24.3764 24.5752 23.4371C24.5752 22.4979 23.8138 21.7365 22.8745 21.7365C21.9353 21.7365 21.1738 22.4979 21.1738 23.4371C21.1738 24.3764 21.9353 25.1378 22.8745 25.1378Z" fill="url(#paint35_linear_30_33569)"/>
<path d="M22.8738 21.945C23.7803 21.945 24.5103 22.651 24.5584 23.5414C24.5584 23.5093 24.5664 23.4773 24.5664 23.4371C24.5664 22.4986 23.8043 21.7365 22.8657 21.7365C21.9271 21.7365 21.165 22.4986 21.165 23.4371C21.165 23.4692 21.1731 23.5093 21.1731 23.5414C21.2372 22.651 21.9673 21.945 22.8738 21.945Z" fill="url(#paint36_linear_30_33569)"/>
<path d="M23.2666 22.8675C23.2987 22.9076 23.3148 22.9638 23.3148 23.0119C23.3148 23.1162 23.2426 23.1964 23.1463 23.1964C23.0902 23.1964 23.042 23.1804 22.9458 23.1082C22.9137 23.0761 22.8896 23.0681 22.8736 23.0681C22.8415 23.0681 22.8174 23.0921 22.8174 23.1162C22.8174 23.1483 22.8415 23.1724 22.9056 23.1884C23.042 23.2365 23.0661 23.2446 23.0982 23.2606C23.2747 23.3408 23.3629 23.4692 23.3629 23.6537C23.3629 23.774 23.3148 23.8863 23.2346 23.9746C23.1944 24.0147 23.1624 24.0307 23.0902 24.0708C23.0821 24.135 23.0661 24.1671 23.042 24.2072C23.0019 24.2553 22.9377 24.2794 22.8736 24.2794C22.8094 24.2794 22.7452 24.2553 22.7051 24.2072C22.681 24.1751 22.673 24.143 22.657 24.0869C22.5527 24.0548 22.5045 24.0227 22.4644 23.9826C22.4003 23.9264 22.3682 23.8462 22.3682 23.774C22.3682 23.6697 22.4564 23.5815 22.5607 23.5815C22.6088 23.5815 22.665 23.5975 22.7131 23.6376L22.7933 23.7018C22.8174 23.7179 22.8415 23.7339 22.8655 23.7339C22.8976 23.7339 22.9217 23.7098 22.9217 23.6778C22.9217 23.6296 22.8816 23.6056 22.7452 23.5654C22.6088 23.5253 22.5366 23.4772 22.4805 23.405C22.4243 23.3328 22.4003 23.2526 22.4003 23.1563C22.4003 23.052 22.4404 22.9477 22.5045 22.8675C22.5366 22.8274 22.5767 22.8033 22.665 22.7632C22.7051 22.6509 22.7693 22.6028 22.8736 22.6028C22.9698 22.6028 23.026 22.6429 23.0741 22.7392C23.1784 22.7873 23.2265 22.8194 23.2666 22.8675Z" fill="url(#paint37_linear_30_33569)"/>
<path d="M9.06246 23.4755C10.3871 23.4755 11.4609 22.4016 11.4609 21.0768C11.4609 19.7521 10.3871 18.6782 9.06246 18.6782C7.73786 18.6782 6.66406 19.7521 6.66406 21.0768C6.66406 22.4016 7.73786 23.4755 9.06246 23.4755Z" fill="url(#paint38_linear_30_33569)"/>
<path d="M9.06246 23.4515C10.3871 23.4515 11.4609 22.3776 11.4609 21.0529C11.4609 19.7282 10.3871 18.6543 9.06246 18.6543C7.73786 18.6543 6.66406 19.7282 6.66406 21.0529C6.66406 22.3776 7.73786 23.4515 9.06246 23.4515Z" fill="url(#paint39_linear_30_33569)"/>
<path d="M9.06246 23.4194C10.3871 23.4194 11.4609 22.3455 11.4609 21.0208C11.4609 19.6961 10.3871 18.6222 9.06246 18.6222C7.73786 18.6222 6.66406 19.6961 6.66406 21.0208C6.66406 22.3455 7.73786 23.4194 9.06246 23.4194Z" fill="url(#paint40_linear_30_33569)"/>
<path d="M9.06246 23.3954C10.3871 23.3954 11.4609 22.3215 11.4609 20.9968C11.4609 19.672 10.3871 18.5981 9.06246 18.5981C7.73786 18.5981 6.66406 19.672 6.66406 20.9968C6.66406 22.3215 7.73786 23.3954 9.06246 23.3954Z" fill="url(#paint41_linear_30_33569)"/>
<path d="M9.06246 23.3633C10.3871 23.3633 11.4609 22.2894 11.4609 20.9647C11.4609 19.6399 10.3871 18.566 9.06246 18.566C7.73786 18.566 6.66406 19.6399 6.66406 20.9647C6.66406 22.2894 7.73786 23.3633 9.06246 23.3633Z" fill="url(#paint42_linear_30_33569)"/>
<path d="M9.06246 23.3311C10.3871 23.3311 11.4609 22.2572 11.4609 20.9324C11.4609 19.6077 10.3871 18.5338 9.06246 18.5338C7.73786 18.5338 6.66406 19.6077 6.66406 20.9324C6.66406 22.2572 7.73786 23.3311 9.06246 23.3311Z" fill="url(#paint43_linear_30_33569)"/>
<path d="M9.06246 23.307C10.3871 23.307 11.4609 22.2331 11.4609 20.9084C11.4609 19.5837 10.3871 18.5098 9.06246 18.5098C7.73786 18.5098 6.66406 19.5837 6.66406 20.9084C6.66406 22.2331 7.73786 23.307 9.06246 23.307Z" fill="url(#paint44_linear_30_33569)"/>
<path d="M9.06246 23.2749C10.3871 23.2749 11.4609 22.201 11.4609 20.8763C11.4609 19.5516 10.3871 18.4777 9.06246 18.4777C7.73786 18.4777 6.66406 19.5516 6.66406 20.8763C6.66406 22.201 7.73786 23.2749 9.06246 23.2749Z" fill="url(#paint45_linear_30_33569)"/>
<path d="M9.06246 23.2511C10.3871 23.2511 11.4609 22.1772 11.4609 20.8525C11.4609 19.5278 10.3871 18.4539 9.06246 18.4539C7.73786 18.4539 6.66406 19.5278 6.66406 20.8525C6.66406 22.1772 7.73786 23.2511 9.06246 23.2511Z" fill="url(#paint46_linear_30_33569)"/>
<path d="M9.06246 23.2189C10.3871 23.2189 11.4609 22.145 11.4609 20.8203C11.4609 19.4955 10.3871 18.4216 9.06246 18.4216C7.73786 18.4216 6.66406 19.4955 6.66406 20.8203C6.66406 22.145 7.73786 23.2189 9.06246 23.2189Z" fill="url(#paint47_linear_30_33569)"/>
<path d="M9.06246 23.1948C10.3871 23.1948 11.4609 22.1209 11.4609 20.7962C11.4609 19.4715 10.3871 18.3976 9.06246 18.3976C7.73786 18.3976 6.66406 19.4715 6.66406 20.7962C6.66406 22.1209 7.73786 23.1948 9.06246 23.1948Z" fill="url(#paint48_linear_30_33569)"/>
<path d="M9.06246 23.1627C10.3871 23.1627 11.4609 22.0888 11.4609 20.7641C11.4609 19.4394 10.3871 18.3655 9.06246 18.3655C7.73786 18.3655 6.66406 19.4394 6.66406 20.7641C6.66406 22.0888 7.73786 23.1627 9.06246 23.1627Z" fill="url(#paint49_linear_30_33569)"/>
<path d="M9.06246 23.1628C10.3871 23.1628 11.4609 22.0889 11.4609 20.7642C11.4609 19.4395 10.3871 18.3656 9.06246 18.3656C7.73786 18.3656 6.66406 19.4395 6.66406 20.7642C6.66406 22.0889 7.73786 23.1628 9.06246 23.1628Z" fill="url(#paint50_radial_30_33569)"/>
<path d="M9.063 22.4647C10.0023 22.4647 10.7637 21.7033 10.7637 20.7641C10.7637 19.8248 10.0023 19.0634 9.063 19.0634C8.12373 19.0634 7.3623 19.8248 7.3623 20.7641C7.3623 21.7033 8.12373 22.4647 9.063 22.4647Z" fill="url(#paint51_linear_30_33569)"/>
<path d="M9.06223 19.2719C9.96874 19.2719 10.6988 19.9779 10.7469 20.8683C10.7469 20.8363 10.7549 20.8042 10.7549 20.7641C10.7549 19.8255 9.9928 19.0634 9.05421 19.0634C8.11562 19.0634 7.35352 19.8255 7.35352 20.7641C7.35352 20.7961 7.36154 20.8363 7.36154 20.8683C7.42571 19.9779 8.15573 19.2719 9.06223 19.2719Z" fill="url(#paint52_linear_30_33569)"/>
<path d="M9.45512 20.1945C9.48721 20.2347 9.50325 20.2908 9.50325 20.3389C9.50325 20.4432 9.43106 20.5234 9.33479 20.5234C9.27863 20.5234 9.2305 20.5074 9.13424 20.4352C9.10215 20.4031 9.07808 20.3951 9.06204 20.3951C9.02995 20.3951 9.00588 20.4192 9.00588 20.4432C9.00588 20.4753 9.02995 20.4994 9.09413 20.5154C9.2305 20.5636 9.25457 20.5716 9.28666 20.5876C9.46314 20.6678 9.55139 20.7962 9.55139 20.9807C9.55139 21.101 9.50326 21.2134 9.42303 21.3016C9.38292 21.3417 9.35083 21.3578 9.27863 21.3979C9.27061 21.462 9.25457 21.4941 9.2305 21.5342C9.19039 21.5824 9.12621 21.6064 9.06204 21.6064C8.99786 21.6064 8.93368 21.5824 8.89357 21.5342C8.8695 21.5022 8.86148 21.4701 8.84544 21.4139C8.74115 21.3818 8.69302 21.3497 8.65291 21.3096C8.58873 21.2535 8.55664 21.1732 8.55664 21.101C8.55664 20.9968 8.64488 20.9085 8.74917 20.9085C8.79731 20.9085 8.85346 20.9246 8.90159 20.9647L8.98181 21.0288C9.00588 21.0449 9.02995 21.0609 9.05401 21.0609C9.0861 21.0609 9.11017 21.0369 9.11017 21.0048C9.11017 20.9566 9.07006 20.9326 8.93368 20.8925C8.7973 20.8524 8.72511 20.8042 8.66895 20.732C8.6128 20.6598 8.58873 20.5796 8.58873 20.4833C8.58873 20.3791 8.62884 20.2748 8.69302 20.1945C8.72511 20.1544 8.76522 20.1304 8.85346 20.0903C8.89357 19.9779 8.95775 19.9298 9.06204 19.9298C9.1583 19.9298 9.21446 19.9699 9.26259 20.0662C9.36688 20.1143 9.41501 20.1464 9.45512 20.1945Z" fill="url(#paint53_linear_30_33569)"/>
<path d="M16.9807 24.4543C18.1507 24.4543 19.0991 23.2909 19.0991 21.8559C19.0991 20.4208 18.1507 19.2574 16.9807 19.2574C15.8108 19.2574 14.8623 20.4208 14.8623 21.8559C14.8623 23.2909 15.8108 24.4543 16.9807 24.4543Z" fill="url(#paint54_radial_30_33569)"/>
<path d="M16.9807 24.4659C18.1507 24.4659 19.0991 23.3025 19.0991 21.8675C19.0991 20.4324 18.1507 19.269 16.9807 19.269C15.8108 19.269 14.8623 20.4324 14.8623 21.8675C14.8623 23.3025 15.8108 24.4659 16.9807 24.4659Z" fill="url(#paint55_linear_30_33569)" fill-opacity="0.8"/>
</g>
<defs>
<linearGradient id="paint0_linear_30_33569" x1="7.40288" y1="7.40287" x2="28.1398" y2="28.1398" gradientUnits="userSpaceOnUse">
<stop stop-color="#A0F2B7"/>
<stop offset="0.058" stop-color="#99EFAF"/>
<stop offset="0.2248" stop-color="#8AE89D"/>
<stop offset="0.3457" stop-color="#85E597"/>
<stop offset="0.3602" stop-color="#83E395"/>
<stop offset="0.535" stop-color="#6ED486"/>
<stop offset="0.6515" stop-color="#67CE80"/>
<stop offset="1" stop-color="#5FB772"/>
</linearGradient>
<linearGradient id="paint1_linear_30_33569" x1="16.9553" y1="2.34043" x2="16.9553" y2="33.0264" gradientUnits="userSpaceOnUse">
<stop stop-color="white"/>
<stop offset="0.2428" stop-color="#FDFDFD"/>
<stop offset="0.3863" stop-color="#F4F8F5"/>
<stop offset="0.5041" stop-color="#E6EEE8"/>
<stop offset="0.6079" stop-color="#D2E0D5"/>
<stop offset="0.7025" stop-color="#B8CEBC"/>
<stop offset="0.7905" stop-color="#98B89E"/>
<stop offset="0.8733" stop-color="#719E7B"/>
<stop offset="0.9499" stop-color="#468152"/>
<stop offset="1" stop-color="#266B34"/>
</linearGradient>
<linearGradient id="paint2_linear_30_33569" x1="13.6553" y1="9.25282" x2="19.1294" y2="20.3352" gradientUnits="userSpaceOnUse">
<stop stop-color="white"/>
<stop offset="0.0483" stop-color="#E2E3E2"/>
<stop offset="0.1362" stop-color="#B4B6B4"/>
<stop offset="0.2297" stop-color="#8A8E8B"/>
<stop offset="0.3273" stop-color="#686C68"/>
<stop offset="0.4303" stop-color="#4B514C"/>
<stop offset="0.5404" stop-color="#353C36"/>
<stop offset="0.661" stop-color="#262D27"/>
<stop offset="0.8" stop-color="#1D241E"/>
<stop offset="1" stop-color="#1A211B"/>
</linearGradient>
<linearGradient id="paint3_linear_30_33569" x1="8.53143" y1="14.152" x2="16.7068" y2="17.2826" gradientUnits="userSpaceOnUse">
<stop stop-color="white"/>
<stop offset="0.0483" stop-color="#E2E3E2"/>
<stop offset="0.1362" stop-color="#B4B6B4"/>
<stop offset="0.2297" stop-color="#8A8E8B"/>
<stop offset="0.3273" stop-color="#686C68"/>
<stop offset="0.4303" stop-color="#4B514C"/>
<stop offset="0.5404" stop-color="#353C36"/>
<stop offset="0.661" stop-color="#262D27"/>
<stop offset="0.8" stop-color="#1D241E"/>
<stop offset="1" stop-color="#1A211B"/>
</linearGradient>
<linearGradient id="paint4_linear_30_33569" x1="13.3184" y1="14.2457" x2="14.1503" y2="18.8879" gradientUnits="userSpaceOnUse">
<stop stop-color="white"/>
<stop offset="0.0483" stop-color="#E2E3E2" stop-opacity="0.9517"/>
<stop offset="0.1362" stop-color="#B4B6B4" stop-opacity="0.8638"/>
<stop offset="0.2297" stop-color="#8A8E8B" stop-opacity="0.7703"/>
<stop offset="0.3273" stop-color="#686C68" stop-opacity="0.6727"/>
<stop offset="0.4303" stop-color="#4B514C" stop-opacity="0.5697"/>
<stop offset="0.5404" stop-color="#353C36" stop-opacity="0.4596"/>
<stop offset="0.661" stop-color="#262D27" stop-opacity="0.339"/>
<stop offset="0.8" stop-color="#1D241E" stop-opacity="0.2"/>
<stop offset="1" stop-color="#1A211B" stop-opacity="0"/>
</linearGradient>
<linearGradient id="paint5_linear_30_33569" x1="19.3621" y1="13.5759" x2="21.3076" y2="19.0634" gradientUnits="userSpaceOnUse">
<stop stop-color="white"/>
<stop offset="0.0483" stop-color="#E2E3E2" stop-opacity="0.9517"/>
<stop offset="0.1362" stop-color="#B4B6B4" stop-opacity="0.8638"/>
<stop offset="0.2297" stop-color="#8A8E8B" stop-opacity="0.7703"/>
<stop offset="0.3273" stop-color="#686C68" stop-opacity="0.6727"/>
<stop offset="0.4303" stop-color="#4B514C" stop-opacity="0.5697"/>
<stop offset="0.5404" stop-color="#353C36" stop-opacity="0.4596"/>
<stop offset="0.661" stop-color="#262D27" stop-opacity="0.339"/>
<stop offset="0.8" stop-color="#1D241E" stop-opacity="0.2"/>
<stop offset="1" stop-color="#1A211B" stop-opacity="0"/>
</linearGradient>
<linearGradient id="paint6_linear_30_33569" x1="26.0285" y1="10.683" x2="20.1874" y2="10.683" gradientUnits="userSpaceOnUse">
<stop stop-color="#DA7711"/>
<stop offset="1" stop-color="#FFC749"/>
</linearGradient>
<linearGradient id="paint7_linear_30_33569" x1="26.0285" y1="10.6548" x2="20.1874" y2="10.6548" gradientUnits="userSpaceOnUse">
<stop stop-color="#DA7711"/>
<stop offset="1" stop-color="#FFC749"/>
</linearGradient>
<linearGradient id="paint8_linear_30_33569" x1="26.0285" y1="10.6262" x2="20.1874" y2="10.6262" gradientUnits="userSpaceOnUse">
<stop stop-color="#DA7711"/>
<stop offset="1" stop-color="#FFC749"/>
</linearGradient>
<linearGradient id="paint9_linear_30_33569" x1="26.0285" y1="10.5979" x2="20.1874" y2="10.5979" gradientUnits="userSpaceOnUse">
<stop stop-color="#DA7711"/>
<stop offset="1" stop-color="#FFC749"/>
</linearGradient>
<linearGradient id="paint10_linear_30_33569" x1="26.0285" y1="10.5694" x2="20.1874" y2="10.5694" gradientUnits="userSpaceOnUse">
<stop stop-color="#DA7711"/>
<stop offset="1" stop-color="#FFC749"/>
</linearGradient>
<linearGradient id="paint11_linear_30_33569" x1="26.0285" y1="10.5408" x2="20.1874" y2="10.5408" gradientUnits="userSpaceOnUse">
<stop stop-color="#DA7711"/>
<stop offset="1" stop-color="#FFC749"/>
</linearGradient>
<linearGradient id="paint12_linear_30_33569" x1="26.0285" y1="10.5126" x2="20.1874" y2="10.5126" gradientUnits="userSpaceOnUse">
<stop stop-color="#DA7711"/>
<stop offset="1" stop-color="#FFC749"/>
</linearGradient>
<linearGradient id="paint13_linear_30_33569" x1="26.0285" y1="10.484" x2="20.1874" y2="10.484" gradientUnits="userSpaceOnUse">
<stop stop-color="#DA7711"/>
<stop offset="1" stop-color="#FFC749"/>
</linearGradient>
<linearGradient id="paint14_linear_30_33569" x1="26.0285" y1="10.4559" x2="20.1874" y2="10.4559" gradientUnits="userSpaceOnUse">
<stop stop-color="#DA7711"/>
<stop offset="1" stop-color="#FFC749"/>
</linearGradient>
<linearGradient id="paint15_linear_30_33569" x1="26.0285" y1="10.4273" x2="20.1874" y2="10.4273" gradientUnits="userSpaceOnUse">
<stop stop-color="#DA7711"/>
<stop offset="1" stop-color="#FFC749"/>
</linearGradient>
<linearGradient id="paint16_linear_30_33569" x1="26.0285" y1="10.3989" x2="20.1874" y2="10.3989" gradientUnits="userSpaceOnUse">
<stop stop-color="#DA7711"/>
<stop offset="1" stop-color="#FFC749"/>
</linearGradient>
<linearGradient id="paint17_linear_30_33569" x1="26.0285" y1="10.3705" x2="20.1874" y2="10.3705" gradientUnits="userSpaceOnUse">
<stop stop-color="#DA7711"/>
<stop offset="1" stop-color="#FFC749"/>
</linearGradient>
<radialGradient id="paint18_radial_30_33569" cx="0" cy="0" r="1" gradientUnits="userSpaceOnUse" gradientTransform="translate(23.5872 10.3706) rotate(90) scale(2.40087 2.40064)">
<stop stop-color="white"/>
<stop offset="0.416667" stop-color="#FFFAF0"/>
<stop offset="0.65625" stop-color="#FFEFCA"/>
<stop offset="0.791667" stop-color="#FFDC8C"/>
<stop offset="1" stop-color="#FFC749"/>
</radialGradient>
<linearGradient id="paint19_linear_30_33569" x1="23.5878" y1="8.6715" x2="23.5878" y2="12.0694" gradientUnits="userSpaceOnUse">
<stop stop-color="#FFCF5B"/>
<stop offset="1" stop-color="#FFC749"/>
</linearGradient>
<linearGradient id="paint20_linear_30_33569" x1="26.3787" y1="9.0708" x2="17.7884" y2="9.0708" gradientUnits="userSpaceOnUse">
<stop stop-color="#E79324"/>
<stop offset="1" stop-color="#E79324" stop-opacity="0"/>
</linearGradient>
<linearGradient id="paint21_linear_30_33569" x1="23.8723" y1="11.2183" x2="23.1564" y2="7.99692" gradientUnits="userSpaceOnUse">
<stop stop-color="#EA9929"/>
<stop offset="1" stop-color="#EA9929" stop-opacity="0"/>
</linearGradient>
<linearGradient id="paint22_linear_30_33569" x1="25.3127" y1="23.7512" x2="19.4716" y2="23.7512" gradientUnits="userSpaceOnUse">
<stop stop-color="#DA7711"/>
<stop offset="1" stop-color="#FFC749"/>
</linearGradient>
<linearGradient id="paint23_linear_30_33569" x1="25.3127" y1="23.723" x2="19.4716" y2="23.723" gradientUnits="userSpaceOnUse">
<stop stop-color="#DA7711"/>
<stop offset="1" stop-color="#FFC749"/>
</linearGradient>
<linearGradient id="paint24_linear_30_33569" x1="25.3127" y1="23.6945" x2="19.4716" y2="23.6945" gradientUnits="userSpaceOnUse">
<stop stop-color="#DA7711"/>
<stop offset="1" stop-color="#FFC749"/>
</linearGradient>
<linearGradient id="paint25_linear_30_33569" x1="25.3127" y1="23.6661" x2="19.4716" y2="23.6661" gradientUnits="userSpaceOnUse">
<stop stop-color="#DA7711"/>
<stop offset="1" stop-color="#FFC749"/>
</linearGradient>
<linearGradient id="paint26_linear_30_33569" x1="25.3127" y1="23.6377" x2="19.4716" y2="23.6377" gradientUnits="userSpaceOnUse">
<stop stop-color="#DA7711"/>
<stop offset="1" stop-color="#FFC749"/>
</linearGradient>
<linearGradient id="paint27_linear_30_33569" x1="25.3127" y1="23.6091" x2="19.4716" y2="23.6091" gradientUnits="userSpaceOnUse">
<stop stop-color="#DA7711"/>
<stop offset="1" stop-color="#FFC749"/>
</linearGradient>
<linearGradient id="paint28_linear_30_33569" x1="25.3127" y1="23.5808" x2="19.4716" y2="23.5808" gradientUnits="userSpaceOnUse">
<stop stop-color="#DA7711"/>
<stop offset="1" stop-color="#FFC749"/>
</linearGradient>
<linearGradient id="paint29_linear_30_33569" x1="25.3127" y1="23.5523" x2="19.4716" y2="23.5523" gradientUnits="userSpaceOnUse">
<stop stop-color="#DA7711"/>
<stop offset="1" stop-color="#FFC749"/>
</linearGradient>
<linearGradient id="paint30_linear_30_33569" x1="25.3127" y1="23.5241" x2="19.4716" y2="23.5241" gradientUnits="userSpaceOnUse">
<stop stop-color="#DA7711"/>
<stop offset="1" stop-color="#FFC749"/>
</linearGradient>
<linearGradient id="paint31_linear_30_33569" x1="25.3127" y1="23.4955" x2="19.4716" y2="23.4955" gradientUnits="userSpaceOnUse">
<stop stop-color="#DA7711"/>
<stop offset="1" stop-color="#FFC749"/>
</linearGradient>
<linearGradient id="paint32_linear_30_33569" x1="25.3127" y1="23.4671" x2="19.4716" y2="23.4671" gradientUnits="userSpaceOnUse">
<stop stop-color="#DA7711"/>
<stop offset="1" stop-color="#FFC749"/>
</linearGradient>
<linearGradient id="paint33_linear_30_33569" x1="25.3127" y1="23.4387" x2="19.4716" y2="23.4387" gradientUnits="userSpaceOnUse">
<stop stop-color="#DA7711"/>
<stop offset="1" stop-color="#FFC749"/>
</linearGradient>
<radialGradient id="paint34_radial_30_33569" cx="0" cy="0" r="1" gradientUnits="userSpaceOnUse" gradientTransform="translate(22.8714 23.4388) rotate(90) scale(2.40087 2.40064)">
<stop stop-color="white"/>
<stop offset="0.416667" stop-color="#FFFAF0"/>
<stop offset="0.65625" stop-color="#FFEFCA"/>
<stop offset="0.791667" stop-color="#FFDC8C"/>
<stop offset="1" stop-color="#FFC749"/>
</radialGradient>
<linearGradient id="paint35_linear_30_33569" x1="22.872" y1="21.7397" x2="22.872" y2="25.1376" gradientUnits="userSpaceOnUse">
<stop stop-color="#FFCF5B"/>
<stop offset="1" stop-color="#FFC749"/>
</linearGradient>
<linearGradient id="paint36_linear_30_33569" x1="25.6629" y1="22.139" x2="17.0726" y2="22.139" gradientUnits="userSpaceOnUse">
<stop stop-color="#E79324"/>
<stop offset="1" stop-color="#E79324" stop-opacity="0"/>
</linearGradient>
<linearGradient id="paint37_linear_30_33569" x1="23.1574" y1="24.2865" x2="22.4416" y2="21.0652" gradientUnits="userSpaceOnUse">
<stop stop-color="#EA9929"/>
<stop offset="1" stop-color="#EA9929" stop-opacity="0"/>
</linearGradient>
<linearGradient id="paint38_linear_30_33569" x1="11.5012" y1="21.0781" x2="5.66011" y2="21.0781" gradientUnits="userSpaceOnUse">
<stop stop-color="#DA7711"/>
<stop offset="1" stop-color="#FFC749"/>
</linearGradient>
<linearGradient id="paint39_linear_30_33569" x1="11.5012" y1="21.0498" x2="5.66011" y2="21.0498" gradientUnits="userSpaceOnUse">
<stop stop-color="#DA7711"/>
<stop offset="1" stop-color="#FFC749"/>
</linearGradient>
<linearGradient id="paint40_linear_30_33569" x1="11.5012" y1="21.0214" x2="5.66011" y2="21.0214" gradientUnits="userSpaceOnUse">
<stop stop-color="#DA7711"/>
<stop offset="1" stop-color="#FFC749"/>
</linearGradient>
<linearGradient id="paint41_linear_30_33569" x1="11.5012" y1="20.993" x2="5.66011" y2="20.993" gradientUnits="userSpaceOnUse">
<stop stop-color="#DA7711"/>
<stop offset="1" stop-color="#FFC749"/>
</linearGradient>
<linearGradient id="paint42_linear_30_33569" x1="11.5012" y1="20.9646" x2="5.66011" y2="20.9646" gradientUnits="userSpaceOnUse">
<stop stop-color="#DA7711"/>
<stop offset="1" stop-color="#FFC749"/>
</linearGradient>
<linearGradient id="paint43_linear_30_33569" x1="11.5012" y1="20.936" x2="5.66011" y2="20.936" gradientUnits="userSpaceOnUse">
<stop stop-color="#DA7711"/>
<stop offset="1" stop-color="#FFC749"/>
</linearGradient>
<linearGradient id="paint44_linear_30_33569" x1="11.5012" y1="20.9076" x2="5.66011" y2="20.9076" gradientUnits="userSpaceOnUse">
<stop stop-color="#DA7711"/>
<stop offset="1" stop-color="#FFC749"/>
</linearGradient>
<linearGradient id="paint45_linear_30_33569" x1="11.5012" y1="20.8792" x2="5.66011" y2="20.8792" gradientUnits="userSpaceOnUse">
<stop stop-color="#DA7711"/>
<stop offset="1" stop-color="#FFC749"/>
</linearGradient>
<linearGradient id="paint46_linear_30_33569" x1="11.5012" y1="20.851" x2="5.66011" y2="20.851" gradientUnits="userSpaceOnUse">
<stop stop-color="#DA7711"/>
<stop offset="1" stop-color="#FFC749"/>
</linearGradient>
<linearGradient id="paint47_linear_30_33569" x1="11.5012" y1="20.8224" x2="5.66011" y2="20.8224" gradientUnits="userSpaceOnUse">
<stop stop-color="#DA7711"/>
<stop offset="1" stop-color="#FFC749"/>
</linearGradient>
<linearGradient id="paint48_linear_30_33569" x1="11.5012" y1="20.794" x2="5.66011" y2="20.794" gradientUnits="userSpaceOnUse">
<stop stop-color="#DA7711"/>
<stop offset="1" stop-color="#FFC749"/>
</linearGradient>
<linearGradient id="paint49_linear_30_33569" x1="11.5012" y1="20.7656" x2="5.66011" y2="20.7656" gradientUnits="userSpaceOnUse">
<stop stop-color="#DA7711"/>
<stop offset="1" stop-color="#FFC749"/>
</linearGradient>
<radialGradient id="paint50_radial_30_33569" cx="0" cy="0" r="1" gradientUnits="userSpaceOnUse" gradientTransform="translate(9.05989 20.7657) rotate(90) scale(2.40087 2.40064)">
<stop stop-color="white"/>
<stop offset="0.416667" stop-color="#FFFAF0"/>
<stop offset="0.65625" stop-color="#FFEFCA"/>
<stop offset="0.791667" stop-color="#FFDC8C"/>
<stop offset="1" stop-color="#FFC749"/>
</radialGradient>
<linearGradient id="paint51_linear_30_33569" x1="9.06044" y1="19.0666" x2="9.06044" y2="22.4645" gradientUnits="userSpaceOnUse">
<stop stop-color="#FFCF5B"/>
<stop offset="1" stop-color="#FFC749"/>
</linearGradient>
<linearGradient id="paint52_linear_30_33569" x1="11.8514" y1="19.4659" x2="3.26109" y2="19.4659" gradientUnits="userSpaceOnUse">
<stop stop-color="#E79324"/>
<stop offset="1" stop-color="#E79324" stop-opacity="0"/>
</linearGradient>
<linearGradient id="paint53_linear_30_33569" x1="9.3459" y1="21.6135" x2="8.63004" y2="18.3922" gradientUnits="userSpaceOnUse">
<stop stop-color="#EA9929"/>
<stop offset="1" stop-color="#EA9929" stop-opacity="0"/>
</linearGradient>
<radialGradient id="paint54_radial_30_33569" cx="0" cy="0" r="1" gradientUnits="userSpaceOnUse" gradientTransform="translate(16.9807 21.8559) rotate(89.6124) scale(2.98581 2.43425)">
<stop stop-color="#1F4925"/>
<stop offset="1" stop-color="#143119"/>
</radialGradient>
<linearGradient id="paint55_linear_30_33569" x1="16.9802" y1="19.3669" x2="16.9802" y2="25.044" gradientUnits="userSpaceOnUse">
<stop stop-color="#143018"/>
<stop offset="1" stop-color="#468751"/>
</linearGradient>
<clipPath id="clip0_30_33569">
<rect width="24" height="24" fill="white" transform="translate(5 5)"/>
</clipPath>
</defs>
</svg>
