<svg width="16" height="16" viewBox="0 0 16 16" fill="none" xmlns="http://www.w3.org/2000/svg">
<g clip-path="url(#clip0_164_61150)">
<path fill-rule="evenodd" clip-rule="evenodd" d="M11.4714 6.81008L7.74941 10.5327C7.62402 10.6573 7.45447 10.7272 7.27775 10.7272C7.10102 10.7272 6.93147 10.6573 6.80608 10.5327L4.52875 8.25541C4.46685 8.19352 4.41775 8.12004 4.38425 8.03916C4.35076 7.95829 4.33352 7.87162 4.33352 7.78408C4.33352 7.6073 4.40374 7.43775 4.52875 7.31275C4.65375 7.18774 4.8233 7.11752 5.00008 7.11752C5.17687 7.11752 5.34641 7.18774 5.47141 7.31275L7.27741 9.11875L10.5287 5.86741C10.5906 5.80552 10.6641 5.75642 10.745 5.72292C10.8259 5.68942 10.9125 5.67218 11.0001 5.67218C11.0876 5.67218 11.1743 5.68942 11.2552 5.72292C11.336 5.75642 11.4095 5.80552 11.4714 5.86741C11.5333 5.92931 11.5824 6.00279 11.6159 6.08366C11.6494 6.16454 11.6666 6.25121 11.6666 6.33875C11.6666 6.42628 11.6494 6.51296 11.6159 6.59383C11.5824 6.6747 11.5333 6.74818 11.4714 6.81008ZM8.00008 0.666748C3.95008 0.666748 0.666748 3.95008 0.666748 8.00008C0.666748 12.0501 3.95008 15.3334 8.00008 15.3334C12.0501 15.3334 15.3334 12.0501 15.3334 8.00008C15.3334 3.95008 12.0501 0.666748 8.00008 0.666748Z" fill="#7BE48F"/>
</g>
<defs>
<clipPath id="clip0_164_61150">
<rect width="16" height="16" fill="white"/>
</clipPath>
</defs>
</svg>
