<svg width="61" height="60" viewBox="0 0 61 60" fill="none" xmlns="http://www.w3.org/2000/svg">
<path fill-rule="evenodd" clip-rule="evenodd" d="M30.5 42.795C29.7044 42.795 28.9413 42.4789 28.3787 41.9163C27.8161 41.3537 27.5 40.5907 27.5 39.795C27.5 38.9994 27.8161 38.2363 28.3787 37.6737C28.9413 37.1111 29.7044 36.795 30.5 36.795C31.2957 36.795 32.0587 37.1111 32.6213 37.6737C33.1839 38.2363 33.5 38.9994 33.5 39.795C33.5 40.5907 33.1839 41.3537 32.6213 41.9163C32.0587 42.4789 31.2957 42.795 30.5 42.795ZM28 18.2075C28 17.5445 28.2634 16.9086 28.7322 16.4397C29.2011 15.9709 29.837 15.7075 30.5 15.7075C31.163 15.7075 31.7989 15.9709 32.2678 16.4397C32.7366 16.9086 33 17.5445 33 18.2075V30.7075C33 31.3705 32.7366 32.0064 32.2678 32.4753C31.7989 32.9441 31.163 33.2075 30.5 33.2075C29.837 33.2075 29.2011 32.9441 28.7322 32.4753C28.2634 32.0064 28 31.3705 28 30.7075V18.2075ZM30.5 2.5C15.3125 2.5 3 14.8125 3 30C3 45.19 15.3125 57.5 30.5 57.5C45.6875 57.5 58 45.19 58 30C58 14.8125 45.6875 2.5 30.5 2.5Z" fill="#E2E4E6"/>
</svg>
