<svg width="54" height="54" viewBox="0 0 54 54" fill="none" xmlns="http://www.w3.org/2000/svg">
<g clip-path="url(#clip0_30_32975)">
<path d="M53.2824 31.8547C57.1189 44.9555 44.9557 57.1186 31.8549 53.2821C28.6855 52.3525 25.3152 52.3525 22.1459 53.2821C9.04504 57.1186 -3.11809 44.9555 0.71839 31.8547C1.64804 28.6853 1.64804 25.315 0.71839 22.1456C-3.11809 9.0448 9.04504 -3.11833 22.1459 0.718146C25.3152 1.64779 28.6855 1.64779 31.8549 0.718146C44.9557 -3.11833 57.1189 9.0448 53.2824 22.1456C52.3554 25.315 52.3554 28.6853 53.2824 31.8547Z" fill="url(#paint0_linear_30_32975)"/>
<path opacity="0.8" d="M36.7921 0.000244141V1.54341C41.66 1.54341 46.3458 3.91977 49.3303 7.9036C52.3068 11.8794 53.2096 16.9134 51.8031 21.7144C50.7904 25.1731 50.7904 28.8301 51.8031 32.2888C53.2096 37.0897 52.3095 42.1238 49.3303 46.0996C46.3485 50.0807 41.66 52.4598 36.7921 52.4598C35.2918 52.4598 33.7754 52.2401 32.2885 51.8034C30.5712 51.2997 28.7923 51.0452 27 51.0452C25.2103 51.0452 23.4314 51.2997 21.7114 51.8034C20.2245 52.2401 18.7082 52.4598 17.2079 52.4598C12.3399 52.4598 7.6515 50.0834 4.66965 46.0996C1.69317 42.1238 0.790313 37.0897 2.19684 32.2888C3.20954 28.8301 3.20954 25.1731 2.19684 21.7144C0.792992 16.9107 1.69317 11.8767 4.67233 7.9036C7.65418 3.91977 12.3426 1.54341 17.2105 1.54341C18.7108 1.54341 20.2272 1.76309 21.7141 2.19979C23.4314 2.70346 25.2103 2.95797 27.0027 2.95797C28.795 2.95797 30.5712 2.70346 32.2912 2.19979C33.7781 1.76309 35.2945 1.54341 36.7948 1.54341L36.7921 0.000244141ZM36.7921 0.000244141C35.182 0.000244141 33.5263 0.230647 31.8545 0.718244C30.2685 1.18173 28.6342 1.41481 27 1.41481C25.3657 1.41481 23.7315 1.18173 22.1454 0.718244C20.4737 0.227968 18.8207 0.000244141 17.2105 0.000244141C6.2021 0.000244141 -2.62822 10.7167 0.717977 22.1457C1.64763 25.3151 1.64763 28.6854 0.717977 31.8548C-2.6309 43.2838 6.2021 54.0002 17.2079 54.0002C18.818 54.0002 20.4737 53.7698 22.1454 53.2822C23.7315 52.8188 25.3657 52.5857 27 52.5857C28.6342 52.5857 30.2685 52.8188 31.8545 53.2822C33.5263 53.7725 35.182 54.0002 36.7921 54.0002C47.7979 54.0002 56.6309 43.2838 53.282 31.8548C52.3523 28.6854 52.3523 25.3151 53.282 22.1457C56.6309 10.7167 47.7979 0.000244141 36.7921 0.000244141Z" fill="url(#paint1_linear_30_32975)"/>
<path d="M31.2832 23.6513C31.4975 22.151 33.0568 20.9856 34.9509 20.9856C36.8423 20.9856 38.4016 22.151 38.6186 23.6513" stroke="#3F0606" stroke-width="1.60746" stroke-miterlimit="10" stroke-linecap="round"/>
<path d="M14.7441 23.6513C14.9585 22.151 16.5177 20.9856 18.4118 20.9856C20.3033 20.9856 21.8625 22.151 22.0795 23.6513" stroke="#3F0606" stroke-width="1.60746" stroke-miterlimit="10" stroke-linecap="round"/>
<path d="M31.9139 30.2151C31.5013 32.136 29.4518 33.5934 26.987 33.5934C24.5704 33.5934 22.5531 32.1896 22.0869 30.3249" stroke="#3F0606" stroke-width="1.60746" stroke-miterlimit="10" stroke-linecap="round"/>
<g filter="url(#filter0_d_30_32975)">
<path d="M9.68624 39.0649C1.01228 33.7285 4.75985 29.7901 4.86542 29.6878C4.9006 29.6537 4.93579 29.6196 4.97098 29.5685C5.48121 29.0229 6.22017 28.699 7.0471 28.699C8.2611 28.699 9.28157 29.4321 9.68624 30.4721C10.0909 29.4321 11.129 28.699 12.3254 28.699C13.1523 28.699 13.8737 29.04 14.4015 29.5685C14.4367 29.6026 14.4719 29.6367 14.5071 29.6878C14.6302 29.7901 18.3602 33.7285 9.68624 39.0649Z" fill="url(#paint2_linear_30_32975)"/>
</g>
<path d="M12.3442 29.0226C13.048 29.0226 13.6814 29.2954 14.1564 29.7898L14.262 29.9092C14.2972 29.9433 15.2297 30.9151 15.0361 32.5348C14.7898 34.4954 12.9424 36.6095 9.68749 38.6384C6.45015 36.6095 4.60275 34.4954 4.35643 32.5348C4.1453 30.9151 5.09539 29.9262 5.14817 29.8751L5.23614 29.7728C5.71119 29.2784 6.36217 29.0056 7.04835 29.0056C8.06882 29.0056 9.00131 29.6364 9.37079 30.557C9.42357 30.6934 9.54673 30.7787 9.70508 30.7787C9.86343 30.7787 9.98659 30.6934 10.0394 30.557C10.3737 29.6534 11.3062 29.0226 12.3442 29.0226ZM12.3442 28.6816C11.1302 28.6816 10.1097 29.4148 9.70508 30.4548C9.30041 29.4148 8.26235 28.6816 7.06594 28.6816C6.23902 28.6816 5.51765 29.0226 4.98982 29.5511C4.95464 29.5852 4.91945 29.6193 4.88426 29.6705C4.77869 29.7898 1.01353 33.7111 9.70508 39.0475C18.379 33.7111 14.6491 29.7728 14.5435 29.6705C14.5083 29.6364 14.4731 29.6023 14.4379 29.5511C13.8925 29.0226 13.1536 28.6816 12.3442 28.6816Z" fill="url(#paint3_linear_30_32975)"/>
<path d="M12.3442 29.0226C13.048 29.0226 13.6814 29.2954 14.1564 29.7898L14.262 29.9092C14.2972 29.9433 15.2297 30.9151 15.0361 32.5348C14.7898 34.4954 12.9424 36.6095 9.68749 38.6384C6.45015 36.6095 4.60275 34.4954 4.35643 32.5348C4.1453 30.9151 5.09539 29.9262 5.14817 29.8751L5.23614 29.7728C5.71119 29.2784 6.36217 29.0056 7.04835 29.0056C8.06882 29.0056 9.00131 29.6364 9.37079 30.557C9.42357 30.6934 9.54673 30.7787 9.70508 30.7787C9.86343 30.7787 9.98659 30.6934 10.0394 30.557C10.3737 29.6534 11.3062 29.0226 12.3442 29.0226ZM12.3442 28.6816C11.1302 28.6816 10.1097 29.4148 9.70508 30.4548C9.30041 29.4148 8.26235 28.6816 7.06594 28.6816C6.23902 28.6816 5.51765 29.0226 4.98982 29.5511C4.95464 29.5852 4.91945 29.6193 4.88426 29.6705C4.77869 29.7898 1.01353 33.7111 9.70508 39.0475C18.379 33.7111 14.6491 29.7728 14.5435 29.6705C14.5083 29.6364 14.4731 29.6023 14.4379 29.5511C13.8925 29.0226 13.1536 28.6816 12.3442 28.6816Z" fill="url(#paint4_linear_30_32975)"/>
<g filter="url(#filter1_d_30_32975)">
<path d="M43.3069 18.5667C34.4172 13.1058 38.258 9.07559 38.3662 8.9709C38.4022 8.93601 38.4383 8.90112 38.4744 8.84878C38.9973 8.29048 39.7546 7.95898 40.6021 7.95898C41.8463 7.95898 42.8921 8.7092 43.3069 9.77346C43.7216 8.7092 44.7855 7.95898 46.0116 7.95898C46.8591 7.95898 47.5984 8.30792 48.1394 8.84878C48.1754 8.88367 48.2115 8.91856 48.2475 8.9709C48.3738 9.07559 52.1965 13.1058 43.3069 18.5667Z" fill="url(#paint5_linear_30_32975)"/>
</g>
<path d="M46.0306 8.29035C46.7519 8.29035 47.401 8.56949 47.8879 9.07545L47.9961 9.19759C48.0321 9.23248 48.9878 10.227 48.7895 11.8844C48.537 13.8908 46.6437 16.0542 43.3078 18.1304C39.99 16.0542 38.0967 13.8908 37.8442 11.8844C37.6278 10.227 38.6016 9.21503 38.6556 9.16269L38.7458 9.05801C39.2327 8.55205 39.8998 8.2729 40.6031 8.2729C41.6489 8.2729 42.6046 8.91843 42.9833 9.86057C43.0373 10.0001 43.1636 10.0874 43.3259 10.0874C43.4881 10.0874 43.6144 10.0001 43.6685 9.86057C44.0111 8.93588 44.9667 8.29035 46.0306 8.29035ZM46.0306 7.94141C44.7864 7.94141 43.7406 8.69162 43.3259 9.75589C42.9111 8.69162 41.8473 7.94141 40.6211 7.94141C39.7736 7.94141 39.0343 8.29034 38.4934 8.8312C38.4573 8.86609 38.4212 8.90099 38.3852 8.95333C38.277 9.07545 34.4182 13.0882 43.3259 18.5491C52.2155 13.0882 48.3928 9.05801 48.2846 8.95333C48.2485 8.91843 48.2124 8.88354 48.1764 8.8312C47.6174 8.29034 46.8601 7.94141 46.0306 7.94141Z" fill="url(#paint6_linear_30_32975)"/>
<path d="M46.0306 8.29035C46.7519 8.29035 47.401 8.56949 47.8879 9.07545L47.9961 9.19759C48.0321 9.23248 48.9878 10.227 48.7895 11.8844C48.537 13.8908 46.6437 16.0542 43.3078 18.1304C39.99 16.0542 38.0967 13.8908 37.8442 11.8844C37.6278 10.227 38.6016 9.21503 38.6556 9.16269L38.7458 9.05801C39.2327 8.55205 39.8998 8.2729 40.6031 8.2729C41.6489 8.2729 42.6046 8.91843 42.9833 9.86057C43.0373 10.0001 43.1636 10.0874 43.3259 10.0874C43.4881 10.0874 43.6144 10.0001 43.6685 9.86057C44.0111 8.93588 44.9667 8.29035 46.0306 8.29035ZM46.0306 7.94141C44.7864 7.94141 43.7406 8.69162 43.3259 9.75589C42.9111 8.69162 41.8473 7.94141 40.6211 7.94141C39.7736 7.94141 39.0343 8.29034 38.4934 8.8312C38.4573 8.86609 38.4212 8.90099 38.3852 8.95333C38.277 9.07545 34.4182 13.0882 43.3259 18.5491C52.2155 13.0882 48.3928 9.05801 48.2846 8.95333C48.2485 8.91843 48.2124 8.88354 48.1764 8.8312C47.6174 8.29034 46.8601 7.94141 46.0306 7.94141Z" fill="url(#paint7_linear_30_32975)"/>
<g filter="url(#filter2_d_30_32975)">
<path d="M40.1311 48.7432C31.2415 43.2823 35.0822 39.2521 35.1904 39.1474C35.2265 39.1125 35.2625 39.0776 35.2986 39.0253C35.8215 38.467 36.5788 38.1355 37.4263 38.1355C38.6705 38.1355 39.7163 38.8857 40.1311 39.95C40.5458 38.8857 41.6097 38.1355 42.8358 38.1355C43.6833 38.1355 44.4226 38.4844 44.9636 39.0253C44.9996 39.0602 45.0357 39.0951 45.0718 39.1474C45.198 39.2521 49.0207 43.2823 40.1311 48.7432Z" fill="url(#paint8_linear_30_32975)"/>
</g>
<path d="M42.8548 38.4669C43.5761 38.4669 44.2252 38.746 44.7121 39.252L44.8203 39.3741C44.8563 39.409 45.812 40.4035 45.6137 42.0609C45.3612 44.0673 43.4679 46.2307 40.132 48.3069C36.8142 46.2307 34.9209 44.0673 34.6684 42.0609C34.4521 40.4035 35.4258 39.3915 35.4799 39.3392L35.57 39.2345C36.0569 38.7286 36.7241 38.4494 37.4273 38.4494C38.4731 38.4494 39.4288 39.0949 39.8075 40.0371C39.8616 40.1767 39.9878 40.2639 40.1501 40.2639C40.3124 40.2639 40.4386 40.1767 40.4927 40.0371C40.8353 39.1124 41.791 38.4669 42.8548 38.4669ZM42.8548 38.1179C41.6106 38.1179 40.5648 38.8681 40.1501 39.9324C39.7353 38.8681 38.6715 38.1179 37.4453 38.1179C36.5978 38.1179 35.8585 38.4669 35.3176 39.0077C35.2815 39.0426 35.2455 39.0775 35.2094 39.1298C35.1012 39.252 31.2424 43.2648 40.1501 48.7256C49.0397 43.2648 45.217 39.2345 45.1088 39.1298C45.0727 39.0949 45.0367 39.0601 45.0006 39.0077C44.4416 38.4669 43.6843 38.1179 42.8548 38.1179Z" fill="url(#paint9_linear_30_32975)"/>
<path d="M42.8548 38.4669C43.5761 38.4669 44.2252 38.746 44.7121 39.252L44.8203 39.3741C44.8563 39.409 45.812 40.4035 45.6137 42.0609C45.3612 44.0673 43.4679 46.2307 40.132 48.3069C36.8142 46.2307 34.9209 44.0673 34.6684 42.0609C34.4521 40.4035 35.4258 39.3915 35.4799 39.3392L35.57 39.2345C36.0569 38.7286 36.7241 38.4494 37.4273 38.4494C38.4731 38.4494 39.4288 39.0949 39.8075 40.0371C39.8616 40.1767 39.9878 40.2639 40.1501 40.2639C40.3124 40.2639 40.4386 40.1767 40.4927 40.0371C40.8353 39.1124 41.791 38.4669 42.8548 38.4669ZM42.8548 38.1179C41.6106 38.1179 40.5648 38.8681 40.1501 39.9324C39.7353 38.8681 38.6715 38.1179 37.4453 38.1179C36.5978 38.1179 35.8585 38.4669 35.3176 39.0077C35.2815 39.0426 35.2455 39.0775 35.2094 39.1298C35.1012 39.252 31.2424 43.2648 40.1501 48.7256C49.0397 43.2648 45.217 39.2345 45.1088 39.1298C45.0727 39.0949 45.0367 39.0601 45.0006 39.0077C44.4416 38.4669 43.6843 38.1179 42.8548 38.1179Z" fill="url(#paint10_linear_30_32975)"/>
</g>
<defs>
<filter id="filter0_d_30_32975" x="-3.45019" y="21.2781" width="26.2803" height="25.2078" filterUnits="userSpaceOnUse" color-interpolation-filters="sRGB">
<feFlood flood-opacity="0" result="BackgroundImageFix"/>
<feColorMatrix in="SourceAlpha" type="matrix" values="0 0 0 0 0 0 0 0 0 0 0 0 0 0 0 0 0 0 127 0" result="hardAlpha"/>
<feOffset/>
<feGaussianBlur stdDeviation="3.71045"/>
<feComposite in2="hardAlpha" operator="out"/>
<feColorMatrix type="matrix" values="0 0 0 0 0 0 0 0 0 0 0 0 0 0 0 0 0 0 0.1 0"/>
<feBlend mode="normal" in2="BackgroundImageFix" result="effect1_dropShadow_30_32975"/>
<feBlend mode="normal" in="SourceGraphic" in2="effect1_dropShadow_30_32975" result="shape"/>
</filter>
<filter id="filter1_d_30_32975" x="30.0283" y="0.538087" width="26.5645" height="25.4495" filterUnits="userSpaceOnUse" color-interpolation-filters="sRGB">
<feFlood flood-opacity="0" result="BackgroundImageFix"/>
<feColorMatrix in="SourceAlpha" type="matrix" values="0 0 0 0 0 0 0 0 0 0 0 0 0 0 0 0 0 0 127 0" result="hardAlpha"/>
<feOffset/>
<feGaussianBlur stdDeviation="3.71045"/>
<feComposite in2="hardAlpha" operator="out"/>
<feColorMatrix type="matrix" values="0 0 0 0 0 0 0 0 0 0 0 0 0 0 0 0 0 0 0.1 0"/>
<feBlend mode="normal" in2="BackgroundImageFix" result="effect1_dropShadow_30_32975"/>
<feBlend mode="normal" in="SourceGraphic" in2="effect1_dropShadow_30_32975" result="shape"/>
</filter>
<filter id="filter2_d_30_32975" x="26.8525" y="30.7146" width="26.5645" height="25.4495" filterUnits="userSpaceOnUse" color-interpolation-filters="sRGB">
<feFlood flood-opacity="0" result="BackgroundImageFix"/>
<feColorMatrix in="SourceAlpha" type="matrix" values="0 0 0 0 0 0 0 0 0 0 0 0 0 0 0 0 0 0 127 0" result="hardAlpha"/>
<feOffset/>
<feGaussianBlur stdDeviation="3.71045"/>
<feComposite in2="hardAlpha" operator="out"/>
<feColorMatrix type="matrix" values="0 0 0 0 0 0 0 0 0 0 0 0 0 0 0 0 0 0 0.1 0"/>
<feBlend mode="normal" in2="BackgroundImageFix" result="effect1_dropShadow_30_32975"/>
<feBlend mode="normal" in="SourceGraphic" in2="effect1_dropShadow_30_32975" result="shape"/>
</filter>
<linearGradient id="paint0_linear_30_32975" x1="10.589" y1="10.5888" x2="121.071" y2="121.071" gradientUnits="userSpaceOnUse">
<stop stop-color="#FFCCCC"/>
<stop offset="0.0446" stop-color="#FFC0BF"/>
<stop offset="0.165" stop-color="#FFA6A2"/>
<stop offset="0.2691" stop-color="#FF9690"/>
<stop offset="0.3444" stop-color="#FF908A"/>
<stop offset="0.6998" stop-color="#FB807A"/>
<stop offset="1" stop-color="#F97973"/>
</linearGradient>
<linearGradient id="paint1_linear_30_32975" x1="27.0005" y1="-6.00866" x2="27.0005" y2="63.2996" gradientUnits="userSpaceOnUse">
<stop stop-color="white"/>
<stop offset="0.1673" stop-color="#FEFCFC"/>
<stop offset="0.3105" stop-color="#F9F1F1"/>
<stop offset="0.4449" stop-color="#F2DFDF"/>
<stop offset="0.5739" stop-color="#E8C7C7"/>
<stop offset="0.6991" stop-color="#DCA6A6"/>
<stop offset="0.8214" stop-color="#CC7F7F"/>
<stop offset="0.9392" stop-color="#B95151"/>
<stop offset="0.9987" stop-color="#AF3737"/>
</linearGradient>
<linearGradient id="paint2_linear_30_32975" x1="9.6843" y1="30.0711" x2="9.6843" y2="38.9626" gradientUnits="userSpaceOnUse">
<stop stop-color="#FFE4E4"/>
<stop offset="0.432292" stop-color="#FFCCCC"/>
<stop offset="1" stop-color="#FFB9B7"/>
</linearGradient>
<linearGradient id="paint3_linear_30_32975" x1="9.68555" y1="27.3227" x2="9.68555" y2="41.596" gradientUnits="userSpaceOnUse">
<stop stop-color="#FCF4F4"/>
<stop offset="0.6875" stop-color="#FF938D"/>
<stop offset="1" stop-color="#FB8E88"/>
</linearGradient>
<linearGradient id="paint4_linear_30_32975" x1="7.16051" y1="27.3658" x2="9.0977" y2="31.2858" gradientUnits="userSpaceOnUse">
<stop stop-color="white"/>
<stop offset="0.359375" stop-color="white" stop-opacity="0.0868"/>
<stop offset="0.729167" stop-color="white" stop-opacity="0"/>
</linearGradient>
<linearGradient id="paint5_linear_30_32975" x1="43.3049" y1="9.36311" x2="43.3049" y2="18.462" gradientUnits="userSpaceOnUse">
<stop stop-color="#FFE4E4"/>
<stop offset="0.432292" stop-color="#FFCCCC"/>
<stop offset="1" stop-color="#FFB9B7"/>
</linearGradient>
<linearGradient id="paint6_linear_30_32975" x1="43.3058" y1="6.55071" x2="43.3058" y2="21.1571" gradientUnits="userSpaceOnUse">
<stop stop-color="#FCF4F4"/>
<stop offset="0.6875" stop-color="#FF938D"/>
<stop offset="1" stop-color="#FB8E88"/>
</linearGradient>
<linearGradient id="paint7_linear_30_32975" x1="40.718" y1="6.59485" x2="42.6986" y2="10.6087" gradientUnits="userSpaceOnUse">
<stop stop-color="white"/>
<stop offset="0.359375" stop-color="white" stop-opacity="0.0868"/>
<stop offset="0.729167" stop-color="white" stop-opacity="0"/>
</linearGradient>
<linearGradient id="paint8_linear_30_32975" x1="40.1291" y1="39.5396" x2="40.1291" y2="48.6385" gradientUnits="userSpaceOnUse">
<stop stop-color="#FFE4E4"/>
<stop offset="0.432292" stop-color="#FFCCCC"/>
<stop offset="1" stop-color="#FFB9B7"/>
</linearGradient>
<linearGradient id="paint9_linear_30_32975" x1="40.1301" y1="36.7272" x2="40.1301" y2="51.3336" gradientUnits="userSpaceOnUse">
<stop stop-color="#FCF4F4"/>
<stop offset="0.6875" stop-color="#FF938D"/>
<stop offset="1" stop-color="#FB8E88"/>
</linearGradient>
<linearGradient id="paint10_linear_30_32975" x1="37.5422" y1="36.7714" x2="39.5228" y2="40.7852" gradientUnits="userSpaceOnUse">
<stop stop-color="white"/>
<stop offset="0.359375" stop-color="white" stop-opacity="0.0868"/>
<stop offset="0.729167" stop-color="white" stop-opacity="0"/>
</linearGradient>
<clipPath id="clip0_30_32975">
<rect width="54" height="54" fill="white"/>
</clipPath>
</defs>
</svg>
