<svg width="25" height="24" viewBox="0 0 25 24" fill="none" xmlns="http://www.w3.org/2000/svg">
<path d="M5.41582 8.92969H6.68535V14.9258H9.81035V16H5.41582V8.92969ZM12.6451 16H11.2779L9.3834 10.6973H10.7115L11.9322 14.6426H11.9908L13.2213 10.6973H14.5396L12.6451 16ZM15.4604 16.0781C15.3236 16.0781 15.1967 16.0439 15.0795 15.9756C14.9623 15.9072 14.8695 15.8145 14.8012 15.6973C14.7328 15.5801 14.6986 15.4531 14.6986 15.3164C14.6986 15.1829 14.7328 15.0592 14.8012 14.9453C14.8695 14.8281 14.9623 14.7354 15.0795 14.667C15.1967 14.5986 15.3236 14.5645 15.4604 14.5645C15.5938 14.5645 15.7175 14.5986 15.8314 14.667C15.9486 14.7354 16.0414 14.8281 16.1098 14.9453C16.1781 15.0592 16.2123 15.1829 16.2123 15.3164C16.2123 15.4531 16.1781 15.5801 16.1098 15.6973C16.0414 15.8145 15.9486 15.9072 15.8314 15.9756C15.7175 16.0439 15.5938 16.0781 15.4604 16.0781ZM19.1057 16H17.8264V10.1699H17.7873L16.1369 11.2246V10.0625L17.885 8.92969H19.1057V16Z" fill="#CFD3D6"/>
<rect x="1" y="0.5" width="23" height="23" rx="11.5" stroke="#CFD3D6"/>
</svg>
