<svg width="55" height="54" viewBox="0 0 55 54" fill="none" xmlns="http://www.w3.org/2000/svg">
<path d="M53.2816 31.8545C57.118 44.9551 44.9551 57.118 31.8545 53.2816C28.6851 52.352 25.3149 52.352 22.1455 53.2816C9.04491 57.118 -3.11804 44.9551 0.718379 31.8545C1.64801 28.6851 1.64801 25.3149 0.718379 22.1455C-3.11804 9.04491 9.04491 -3.11804 22.1455 0.718379C25.3149 1.64801 28.6851 1.64801 31.8545 0.718379C44.9551 -3.11804 57.118 9.04491 53.2816 22.1455C52.3547 25.3149 52.3547 28.6851 53.2816 31.8545Z" fill="url(#paint0_linear_30_32962)"/>
<path opacity="0.8" d="M36.7918 0.000488281V1.54363C41.6597 1.54363 46.3454 3.91996 49.3298 7.90373C52.3063 11.8795 53.2091 16.9134 51.8026 21.7143C50.7899 25.173 50.7899 28.8299 51.8026 32.2886C53.2091 37.0895 52.309 42.1234 49.3298 46.0991C46.348 50.0802 41.6597 52.4592 36.7918 52.4592C35.2915 52.4592 33.7752 52.2396 32.2883 51.8029C30.571 51.2992 28.7921 51.0447 26.9998 51.0447C25.2102 51.0447 23.4313 51.2992 21.7114 51.8029C20.2245 52.2396 18.7081 52.4592 17.2079 52.4592C12.34 52.4592 7.65163 50.0829 4.66983 46.0991C1.69339 42.1234 0.790546 37.0895 2.19706 32.2886C3.20974 28.8299 3.20974 25.173 2.19706 21.7143C0.790546 16.9134 1.69071 11.8795 4.66983 7.90373C7.65163 3.92264 12.34 1.54363 17.2079 1.54363C18.7081 1.54363 20.2245 1.76331 21.7114 2.2C23.4286 2.70366 25.2075 2.95818 26.9998 2.95818C28.7921 2.95818 30.5683 2.70366 32.2883 2.2C33.7752 1.76331 35.2915 1.54363 36.7918 1.54363V0.000488281ZM36.7918 0.000488281C35.1817 0.000488281 33.526 0.230888 31.8543 0.718478C30.2683 1.18196 28.6341 1.41503 26.9998 1.41503C25.3656 1.41503 23.7314 1.18196 22.1454 0.718478C20.4736 0.228209 18.8207 0.000488281 17.2105 0.000488281C6.20494 0.000488281 -2.62793 10.7167 0.720896 22.1456C1.65053 25.315 1.65053 28.6852 0.720896 31.8546C-2.62793 43.2835 6.20494 53.9997 17.2105 53.9997C18.8207 53.9997 20.4763 53.7693 22.148 53.2817C23.7341 52.8182 25.3683 52.5852 27.0025 52.5852C28.6367 52.5852 30.271 52.8182 31.857 53.2817C33.5287 53.772 35.1844 53.9997 36.7945 53.9997C47.8001 53.9997 56.633 43.2835 53.2841 31.8546C52.3545 28.6852 52.3545 25.315 53.2841 22.1456C56.6303 10.7167 47.8001 0.000488281 36.7918 0.000488281Z" fill="url(#paint1_linear_30_32962)"/>
<path d="M35.2707 25.1488C36.6186 25.1488 37.7113 24.0561 37.7113 22.7082C37.7113 21.3603 36.6186 20.2676 35.2707 20.2676C33.9228 20.2676 32.8301 21.3603 32.8301 22.7082C32.8301 24.0561 33.9228 25.1488 35.2707 25.1488Z" fill="#3F0606"/>
<path d="M18.7316 25.1488C20.0796 25.1488 21.1723 24.0561 21.1723 22.7082C21.1723 21.3603 20.0796 20.2676 18.7316 20.2676C17.3837 20.2676 16.291 21.3603 16.291 22.7082C16.291 24.0561 17.3837 25.1488 18.7316 25.1488Z" fill="#3F0606"/>
<path opacity="0.3" d="M34.4437 22.4992C34.8165 22.4992 35.1188 22.1969 35.1188 21.824C35.1188 21.4512 34.8165 21.1489 34.4437 21.1489C34.0708 21.1489 33.7686 21.4512 33.7686 21.824C33.7686 22.1969 34.0708 22.4992 34.4437 22.4992Z" fill="#FFCCCC"/>
<path d="M26.9987 38.7341C29.6413 38.7341 31.7835 36.1072 31.7835 32.8669C31.7835 29.6266 29.6413 26.9998 26.9987 26.9998C24.3561 26.9998 22.2139 29.6266 22.2139 32.8669C22.2139 36.1072 24.3561 38.7341 26.9987 38.7341Z" fill="url(#paint2_radial_30_32962)"/>
<path d="M26.9987 38.7341C29.6413 38.7341 31.7835 36.1072 31.7835 32.8669C31.7835 29.6266 29.6413 26.9998 26.9987 26.9998C24.3561 26.9998 22.2139 29.6266 22.2139 32.8669C22.2139 36.1072 24.3561 38.7341 26.9987 38.7341Z" fill="url(#paint3_linear_30_32962)" fill-opacity="0.7"/>
<path opacity="0.3" d="M17.9144 22.4992C18.2872 22.4992 18.5895 22.1969 18.5895 21.824C18.5895 21.4512 18.2872 21.1489 17.9144 21.1489C17.5415 21.1489 17.2393 21.4512 17.2393 21.824C17.2393 22.1969 17.5415 22.4992 17.9144 22.4992Z" fill="#FFCCCC"/>
<defs>
<linearGradient id="paint0_linear_30_32962" x1="10.5892" y1="10.5889" x2="121.07" y2="121.07" gradientUnits="userSpaceOnUse">
<stop stop-color="#FFCCCC"/>
<stop offset="0.0446" stop-color="#FFC0BF"/>
<stop offset="0.165" stop-color="#FFA6A2"/>
<stop offset="0.2691" stop-color="#FF9690"/>
<stop offset="0.3444" stop-color="#FF908A"/>
<stop offset="0.6998" stop-color="#FB807A"/>
<stop offset="1" stop-color="#F97973"/>
</linearGradient>
<linearGradient id="paint1_linear_30_32962" x1="27.0007" y1="-6.00833" x2="27.0007" y2="63.2989" gradientUnits="userSpaceOnUse">
<stop stop-color="white"/>
<stop offset="0.1673" stop-color="#FEFCFC"/>
<stop offset="0.3105" stop-color="#F9F1F1"/>
<stop offset="0.4449" stop-color="#F2DFDF"/>
<stop offset="0.5739" stop-color="#E8C7C7"/>
<stop offset="0.6991" stop-color="#DCA6A6"/>
<stop offset="0.8214" stop-color="#CC7F7F"/>
<stop offset="0.9392" stop-color="#B95151"/>
<stop offset="0.9987" stop-color="#AF3737"/>
</linearGradient>
<radialGradient id="paint2_radial_30_32962" cx="0" cy="0" r="1" gradientUnits="userSpaceOnUse" gradientTransform="translate(26.9987 32.8669) rotate(90) scale(17.5591 14.3199)">
<stop offset="0.197917" stop-color="#84120E"/>
<stop offset="0.3125" stop-color="#4E0A08"/>
</radialGradient>
<linearGradient id="paint3_linear_30_32962" x1="26.9987" y1="38.9114" x2="26.9987" y2="19.8528" gradientUnits="userSpaceOnUse">
<stop stop-color="#84120E"/>
<stop offset="0.488328" stop-color="#4E0A08"/>
</linearGradient>
</defs>
</svg>
