<svg width="52" height="52" viewBox="0 0 52 52" fill="none" xmlns="http://www.w3.org/2000/svg">
<path d="M0.692352 21.3257C-3.00387 8.70985 8.70985 -3.00387 21.3257 0.692352C24.3783 1.586 27.6217 1.586 30.6743 0.692352C43.2902 -3.00218 55.0039 8.70985 51.3077 21.3257C50.414 24.3783 50.414 27.6217 51.3077 30.6743C55.0022 43.2902 43.2902 55.0039 30.6743 51.3077C27.6217 50.414 24.3783 50.414 21.3257 51.3077C8.70985 55.0022 -3.00387 43.2902 0.692352 30.6743C1.586 27.6217 1.586 24.3783 0.692352 21.3257Z" fill="#E2FCE7"/>
<path fill-rule="evenodd" clip-rule="evenodd" d="M18.54 16H21.92C23.33 16 24.46 17.15 24.46 18.561V21.97C24.46 23.39 23.33 24.53 21.92 24.53H18.54C17.14 24.53 16 23.39 16 21.97V18.561C16 17.15 17.14 16 18.54 16ZM18.54 27.4697H21.92C23.33 27.4697 24.46 28.6107 24.46 30.0307V33.4397C24.46 34.8497 23.33 35.9997 21.92 35.9997H18.54C17.14 35.9997 16 34.8497 16 33.4397V30.0307C16 28.6107 17.14 27.4697 18.54 27.4697ZM33.4601 16H30.0801C28.6701 16 27.5401 17.15 27.5401 18.561V21.97C27.5401 23.39 28.6701 24.53 30.0801 24.53H33.4601C34.8601 24.53 36.0001 23.39 36.0001 21.97V18.561C36.0001 17.15 34.8601 16 33.4601 16ZM30.0801 27.4697H33.4601C34.8601 27.4697 36.0001 28.6107 36.0001 30.0307V33.4397C36.0001 34.8497 34.8601 35.9997 33.4601 35.9997H30.0801C28.6701 35.9997 27.5401 34.8497 27.5401 33.4397V30.0307C27.5401 28.6107 28.6701 27.4697 30.0801 27.4697Z" fill="#7BE48F"/>
</svg>
