<svg width="48" height="48" viewBox="0 0 48 48" fill="none" xmlns="http://www.w3.org/2000/svg">
<circle cx="24" cy="24" r="24" fill="#E5FAE9"/>
<path fill-rule="evenodd" clip-rule="evenodd" d="M16.54 14H19.92C21.33 14 22.46 15.15 22.46 16.561V19.97C22.46 21.39 21.33 22.53 19.92 22.53H16.54C15.14 22.53 14 21.39 14 19.97V16.561C14 15.15 15.14 14 16.54 14ZM16.54 25.4697H19.92C21.33 25.4697 22.46 26.6107 22.46 28.0307V31.4397C22.46 32.8497 21.33 33.9997 19.92 33.9997H16.54C15.14 33.9997 14 32.8497 14 31.4397V28.0307C14 26.6107 15.14 25.4697 16.54 25.4697ZM31.4601 14H28.0801C26.6701 14 25.5401 15.15 25.5401 16.561V19.97C25.5401 21.39 26.6701 22.53 28.0801 22.53H31.4601C32.8601 22.53 34.0001 21.39 34.0001 19.97V16.561C34.0001 15.15 32.8601 14 31.4601 14ZM28.0801 25.4697H31.4601C32.8601 25.4697 34.0001 26.6107 34.0001 28.0307V31.4397C34.0001 32.8497 32.8601 33.9997 31.4601 33.9997H28.0801C26.6701 33.9997 25.5401 32.8497 25.5401 31.4397V28.0307C25.5401 26.6107 26.6701 25.4697 28.0801 25.4697Z" fill="#7BE48F"/>
</svg>
