<svg width="197" height="19" viewBox="0 0 197 19" fill="none" xmlns="http://www.w3.org/2000/svg">
<g clip-path="url(#clip0_164_55102)">
<path d="M0.996643 13.9998H3.44998V5.93065C3.44998 4.20565 4.36998 3.49649 5.57748 3.49649C6.78498 3.49649 7.70498 4.22482 7.70498 5.93065V13.9998H10.1583V5.93065C10.1583 4.22482 11.0783 3.49649 12.2858 3.49649C13.4933 3.49649 14.4133 4.20565 14.4133 5.93065V13.9998H16.8667V5.93065C16.8667 2.71065 14.9692 1.21565 12.4967 1.21565C10.9058 1.21565 9.65998 1.88649 8.93165 3.13232C8.20331 1.88649 6.95748 1.21565 5.36665 1.21565C2.89415 1.21565 0.996643 2.71065 0.996643 5.93065V13.9998ZM23.1273 14.249C24.6223 14.249 25.9064 13.5398 26.4814 12.1406V13.9998H28.5706V9.34232C28.5706 6.29482 26.5006 4.28232 23.5298 4.28232C20.5206 4.28232 18.4123 6.35232 18.4123 9.36149C18.4123 12.6006 20.8273 14.249 23.1273 14.249ZM23.5106 12.1215C21.8431 12.1215 20.7123 10.9331 20.7123 9.26565C20.7123 7.59815 21.8431 6.40982 23.5106 6.40982C25.1781 6.40982 26.2898 7.59815 26.2898 9.26565C26.2898 10.9331 25.1781 12.1215 23.5106 12.1215ZM34.0791 14.249C36.4941 14.249 38.0466 12.984 38.0466 11.0673C38.0466 8.70982 35.7274 8.46065 34.4624 8.28815C33.4466 8.15399 32.5841 8.03899 32.5841 7.31065C32.5841 6.75482 33.0824 6.27565 34.0791 6.27565C34.9799 6.27565 35.5166 6.67815 35.5741 7.25315H37.8357C37.7782 5.58565 36.3599 4.28232 34.0407 4.28232C31.7599 4.28232 30.2841 5.54732 30.2841 7.48315C30.2841 9.80232 32.4307 10.0515 33.8874 10.2431C34.9032 10.3773 35.7466 10.4731 35.7466 11.2015C35.7466 11.7765 35.2482 12.2556 34.0791 12.2556C32.9674 12.2556 32.4116 11.834 32.3924 11.2015H30.0924C30.1499 12.9648 31.6641 14.249 34.0791 14.249ZM39.8599 13.9998H42.1408V9.07399C42.1408 7.31065 43.1374 6.40982 44.5366 6.40982C45.9741 6.40982 46.9324 7.27232 46.9324 9.07399V13.9998H49.2133V9.07399C49.2133 5.70065 47.1433 4.28232 44.9583 4.28232C43.7508 4.28232 42.7733 4.83815 42.1408 5.85399V0.39149H39.8599V13.9998ZM51.0832 13.9998H53.364V8.59482C53.364 7.04233 54.169 6.40982 55.2807 6.40982C56.3732 6.40982 57.1974 7.06149 57.1974 8.59482V13.9998H59.4782V8.59482C59.4782 7.06149 60.2832 6.40982 61.3757 6.40982C62.4874 6.40982 63.2924 7.04233 63.2924 8.59482V13.9998H65.5732V8.59482C65.5732 5.62399 63.8482 4.28232 61.6057 4.28232C60.1682 4.28232 58.999 4.87649 58.3282 5.98815C57.6382 4.87649 56.469 4.28232 55.0507 4.28232C52.8082 4.28232 51.0832 5.62399 51.0832 8.59482V13.9998ZM71.7739 14.249C73.2689 14.249 74.5531 13.5398 75.1281 12.1406V13.9998H77.2173V9.34232C77.2173 6.29482 75.1473 4.28232 72.1764 4.28232C69.1673 4.28232 67.0589 6.35232 67.0589 9.36149C67.0589 12.6006 69.4739 14.249 71.7739 14.249ZM72.1573 12.1215C70.4898 12.1215 69.3589 10.9331 69.3589 9.26565C69.3589 7.59815 70.4898 6.40982 72.1573 6.40982C73.8248 6.40982 74.9364 7.59815 74.9364 9.26565C74.9364 10.9331 73.8248 12.1215 72.1573 12.1215ZM79.4291 13.9998H81.7099V0.39149H79.4291V13.9998ZM84.2394 13.9998H86.5203V0.39149H84.2394V13.9998ZM93.439 14.249C96.429 14.249 98.5373 12.1406 98.5373 9.26565C98.5373 6.39065 96.429 4.28232 93.439 4.28232C90.449 4.28232 88.3407 6.39065 88.3407 9.26565C88.3407 12.1406 90.449 14.249 93.439 14.249ZM93.439 12.1215C91.7715 12.1215 90.6407 10.9331 90.6407 9.26565C90.6407 7.59815 91.7715 6.40982 93.439 6.40982C95.1065 6.40982 96.2182 7.59815 96.2182 9.26565C96.2182 10.9331 95.1065 12.1215 93.439 12.1215ZM103.997 14.249C105.415 14.249 106.584 13.6548 107.274 12.5431C107.945 13.6548 109.114 14.249 110.552 14.249C112.794 14.249 114.519 12.9073 114.519 9.93649V4.53149H112.238V9.93649C112.238 11.489 111.433 12.1215 110.322 12.1215C109.229 12.1215 108.424 11.4698 108.424 9.93649V4.53149H106.143V9.93649C106.143 11.4698 105.319 12.1215 104.227 12.1215C103.115 12.1215 102.31 11.489 102.31 9.93649V4.53149H100.029V9.93649C100.029 12.9073 101.754 14.249 103.997 14.249ZM122.955 3.30482C123.837 3.30482 124.47 2.67232 124.47 1.79065C124.47 0.908991 123.837 0.257324 122.955 0.257324C122.074 0.257324 121.441 0.908991 121.441 1.79065C121.441 2.67232 122.074 3.30482 122.955 3.30482ZM121.805 13.9998H124.086V4.53149H121.805V13.9998ZM129.912 14.249C132.327 14.249 133.88 12.984 133.88 11.0673C133.88 8.70982 131.561 8.46065 130.296 8.28815C129.28 8.15399 128.417 8.03899 128.417 7.31065C128.417 6.75482 128.916 6.27565 129.912 6.27565C130.813 6.27565 131.35 6.67815 131.407 7.25315H133.669C133.612 5.58565 132.193 4.28232 129.874 4.28232C127.593 4.28232 126.117 5.54732 126.117 7.48315C126.117 9.80232 128.264 10.0515 129.721 10.2431C130.737 10.3773 131.58 10.4731 131.58 11.2015C131.58 11.7765 131.082 12.2556 129.912 12.2556C128.801 12.2556 128.245 11.834 128.226 11.2015H125.926C125.983 12.9648 127.497 14.249 129.912 14.249ZM145.116 18.2931C147.742 18.2931 149.831 16.9706 149.831 13.674V4.53149H147.55V9.34232C147.55 11.1056 146.554 12.0065 145.154 12.0065C143.717 12.0065 142.759 11.144 142.759 9.34232V4.53149H140.478V9.34232C140.478 12.7156 142.548 14.134 144.733 14.134C145.979 14.134 146.975 13.5781 147.55 12.5431V13.7315C147.55 15.5715 146.669 16.319 145.116 16.319C143.966 16.319 143.219 15.9165 142.835 15.0348H140.554C141.091 17.2773 142.912 18.2931 145.116 18.2931ZM156.723 14.249C159.713 14.249 161.821 12.1406 161.821 9.26565C161.821 6.39065 159.713 4.28232 156.723 4.28232C153.733 4.28232 151.624 6.39065 151.624 9.26565C151.624 12.1406 153.733 14.249 156.723 14.249ZM156.723 12.1215C155.055 12.1215 153.924 10.9331 153.924 9.26565C153.924 7.59815 155.055 6.40982 156.723 6.40982C158.39 6.40982 159.502 7.59815 159.502 9.26565C159.502 10.9331 158.39 12.1215 156.723 12.1215ZM167.99 14.249C170.788 14.249 172.666 12.6198 172.666 9.45732V4.53149H170.386V9.45732C170.386 11.259 169.427 12.1215 167.99 12.1215C166.552 12.1215 165.594 11.259 165.594 9.45732V4.53149H163.313V9.45732C163.313 12.639 165.191 14.249 167.99 14.249ZM174.543 13.9998H176.824V8.49899C176.824 6.96565 177.591 6.40982 178.703 6.40982C179.814 6.40982 180.581 6.96565 180.581 8.49899V8.59482H182.843V8.53732C182.843 5.64316 181.175 4.28232 178.703 4.28232C176.23 4.28232 174.543 5.64316 174.543 8.49899V13.9998ZM187.618 14.249C190.033 14.249 191.586 12.984 191.586 11.0673C191.586 8.70982 189.267 8.46065 188.002 8.28815C186.986 8.15399 186.123 8.03899 186.123 7.31065C186.123 6.75482 186.622 6.27565 187.618 6.27565C188.519 6.27565 189.056 6.67815 189.113 7.25315H191.375C191.317 5.58565 189.899 4.28232 187.58 4.28232C185.299 4.28232 183.823 5.54732 183.823 7.48315C183.823 9.80232 185.97 10.0515 187.427 10.2431C188.442 10.3773 189.286 10.4731 189.286 11.2015C189.286 11.7765 188.787 12.2556 187.618 12.2556C186.507 12.2556 185.951 11.834 185.932 11.2015H183.632C183.689 12.9648 185.203 14.249 187.618 14.249ZM193.782 10.0706H195.737L196.044 1.46482H193.476L193.782 10.0706ZM194.76 14.249C195.622 14.249 196.274 13.5973 196.274 12.7348C196.274 11.8723 195.622 11.2206 194.76 11.2206C193.897 11.2206 193.246 11.8723 193.246 12.7348C193.246 13.5973 193.897 14.249 194.76 14.249Z" fill="#7BE48F"/>
</g>
<defs>
<clipPath id="clip0_164_55102">
<rect width="197" height="19" fill="white"/>
</clipPath>
</defs>
</svg>
