<svg width="34" height="34" viewBox="0 0 34 34" fill="none" xmlns="http://www.w3.org/2000/svg">
<circle cx="17" cy="17" r="17" fill="#EBEEEF"/>
<g clip-path="url(#clip0_30_33517)">
<path d="M28.5911 19.1039C30.2901 24.9043 24.9043 30.2901 19.1039 28.5911C17.7008 28.18 16.2085 28.18 14.8053 28.5911C9.00491 30.2901 3.61917 24.9043 5.31818 19.1039C5.72927 17.7008 5.72927 16.2085 5.31818 14.8053C3.61917 9.00491 9.00491 3.61917 14.8053 5.31818C16.2085 5.72927 17.7008 5.72927 19.1039 5.31818C24.9043 3.61917 30.2901 9.00491 28.5911 14.8053C28.18 16.2097 28.18 17.7008 28.5911 19.1039Z" fill="url(#paint0_linear_30_33517)"/>
<path opacity="0.8" d="M21.2903 5.00098V5.68414C23.4455 5.68414 25.5212 6.73682 26.8412 8.49999C28.16 10.2596 28.558 12.4885 27.9354 14.614C27.4863 16.1455 27.4863 17.7649 27.9354 19.2964C28.558 21.422 28.1588 23.6509 26.8412 25.4105C25.52 27.1737 23.4455 28.2263 21.2903 28.2263C20.6261 28.2263 19.9548 28.1289 19.2966 27.9352C18.5362 27.7119 17.7485 27.599 16.956 27.599C16.1635 27.599 15.3758 27.7119 14.6154 27.9352C13.9572 28.1277 13.2859 28.2263 12.6217 28.2263C10.4665 28.2263 8.39085 27.1737 7.07085 25.4105C5.75204 23.6509 5.35402 21.422 5.97659 19.2964C6.4257 17.7649 6.4257 16.1455 5.97659 14.614C5.35402 12.4885 5.75323 10.2596 7.07085 8.49999C8.39204 6.73682 10.4665 5.68414 12.6217 5.68414C13.2859 5.68414 13.9572 5.78157 14.6154 5.97523C15.3758 6.1986 16.1635 6.31147 16.956 6.31147C17.7485 6.31147 18.5362 6.1986 19.2978 5.97523C19.956 5.78276 20.6273 5.68414 21.2914 5.68414L21.2903 5.00098ZM21.2903 5.00098C20.5774 5.00098 19.8443 5.10197 19.1041 5.31939C18.4019 5.52494 17.6784 5.62712 16.9548 5.62712C16.2312 5.62712 15.5077 5.52494 14.8055 5.31939C14.0653 5.10315 13.3322 5.00098 12.6194 5.00098C7.74689 5.00098 3.8356 9.74632 5.31838 14.8065C5.72947 16.2097 5.72947 17.702 5.31838 19.1051C3.8356 24.1653 7.7457 28.9107 12.6194 28.9107C13.3322 28.9107 14.0653 28.8097 14.8055 28.5923C15.5077 28.3867 16.2312 28.2845 16.9548 28.2845C17.6784 28.2845 18.4019 28.3867 19.1041 28.5923C19.8443 28.8085 20.5774 28.9107 21.2903 28.9107C26.1627 28.9107 30.074 24.1653 28.5912 19.1051C28.1802 17.702 28.1802 16.2097 28.5912 14.8065C30.074 9.74514 26.1639 5.00098 21.2903 5.00098Z" fill="url(#paint1_linear_30_33517)"/>
<path d="M21.9729 18.0465C21.9729 20.3134 19.7274 22.1515 16.9567 22.1515C14.186 22.1515 11.9404 20.3134 11.9404 18.0465H21.9729Z" fill="url(#paint2_linear_30_33517)"/>
<path d="M21.9729 18.0465C21.9729 20.3134 19.7274 22.1515 16.9567 22.1515C14.186 22.1515 11.9404 20.3134 11.9404 18.0465H21.9729Z" fill="url(#paint3_linear_30_33517)"/>
<path d="M13.7812 18.0465V20.7471V20.9051V22.1431C13.7812 23.8956 15.2022 25.3178 16.9559 25.3178C18.7084 25.3178 20.1306 23.8968 20.1306 22.1431V20.9051V20.7471V18.0465H13.7812Z" fill="url(#paint4_linear_30_33517)"/>
<rect x="16.292" y="18.3069" width="1.30693" height="5.82178" fill="url(#paint5_radial_30_33517)"/>
<path d="M21.9729 18.0465C21.9729 20.3134 19.7274 22.1515 16.9567 22.1515C14.186 22.1515 11.9404 20.3134 11.9404 18.0465H21.9729Z" fill="url(#paint6_linear_30_33517)"/>
<path d="M20.6171 16.0944C21.2136 16.0944 21.6971 15.6109 21.6971 15.0144C21.6971 14.418 21.2136 13.9344 20.6171 13.9344C20.0206 13.9344 19.5371 14.418 19.5371 15.0144C19.5371 15.6109 20.0206 16.0944 20.6171 16.0944Z" fill="#1A211B"/>
<path d="M13.2939 16.0944C13.8903 16.0944 14.3739 15.6109 14.3739 15.0144C14.3739 14.418 13.8903 13.9344 13.2939 13.9344C12.6974 13.9344 12.2139 14.418 12.2139 15.0144C12.2139 15.6109 12.6974 16.0944 13.2939 16.0944Z" fill="#1A211B"/>
<path opacity="0.5" d="M20.2506 14.9217C20.4159 14.9217 20.55 14.7876 20.55 14.6223C20.55 14.4569 20.4159 14.3229 20.2506 14.3229C20.0852 14.3229 19.9512 14.4569 19.9512 14.6223C19.9512 14.7876 20.0852 14.9217 20.2506 14.9217Z" fill="#5FB772"/>
<path opacity="0.5" d="M12.9332 14.9217C13.0985 14.9217 13.2326 14.7876 13.2326 14.6223C13.2326 14.4569 13.0985 14.3229 12.9332 14.3229C12.7678 14.3229 12.6338 14.4569 12.6338 14.6223C12.6338 14.7876 12.7678 14.9217 12.9332 14.9217Z" fill="#5FB772"/>
</g>
<defs>
<linearGradient id="paint0_linear_30_33517" x1="7.40246" y1="7.40287" x2="28.1394" y2="28.1398" gradientUnits="userSpaceOnUse">
<stop stop-color="#A0F2B7"/>
<stop offset="0.058" stop-color="#99EFAF"/>
<stop offset="0.2248" stop-color="#8AE89D"/>
<stop offset="0.3457" stop-color="#85E597"/>
<stop offset="0.3602" stop-color="#83E395"/>
<stop offset="0.535" stop-color="#6ED486"/>
<stop offset="0.6515" stop-color="#67CE80"/>
<stop offset="1" stop-color="#5FB772"/>
</linearGradient>
<linearGradient id="paint1_linear_30_33517" x1="16.9551" y1="2.34054" x2="16.9551" y2="33.0265" gradientUnits="userSpaceOnUse">
<stop stop-color="white"/>
<stop offset="0.2428" stop-color="#FDFDFD"/>
<stop offset="0.3863" stop-color="#F4F8F5"/>
<stop offset="0.5041" stop-color="#E6EEE8"/>
<stop offset="0.6079" stop-color="#D2E0D5"/>
<stop offset="0.7025" stop-color="#B8CEBC"/>
<stop offset="0.7905" stop-color="#98B89E"/>
<stop offset="0.8733" stop-color="#719E7B"/>
<stop offset="0.9499" stop-color="#468152"/>
<stop offset="1" stop-color="#266B34"/>
</linearGradient>
<linearGradient id="paint2_linear_30_33517" x1="16.9558" y1="17.9392" x2="16.9558" y2="23.7977" gradientUnits="userSpaceOnUse">
<stop offset="0.0014881" stop-color="#29472E"/>
<stop offset="1" stop-color="#468751"/>
</linearGradient>
<linearGradient id="paint3_linear_30_33517" x1="16.9558" y1="17.9392" x2="16.9558" y2="23.7977" gradientUnits="userSpaceOnUse">
<stop offset="0.0014881" stop-color="#29472E"/>
<stop offset="1" stop-color="#468751"/>
</linearGradient>
<linearGradient id="paint4_linear_30_33517" x1="16.955" y1="16.3781" x2="16.955" y2="28.2727" gradientUnits="userSpaceOnUse">
<stop offset="0.1931" stop-color="#FFCCCC"/>
<stop offset="0.6304" stop-color="#FF908A"/>
<stop offset="0.7337" stop-color="#F97973"/>
</linearGradient>
<radialGradient id="paint5_radial_30_33517" cx="0" cy="0" r="1" gradientUnits="userSpaceOnUse" gradientTransform="translate(16.9455 21.2178) rotate(90) scale(2.91089 0.653465)">
<stop stop-color="#FC837D"/>
<stop offset="1" stop-color="#FC837D" stop-opacity="0"/>
</radialGradient>
<linearGradient id="paint6_linear_30_33517" x1="16.9558" y1="16.1089" x2="16.9558" y2="23.7977" gradientUnits="userSpaceOnUse">
<stop stop-color="#511A1A"/>
<stop offset="0.21875" stop-color="#511A1A" stop-opacity="0.757576"/>
<stop offset="0.598462" stop-color="#511A1A" stop-opacity="0.1"/>
<stop offset="0.695769" stop-color="#511A1A" stop-opacity="0"/>
</linearGradient>
<clipPath id="clip0_30_33517">
<rect width="24" height="24" fill="white" transform="translate(5 5)"/>
</clipPath>
</defs>
</svg>
