<svg width="20" height="20" viewBox="0 0 20 20" fill="none" xmlns="http://www.w3.org/2000/svg">
<path d="M12.3158 3.89352C11.5592 3.71185 10.7858 3.60352 10 3.60352C6.49 3.60352 3.17083 5.48768 0.984995 8.62685C0.414995 9.44518 0.414995 10.556 0.984995 11.3743C1.51833 12.1402 2.12083 12.8277 2.775 13.4352L12.3158 3.89352Z" fill="#7BE48F"/>
<path d="M19.0158 8.62662C18.1408 7.36995 17.0783 6.32578 15.8992 5.51578L18.04 3.37495C18.4308 2.98412 18.4308 2.35078 18.04 1.96078C17.6492 1.57078 17.0158 1.56995 16.6258 1.96078L1.96 16.625C1.56916 17.0158 1.56916 17.6491 1.96 18.0391C2.155 18.2341 2.41166 18.3325 2.6675 18.3325C2.92333 18.3325 3.17916 18.2349 3.37499 18.0391L5.91166 15.5024C7.20249 16.0783 8.58333 16.3966 9.99999 16.3966C13.5108 16.3966 16.83 14.5124 19.0158 11.3733C19.585 10.5558 19.585 9.44495 19.0158 8.62662ZM9.99916 13.3116C9.44999 13.3116 8.93749 13.1691 8.48333 12.9299L12.9292 8.48412C13.1683 8.93828 13.3108 9.44995 13.3108 9.99911C13.3108 11.8266 11.825 13.3116 9.99916 13.3116Z" fill="#7BE48F"/>
</svg>
