<svg width="60" height="60" viewBox="0 0 60 60" fill="none" xmlns="http://www.w3.org/2000/svg">
<circle cx="30" cy="30" r="30" fill="black"/>
<path d="M38.7885 25.4196C38.6862 25.4797 36.2505 26.7472 36.2505 29.5576C36.3653 32.7626 39.3243 33.8866 39.375 33.8866C39.3243 33.9467 38.9283 35.4177 37.7554 36.9598C36.8245 38.2882 35.7914 39.6274 34.2225 39.6274C32.7301 39.6274 32.1944 38.7421 30.4725 38.7421C28.6233 38.7421 28.1 39.6274 26.6842 39.6274C25.1153 39.6274 24.0056 38.2164 23.024 36.9005C21.7488 35.1783 20.6649 32.4756 20.6266 29.8805C20.6008 28.5053 20.882 27.1536 21.5957 26.0054C22.6031 24.4025 24.4016 23.3144 26.3656 23.2785C27.8704 23.2309 29.2097 24.2473 30.1281 24.2473C31.0082 24.2473 32.6536 23.2785 34.5153 23.2785C35.3189 23.2793 37.4617 23.5063 38.7885 25.4196ZM30.0008 23.0039C29.733 21.7481 30.4725 20.4923 31.1612 19.6913C32.0414 18.7225 33.4314 18.0649 34.6301 18.0649C34.7066 19.3208 34.2216 20.5524 33.3549 21.4494C32.5771 22.4182 31.2378 23.1475 30.0008 23.0039Z" fill="white"/>
</svg>
