<svg width="34" height="34" viewBox="0 0 34 34" fill="none" xmlns="http://www.w3.org/2000/svg">
<circle cx="17" cy="17" r="17" fill="#EBEEEF"/>
<g clip-path="url(#clip0_30_33396)">
<path d="M28.7102 19.1049C30.4092 24.9056 25.0235 30.2916 19.2231 28.5925C17.8199 28.1814 16.3276 28.1814 14.9245 28.5925C9.12405 30.2916 3.73831 24.9056 5.43732 19.1049C5.84841 17.7016 5.84841 16.2093 5.43732 14.806C3.73831 9.00536 9.12405 3.61935 14.9245 5.31844C16.3276 5.72955 17.8199 5.72955 19.2231 5.31844C25.0235 3.61935 30.4092 9.00536 28.7102 14.806C28.2991 16.2093 28.2991 17.7016 28.7102 19.1049Z" fill="url(#paint0_linear_30_33396)"/>
<path opacity="0.8" d="M21.4096 5V5.6832C23.5649 5.6832 25.6405 6.73593 26.9605 8.49918C28.2793 10.2589 28.6773 12.4879 28.0548 14.6135C27.6057 16.1451 27.6057 17.7646 28.0548 19.2962C28.6773 21.4218 28.2781 23.6508 26.9605 25.4105C25.6393 27.1738 23.5649 28.2265 21.4096 28.2265C20.7455 28.2265 20.0742 28.1291 19.4159 27.9354C18.6556 27.712 17.8678 27.5991 17.0754 27.5991C16.2829 27.5991 15.4952 27.712 14.7348 27.9354C14.0765 28.1279 13.4053 28.2265 12.7411 28.2265C10.5858 28.2265 8.51021 27.1738 7.19021 25.4105C5.87139 23.6508 5.47337 21.4218 6.09595 19.2962C6.54506 17.7646 6.54506 16.1451 6.09595 14.6135C5.47337 12.4879 5.87258 10.2589 7.19021 8.49918C8.51139 6.73593 10.5858 5.6832 12.7411 5.6832C13.4053 5.6832 14.0765 5.78063 14.7348 5.97431C15.4952 6.19768 16.2829 6.31056 17.0754 6.31056C17.8678 6.31056 18.6556 6.19768 19.4159 5.97431C20.0742 5.78182 20.7455 5.6832 21.4096 5.6832V5ZM21.4084 5C20.6956 5 19.9625 5.101 19.2223 5.31843C18.5201 5.52399 17.7965 5.62617 17.073 5.62617C16.3494 5.62617 15.6258 5.52399 14.9237 5.31843C14.1835 5.10218 13.4504 5 12.7375 5C7.86506 5 3.95377 9.74558 5.43654 14.806C5.84763 16.2093 5.84763 17.7016 5.43654 19.1049C3.95377 24.1653 7.86387 28.9109 12.7375 28.9109C13.4504 28.9109 14.1835 28.8099 14.9237 28.5925C15.6258 28.3869 16.3494 28.2847 17.073 28.2847C17.7965 28.2847 18.5201 28.3869 19.2223 28.5925C19.9625 28.8087 20.6956 28.9109 21.4084 28.9109C26.2809 28.9109 30.1922 24.1653 28.7094 19.1049C28.2983 17.7016 28.2983 16.2093 28.7094 14.806C30.1922 9.74558 26.2821 5 21.4084 5Z" fill="url(#paint1_linear_30_33396)"/>
<path d="M22.0911 18.0461C22.0911 20.3132 19.8455 22.1513 17.0748 22.1513C14.3041 22.1513 12.0586 20.3132 12.0586 18.0461H22.0911Z" fill="url(#paint2_linear_30_33396)"/>
<g opacity="0.75">
<path d="M22.0911 18.0461C22.0911 20.3132 19.8455 22.1513 17.0748 22.1513C14.3041 22.1513 12.0586 20.3132 12.0586 18.0461H22.0911Z" fill="#29472E"/>
</g>
<path d="M18.9932 15.4744C19.0882 14.8091 19.7797 14.2922 20.6197 14.2922C21.4585 14.2922 22.15 14.8091 22.2462 15.4744" stroke="#1A211B" stroke-width="0.712871" stroke-miterlimit="10" stroke-linecap="round"/>
<path d="M11.6582 15.4744C11.7533 14.8091 12.4447 14.2922 13.2847 14.2922C14.1235 14.2922 14.815 14.8091 14.9113 15.4744" stroke="#1A211B" stroke-width="0.712871" stroke-miterlimit="10" stroke-linecap="round"/>
<path d="M22.0999 18.0461C22.0999 20.3132 19.8543 22.1513 17.0836 22.1513C14.3129 22.1513 12.0674 20.3132 12.0674 18.0461H22.0999Z" fill="url(#paint3_linear_30_33396)"/>
<g opacity="0.75">
<path d="M22.0999 18.0461C22.0999 20.3132 19.8543 22.1513 17.0836 22.1513C14.3129 22.1513 12.0674 20.3132 12.0674 18.0461H22.0999Z" fill="url(#paint4_linear_30_33396)"/>
</g>
<path opacity="0.85" d="M20.2729 21.2226C19.4317 20.5976 18.3184 20.2139 17.0935 20.2139C15.8685 20.2139 14.7553 20.5976 13.9141 21.2226C14.7802 21.8024 15.8863 22.1517 17.0935 22.1517C18.3006 22.1517 19.4067 21.8024 20.2729 21.2226Z" fill="url(#paint5_linear_30_33396)"/>
</g>
<defs>
<linearGradient id="paint0_linear_30_33396" x1="7.52121" y1="7.40262" x2="28.2592" y2="28.1396" gradientUnits="userSpaceOnUse">
<stop stop-color="#A0F2B7"/>
<stop offset="0.058" stop-color="#99EFAF"/>
<stop offset="0.2248" stop-color="#8AE89D"/>
<stop offset="0.3457" stop-color="#85E597"/>
<stop offset="0.3602" stop-color="#83E395"/>
<stop offset="0.535" stop-color="#6ED486"/>
<stop offset="0.6515" stop-color="#67CE80"/>
<stop offset="1" stop-color="#5FB772"/>
</linearGradient>
<linearGradient id="paint1_linear_30_33396" x1="17.0741" y1="2.34003" x2="17.0741" y2="33.0275" gradientUnits="userSpaceOnUse">
<stop stop-color="white"/>
<stop offset="0.2428" stop-color="#FDFDFD"/>
<stop offset="0.3863" stop-color="#F4F8F5"/>
<stop offset="0.5041" stop-color="#E6EEE8"/>
<stop offset="0.6079" stop-color="#D2E0D5"/>
<stop offset="0.7025" stop-color="#B8CEBC"/>
<stop offset="0.7905" stop-color="#98B89E"/>
<stop offset="0.8733" stop-color="#719E7B"/>
<stop offset="0.9499" stop-color="#468152"/>
<stop offset="1" stop-color="#266B34"/>
</linearGradient>
<linearGradient id="paint2_linear_30_33396" x1="17.0747" y1="17.9394" x2="17.0747" y2="23.7982" gradientUnits="userSpaceOnUse">
<stop offset="0.0014881" stop-color="#29472E"/>
<stop offset="1" stop-color="#468751"/>
</linearGradient>
<linearGradient id="paint3_linear_30_33396" x1="17.0835" y1="17.9394" x2="17.0835" y2="23.7982" gradientUnits="userSpaceOnUse">
<stop offset="0.0014881" stop-color="#29472E"/>
<stop offset="1" stop-color="#468751"/>
</linearGradient>
<linearGradient id="paint4_linear_30_33396" x1="17.0836" y1="18.0461" x2="17.0836" y2="22.1513" gradientUnits="userSpaceOnUse">
<stop stop-color="#1E3622"/>
<stop offset="1" stop-color="#29472E" stop-opacity="0"/>
</linearGradient>
<linearGradient id="paint5_linear_30_33396" x1="17.0941" y1="19.769" x2="17.0941" y2="22.9385" gradientUnits="userSpaceOnUse">
<stop stop-color="#FFCCCC"/>
<stop offset="0.5683" stop-color="#FF908A"/>
<stop offset="0.7337" stop-color="#F97973"/>
</linearGradient>
<clipPath id="clip0_30_33396">
<rect width="24" height="24" fill="white" transform="translate(5 5)"/>
</clipPath>
</defs>
</svg>
