<svg width="14" height="14" viewBox="0 0 14 14" fill="none" xmlns="http://www.w3.org/2000/svg">
<path fill-rule="evenodd" clip-rule="evenodd" d="M12.2307 7.2112C12.0479 7.17936 11.8598 7.22145 11.708 7.32821C11.5562 7.43498 11.453 7.59768 11.4211 7.78053C11.2395 8.82398 10.6949 9.76966 9.88351 10.4505C9.07216 11.1313 8.04628 11.5034 6.98715 11.501C4.50565 11.501 2.48673 9.48211 2.48673 7.00003C2.48673 4.51853 4.50565 2.49961 6.98715 2.49961C8.11531 2.49961 9.1764 2.91611 10.0059 3.66861L9.42723 4.24728C9.35153 4.3227 9.29823 4.41764 9.27327 4.52154C9.24831 4.62544 9.25267 4.73423 9.28586 4.8358C9.31906 4.93738 9.37978 5.02775 9.46128 5.09686C9.54278 5.16598 9.64185 5.21112 9.74748 5.22728L12.2045 5.60645C12.2942 5.62028 12.386 5.61276 12.4723 5.58447C12.5586 5.55619 12.637 5.50796 12.7012 5.44368C12.7653 5.37941 12.8134 5.3009 12.8416 5.21455C12.8697 5.1282 12.8771 5.03643 12.8631 4.9467L12.4845 2.49028C12.4682 2.38472 12.423 2.28573 12.3539 2.2043C12.2848 2.12286 12.1945 2.06216 12.093 2.02893C11.9915 1.9957 11.8828 1.99124 11.7789 2.01604C11.675 2.04085 11.58 2.09395 11.5045 2.16945L10.9958 2.6787C9.90865 1.66231 8.47543 1.09774 6.98715 1.09961C3.7339 1.09961 1.08673 3.74678 1.08673 7.00003C1.08673 10.2539 3.7339 12.9004 6.98715 12.9004C9.86181 12.9004 12.306 10.8483 12.8001 8.02086C12.8319 7.838 12.7898 7.64998 12.683 7.49814C12.5763 7.34631 12.4136 7.24309 12.2307 7.2112Z" fill="#AAAFB3"/>
</svg>
