<svg width="170" height="37" viewBox="0 0 170 37" fill="none" xmlns="http://www.w3.org/2000/svg">
<path d="M0.771393 18.581C0.771393 15.9608 1.19709 13.5937 2.04647 11.4757C2.89786 9.35981 4.07656 7.54731 5.58055 6.04025C7.08655 4.53318 8.89576 3.36571 11.0122 2.53582C13.1286 1.70794 15.474 1.29199 18.0482 1.29199C20.5783 1.29199 22.9136 1.71799 25.0501 2.56998C27.1866 3.42198 29.03 4.5995 30.5802 6.10656C32.1283 7.61161 33.3291 9.41406 34.1805 11.5099C35.0319 13.6057 35.4556 15.8764 35.4556 18.3218C35.4556 21.2033 34.9857 23.703 34.048 25.821C33.1102 27.9389 31.8894 29.7072 30.3834 31.1258C28.8774 32.5445 27.1645 33.6035 25.2469 34.3007C23.3273 35 21.4076 35.3496 19.488 35.3496C17.0442 35.3496 14.8957 34.8674 13.0423 33.9089C11.1869 32.9484 9.73711 31.6382 8.69095 29.9805H8.56043V35.3496H0.771393V18.581ZM18.0482 8.56207C15.1688 8.56207 12.8676 9.46832 11.1447 11.2808C9.41985 13.0933 8.56043 15.4403 8.56043 18.3218C8.56043 21.2033 9.42186 23.5503 11.1447 25.3628C12.8676 27.1753 15.1688 28.0816 18.0482 28.0816C20.9277 28.0816 23.2409 27.1753 24.9859 25.3628C26.7308 23.5523 27.6043 21.2033 27.6043 18.3218C27.6043 15.4403 26.7308 13.0933 24.9859 11.2808C23.2409 9.46832 20.9277 8.56207 18.0482 8.56207Z" fill="#7BE48F"/>
<path d="M100.051 34.4956V16.0271C100.051 13.4068 99.4284 11.5079 98.1854 10.3284C96.9425 9.14882 95.3823 8.56006 93.5068 8.56006C91.5871 8.56006 90.0149 9.13877 88.796 10.2962C87.5731 11.4536 86.9627 13.3646 86.9627 16.0271V34.4956H79.1757V16.0271C79.1757 13.4952 79.5251 11.3009 80.2219 9.44421C80.9186 7.58951 81.8684 6.06034 83.0692 4.86072C84.268 3.6611 85.6977 2.7649 87.3563 2.17614C89.0149 1.58738 90.802 1.29199 92.7237 1.29199C95.1674 1.29199 97.3381 1.78229 99.2356 2.7649C101.133 3.7475 102.671 5.15611 103.85 6.9887H103.981C105.115 5.1541 106.631 3.7475 108.529 2.7649C110.422 1.78229 112.615 1.29199 115.103 1.29199C117.022 1.29199 118.812 1.58738 120.47 2.17614C122.127 2.7649 123.557 3.6611 124.757 4.86072C125.956 6.06235 126.906 7.58951 127.605 9.44421C128.301 11.3009 128.651 13.4952 128.651 16.0271V34.4956H120.864V16.0271C120.864 13.3646 120.251 11.4536 119.03 10.2962C117.81 9.14078 116.237 8.56006 114.32 8.56006C112.442 8.56006 110.894 9.14882 109.673 10.3284C108.452 11.5079 107.842 13.4068 107.842 16.0271V34.4956H100.051Z" fill="#7BE48F"/>
<path d="M141.933 21.0707V21.2013C142.457 23.3856 143.513 25.1096 145.107 26.3756C146.7 27.6415 148.718 28.2745 151.161 28.2745C154.651 28.2745 157.203 27.2497 158.818 25.196H167.129C165.908 28.2966 163.9 30.7621 161.109 32.5967C158.316 34.4293 155.001 35.3476 151.161 35.3476C148.587 35.3476 146.242 34.9216 144.125 34.0716C142.009 33.2196 140.176 32.0401 138.627 30.5351C137.079 29.028 135.879 27.2276 135.027 25.1317C134.176 23.0359 133.752 20.7673 133.752 18.3198C133.752 15.8743 134.178 13.6037 135.027 11.5079C135.879 9.41205 137.077 7.61161 138.627 6.10455C140.176 4.59749 142.009 3.41997 144.125 2.56797C146.24 1.71799 148.585 1.29199 151.159 1.29199C153.689 1.29199 156.023 1.71799 158.161 2.56998C160.298 3.42198 162.121 4.5995 163.627 6.10656C165.131 7.61161 166.31 9.41406 167.161 11.5099C168.013 13.6057 168.436 15.8764 168.436 18.3218V21.0727H141.933V21.0707ZM151.159 8.36515C148.846 8.36515 146.917 8.93381 145.366 10.0671C143.818 11.2024 142.738 12.7517 142.127 14.7169V14.8475H160.189V14.7169C159.577 12.7517 158.487 11.2024 156.916 10.0671C155.348 8.93381 153.428 8.36515 151.159 8.36515Z" fill="#7BE48F"/>
<path d="M73.2334 21.2339C72.6571 19.2647 72.6571 17.1709 73.2334 15.2017C75.6169 7.05949 68.0628 -0.497941 59.9284 1.88523C57.9606 2.46193 55.8682 2.46193 53.9004 1.88523C45.766 -0.499951 38.2119 7.05949 40.5954 15.1996C41.1717 17.1689 41.1717 19.2627 40.5954 21.2319C38.2119 29.3721 45.766 36.9315 53.9004 34.5463C55.8682 33.9696 57.9606 33.9696 59.9284 34.5463C68.0628 36.9315 75.6169 29.3741 73.2334 21.2339ZM66.3058 19.9519C67.6773 24.6359 63.33 28.9863 58.6493 27.6138C57.5168 27.2823 56.312 27.2823 55.1795 27.6138C50.4988 28.9863 46.1515 24.6359 47.523 19.9519C47.8543 18.8186 47.8543 17.613 47.523 16.4796C46.1515 11.7957 50.4988 7.44529 55.1795 8.81773C56.312 9.14928 57.5168 9.14928 58.6493 8.81773C63.33 7.44529 67.6773 11.7957 66.3058 16.4796C65.9745 17.615 65.9745 18.8186 66.3058 19.9519Z" fill="#7BE48F"/>
</svg>
