<svg width="54" height="54" viewBox="0 0 54 54" fill="none" xmlns="http://www.w3.org/2000/svg">
<g clip-path="url(#clip0_3680_32502)">
<path d="M53.0799 31.7338C56.9026 44.7847 44.7847 56.9026 31.7338 53.0799C28.5767 52.1549 25.2191 52.1549 22.0619 53.0799C9.01105 56.9026 -3.10686 44.7847 0.715909 31.7338C1.64086 28.5767 1.64086 25.2191 0.715909 22.0619C-3.10686 9.01106 9.01105 -3.10686 22.0619 0.715909C25.2191 1.64086 28.5767 1.64086 31.7338 0.715909C44.7847 -3.10686 56.9026 9.01106 53.0799 22.0619C52.1549 25.2217 52.1549 28.5767 53.0799 31.7338Z" fill="url(#paint0_linear_3680_32502)"/>
<path opacity="0.8" d="M36.6531 0.00195312V1.53908C41.5024 1.53908 46.1726 3.9076 49.1426 7.87473C52.1099 11.8338 53.0055 16.8489 51.6047 21.6314C50.5942 25.0772 50.5942 28.7209 51.6047 32.1667C53.0055 36.9492 52.1072 41.9642 49.1426 45.9233C46.1699 49.8905 41.5024 52.259 36.6531 52.259C35.1587 52.259 33.6483 52.0398 32.1673 51.604C30.4565 51.1015 28.6841 50.8475 26.901 50.8475C25.1179 50.8475 23.3456 51.1015 21.6347 51.604C20.1537 52.0371 18.6433 52.259 17.1489 52.259C12.2996 52.259 7.62942 49.8905 4.65942 45.9233C1.69209 41.9642 0.796539 36.9492 2.19733 32.1667C3.20783 28.7209 3.20783 25.0772 2.19733 21.6314C0.796539 16.8489 1.69476 11.8338 4.65942 7.87473C7.63209 3.9076 12.2996 1.53908 17.1489 1.53908C18.6433 1.53908 20.1537 1.75829 21.6347 2.19403C23.3456 2.69661 25.1179 2.95057 26.901 2.95057C28.6841 2.95057 30.4565 2.69661 32.17 2.19403C33.651 1.76096 35.1614 1.53908 36.6557 1.53908L36.6531 0.00195312ZM36.6531 0.00195312C35.0491 0.00195312 33.3997 0.229181 31.7343 0.718389C30.1544 1.18086 28.5263 1.41077 26.8983 1.41077C25.2703 1.41077 23.6423 1.18086 22.0624 0.718389C20.3969 0.231854 18.7475 0.00195312 17.1436 0.00195312C6.18051 0.00195312 -2.61989 10.679 0.716347 22.0644C1.6413 25.2216 1.6413 28.5792 0.716347 31.7363C-2.61989 43.1218 6.17783 53.7988 17.1436 53.7988C18.7475 53.7988 20.3969 53.5716 22.0624 53.0824C23.6423 52.6199 25.2703 52.39 26.8983 52.39C28.5263 52.39 30.1544 52.6199 31.7343 53.0824C33.3997 53.5689 35.0491 53.7988 36.6531 53.7988C47.6161 53.7988 56.4165 43.1218 53.0803 31.7363C52.1554 28.5792 52.1554 25.2216 53.0803 22.0644C56.4165 10.6763 47.6188 0.00195312 36.6531 0.00195312Z" fill="url(#paint1_linear_3680_32502)"/>
<path d="M38.1854 29.3546C38.1854 34.4552 33.1329 38.5908 26.8988 38.5908C20.6648 38.5908 15.6123 34.4552 15.6123 29.3546H38.1854Z" fill="url(#paint2_linear_3680_32502)"/>
<path d="M38.1854 29.3546C38.1854 34.4552 33.1329 38.5908 26.8988 38.5908C20.6648 38.5908 15.6123 34.4552 15.6123 29.3546H38.1854Z" fill="url(#paint3_linear_3680_32502)"/>
<path d="M19.7593 29.3546V35.4309V35.7865V38.572C19.7593 42.5151 22.9565 45.715 26.9022 45.715C30.8453 45.715 34.0452 42.5178 34.0452 38.572V35.7865V35.4309V29.3546H19.7593Z" fill="url(#paint4_linear_3680_32502)"/>
<rect x="25.4062" y="29.9407" width="2.94059" height="13.099" fill="url(#paint5_radial_3680_32502)"/>
<path d="M38.1854 29.3546C38.1854 34.4552 33.1329 38.5908 26.8988 38.5908C20.6648 38.5908 15.6123 34.4552 15.6123 29.3546H38.1854Z" fill="url(#paint6_linear_3680_32502)"/>
<path d="M35.139 24.9624C36.481 24.9624 37.569 23.8745 37.569 22.5324C37.569 21.1904 36.481 20.1024 35.139 20.1024C33.7969 20.1024 32.709 21.1904 32.709 22.5324C32.709 23.8745 33.7969 24.9624 35.139 24.9624Z" fill="#1A211B"/>
<path d="M18.6605 24.9624C20.0025 24.9624 21.0905 23.8745 21.0905 22.5324C21.0905 21.1904 20.0025 20.1024 18.6605 20.1024C17.3184 20.1024 16.2305 21.1904 16.2305 22.5324C16.2305 23.8745 17.3184 24.9624 18.6605 24.9624Z" fill="#1A211B"/>
<path opacity="0.5" d="M34.3143 22.324C34.6863 22.324 34.9879 22.0224 34.9879 21.6503C34.9879 21.2783 34.6863 20.9767 34.3143 20.9767C33.9422 20.9767 33.6406 21.2783 33.6406 21.6503C33.6406 22.0224 33.9422 22.324 34.3143 22.324Z" fill="#5FB772"/>
<path opacity="0.5" d="M17.8494 22.324C18.2215 22.324 18.5231 22.0224 18.5231 21.6503C18.5231 21.2783 18.2215 20.9767 17.8494 20.9767C17.4774 20.9767 17.1758 21.2783 17.1758 21.6503C17.1758 22.0224 17.4774 22.324 17.8494 22.324Z" fill="#5FB772"/>
</g>
<defs>
<linearGradient id="paint0_linear_3680_32502" x1="5.40554" y1="5.40645" x2="52.0637" y2="52.0646" gradientUnits="userSpaceOnUse">
<stop stop-color="#A0F2B7"/>
<stop offset="0.058" stop-color="#99EFAF"/>
<stop offset="0.2248" stop-color="#8AE89D"/>
<stop offset="0.3457" stop-color="#85E597"/>
<stop offset="0.3602" stop-color="#83E395"/>
<stop offset="0.535" stop-color="#6ED486"/>
<stop offset="0.6515" stop-color="#67CE80"/>
<stop offset="1" stop-color="#5FB772"/>
</linearGradient>
<linearGradient id="paint1_linear_3680_32502" x1="26.899" y1="-5.98403" x2="26.899" y2="63.0593" gradientUnits="userSpaceOnUse">
<stop stop-color="white"/>
<stop offset="0.2428" stop-color="#FDFDFD"/>
<stop offset="0.3863" stop-color="#F4F8F5"/>
<stop offset="0.5041" stop-color="#E6EEE8"/>
<stop offset="0.6079" stop-color="#D2E0D5"/>
<stop offset="0.7025" stop-color="#B8CEBC"/>
<stop offset="0.7905" stop-color="#98B89E"/>
<stop offset="0.8733" stop-color="#719E7B"/>
<stop offset="0.9499" stop-color="#468152"/>
<stop offset="1" stop-color="#266B34"/>
</linearGradient>
<linearGradient id="paint2_linear_3680_32502" x1="26.8969" y1="29.1132" x2="26.8969" y2="42.2949" gradientUnits="userSpaceOnUse">
<stop offset="0.0014881" stop-color="#29472E"/>
<stop offset="1" stop-color="#468751"/>
</linearGradient>
<linearGradient id="paint3_linear_3680_32502" x1="26.8969" y1="29.1132" x2="26.8969" y2="42.2949" gradientUnits="userSpaceOnUse">
<stop offset="0.0014881" stop-color="#29472E"/>
<stop offset="1" stop-color="#468751"/>
</linearGradient>
<linearGradient id="paint4_linear_3680_32502" x1="26.9003" y1="25.6007" x2="26.9003" y2="52.3635" gradientUnits="userSpaceOnUse">
<stop offset="0.1931" stop-color="#FFCCCC"/>
<stop offset="0.6304" stop-color="#FF908A"/>
<stop offset="0.7337" stop-color="#F97973"/>
</linearGradient>
<radialGradient id="paint5_radial_3680_32502" cx="0" cy="0" r="1" gradientUnits="userSpaceOnUse" gradientTransform="translate(26.8765 36.4902) rotate(90) scale(6.5495 1.4703)">
<stop stop-color="#FC837D"/>
<stop offset="1" stop-color="#FC837D" stop-opacity="0"/>
</radialGradient>
<linearGradient id="paint6_linear_3680_32502" x1="26.8969" y1="24.9951" x2="26.8969" y2="42.2949" gradientUnits="userSpaceOnUse">
<stop stop-color="#511A1A"/>
<stop offset="0.21875" stop-color="#511A1A" stop-opacity="0.757576"/>
<stop offset="0.598462" stop-color="#511A1A" stop-opacity="0.1"/>
<stop offset="0.695769" stop-color="#511A1A" stop-opacity="0"/>
</linearGradient>
<clipPath id="clip0_3680_32502">
<rect width="54" height="54" fill="white"/>
</clipPath>
</defs>
</svg>
