<svg width="20" height="20" viewBox="0 0 20 20" fill="none" xmlns="http://www.w3.org/2000/svg">
<g clip-path="url(#clip0_2538_45624)">
<path d="M19.1667 9.99968C19.1667 4.91634 15.0834 0.833008 10.0001 0.833008C4.91675 0.833008 0.833412 4.91634 0.833412 9.99968C0.833412 15.083 4.91675 19.1663 10.0001 19.1663C15.0834 19.1663 19.1667 15.083 19.1667 9.99968ZM9.16675 13.7497V8.24968L7.25008 10.1663C6.91675 10.4997 6.41675 10.4997 6.08341 10.1663C5.91675 9.99968 5.83341 9.74968 5.83341 9.58301C5.83341 9.41634 5.91675 9.16634 6.08341 8.99968L9.41675 5.66634C9.75008 5.33301 10.2501 5.33301 10.5834 5.66634L13.9167 8.99968C14.2501 9.33301 14.2501 9.83301 13.9167 10.1663C13.5834 10.4997 13.0834 10.4997 12.7501 10.1663L10.8334 8.24968V13.7497C10.8334 14.2497 10.5001 14.583 10.0001 14.583C9.50008 14.583 9.16675 14.1663 9.16675 13.7497Z" fill="#7BE48F"/>
</g>
<defs>
<clipPath id="clip0_2538_45624">
<rect width="20" height="20" fill="white"/>
</clipPath>
</defs>
</svg>
