<svg width="16" height="16" viewBox="0 0 16 16" fill="none" xmlns="http://www.w3.org/2000/svg">
<path fill-rule="evenodd" clip-rule="evenodd" d="M7.26941 14.3512C7.71341 14.6446 8.28608 14.6446 8.72941 14.3512C10.1394 13.4206 13.2094 11.1959 14.5321 8.70655C16.2754 5.42255 14.2281 2.14722 11.5214 2.14722C9.97875 2.14722 9.05075 2.95322 8.53741 3.64588C8.47576 3.73072 8.3949 3.79976 8.30145 3.84737C8.20801 3.89497 8.10462 3.91979 7.99975 3.91979C7.89487 3.91979 7.79149 3.89497 7.69804 3.84737C7.60459 3.79976 7.52374 3.73072 7.46208 3.64588C6.94875 2.95322 6.02075 2.14722 4.47808 2.14722C1.77141 2.14722 -0.275918 5.42255 1.46808 8.70655C2.78941 11.1959 5.86075 13.4206 7.26941 14.3512Z" fill="#FF908A"/>
</svg>
