<svg width="23" height="22" viewBox="0 0 23 22" fill="none" xmlns="http://www.w3.org/2000/svg">
<path fill-rule="evenodd" clip-rule="evenodd" d="M5.01213 12.8331C4.76036 12.8331 4.51108 12.7856 4.2785 12.6933C4.04593 12.6011 3.83462 12.466 3.65664 12.2957C3.47866 12.1254 3.3375 11.9232 3.24121 11.7007C3.14492 11.4781 3.0954 11.2397 3.09546 10.9989C3.09552 10.758 3.14517 10.5196 3.24158 10.2971C3.33798 10.0747 3.47925 9.87255 3.65732 9.70231C3.83538 9.53207 4.04676 9.39704 4.27939 9.30494C4.51201 9.21284 4.76132 9.16547 5.01308 9.16553C5.52154 9.16565 6.00913 9.35897 6.36857 9.70296C6.72801 10.0469 6.92988 10.5134 6.92975 10.9998C6.92962 11.4861 6.72752 11.9525 6.36789 12.2963C6.00827 12.6401 5.52058 12.8332 5.01213 12.8331ZM11.501 12.8331C10.9927 12.8331 10.5052 12.64 10.1457 12.2961C9.78627 11.9523 9.58433 11.486 9.58433 10.9998C9.58433 10.5135 9.78627 10.0472 10.1457 9.70342C10.5052 9.3596 10.9927 9.16644 11.501 9.16644C12.0093 9.16644 12.4968 9.3596 12.8563 9.70342C13.2157 10.0472 13.4177 10.5135 13.4177 10.9998C13.4177 11.486 13.2157 11.9523 12.8563 12.2961C12.4968 12.64 12.0093 12.8331 11.501 12.8331ZM17.9889 12.8331C17.7372 12.8331 17.4879 12.7856 17.2553 12.6933C17.0227 12.6011 16.8114 12.466 16.6334 12.2957C16.4555 12.1254 16.3143 11.9232 16.218 11.7007C16.1217 11.4781 16.0722 11.2397 16.0723 10.9989C16.0723 10.758 16.122 10.5196 16.2184 10.2971C16.3148 10.0747 16.456 9.87255 16.6341 9.70231C16.8122 9.53207 17.0236 9.39704 17.2562 9.30494C17.4888 9.21284 17.7381 9.16547 17.9899 9.16553C18.4983 9.16565 18.9859 9.35897 19.3454 9.70296C19.7048 10.0469 19.9067 10.5134 19.9065 10.9998C19.9064 11.4861 19.7043 11.9525 19.3447 12.2963C18.9851 12.6401 18.4974 12.8332 17.9889 12.8331Z" fill="#CFD3D6"/>
</svg>
