<svg width="54" height="54" viewBox="0 0 54 54" fill="none" xmlns="http://www.w3.org/2000/svg">
<g clip-path="url(#clip0_3680_32499)">
<path d="M53.3435 31.7338C57.1663 44.7847 45.0484 56.9026 31.9975 53.0799C28.8403 52.1549 25.4827 52.1549 22.3256 53.0799C9.27472 56.9026 -2.84319 44.7847 0.979581 31.7338C1.90453 28.5767 1.90453 25.2191 0.979581 22.0619C-2.84319 9.01106 9.27472 -3.10686 22.3256 0.715909C25.4827 1.64086 28.8403 1.64086 31.9975 0.715909C45.0484 -3.10686 57.1663 9.01106 53.3435 22.0619C52.4186 25.2191 52.4186 28.5767 53.3435 31.7338Z" fill="url(#paint0_linear_3680_32499)"/>
<path opacity="0.8" d="M36.9167 0.00219727V1.53933C41.766 1.53933 46.4362 3.90784 49.4062 7.87497C52.3736 11.8341 53.2691 16.8491 51.8683 21.6316C50.8578 25.0774 50.8578 28.7211 51.8683 32.167C53.2691 36.9494 52.3709 41.9645 49.4062 45.9236C46.4336 49.8907 41.766 52.2592 36.9167 52.2592C35.4224 52.2592 33.912 52.04 32.431 51.6043C30.7201 51.1017 28.9477 50.8477 27.1647 50.8477C25.3816 50.8477 23.6092 51.1017 21.8957 51.6043C20.4147 52.0373 18.9043 52.2592 17.4099 52.2592C12.5606 52.2592 7.89041 49.8907 4.92041 45.9236C1.95309 41.9645 1.05752 36.9494 2.45831 32.167C3.46881 28.7211 3.46881 25.0774 2.45831 21.6316C1.05752 16.8491 1.95576 11.8341 4.92041 7.87497C7.89309 3.90784 12.5606 1.53933 17.4099 1.53933C18.9043 1.53933 20.4147 1.75853 21.8957 2.19428C23.6066 2.69685 25.3789 2.95081 27.162 2.95081C28.9451 2.95081 30.7174 2.69685 32.4283 2.19428C33.9093 1.76121 35.4197 1.53933 36.9141 1.53933L36.9167 0.00219727ZM36.9167 0.00219727C35.3128 0.00219727 33.6634 0.229425 31.9979 0.718633C30.418 1.18111 28.79 1.41101 27.162 1.41101C25.534 1.41101 23.906 1.18111 22.3261 0.718633C20.6606 0.232098 19.0112 0.00219727 17.4072 0.00219727C6.44417 0.00219727 -2.35622 10.6792 0.98002 22.0647C1.90497 25.2218 1.90497 28.5794 0.98002 31.7366C-2.35622 43.122 6.44149 53.799 17.4072 53.799C19.0112 53.799 20.6606 53.5718 22.3261 53.0826C23.906 52.6201 25.534 52.3902 27.162 52.3902C28.79 52.3902 30.418 52.6201 31.9979 53.0826C33.6634 53.5691 35.3128 53.799 36.9167 53.799C47.8798 53.799 56.6802 43.122 53.344 31.7366C52.419 28.5794 52.419 25.2218 53.344 22.0647C56.6802 10.6766 47.8825 0.00219727 36.9167 0.00219727Z" fill="url(#paint1_linear_3680_32499)"/>
<path d="M27.388 38.4255C30.0204 38.4255 32.1545 35.808 32.1545 32.5791C32.1545 29.3502 30.0204 26.7327 27.388 26.7327C24.7556 26.7327 22.6216 29.3502 22.6216 32.5791C22.6216 35.808 24.7556 38.4255 27.388 38.4255Z" fill="url(#paint2_radial_3680_32499)"/>
<path d="M27.388 38.4518C30.0204 38.4518 32.1545 35.8342 32.1545 32.6053C32.1545 29.3765 30.0204 26.7589 27.388 26.7589C24.7556 26.7589 22.6216 29.3765 22.6216 32.6053C22.6216 35.8342 24.7556 38.4518 27.388 38.4518Z" fill="url(#paint3_linear_3680_32499)" fill-opacity="0.8"/>
<path d="M35.4032 24.9597C36.7452 24.9597 37.8332 23.8718 37.8332 22.5297C37.8332 21.1877 36.7452 20.0997 35.4032 20.0997C34.0611 20.0997 32.9731 21.1877 32.9731 22.5297C32.9731 23.8718 34.0611 24.9597 35.4032 24.9597Z" fill="#1A211B"/>
<path d="M18.9286 24.9597C20.2706 24.9597 21.3585 23.8718 21.3585 22.5297C21.3585 21.1877 20.2706 20.0997 18.9286 20.0997C17.5865 20.0997 16.4985 21.1877 16.4985 22.5297C16.4985 23.8718 17.5865 24.9597 18.9286 24.9597Z" fill="#1A211B"/>
<path opacity="0.5" d="M34.5789 22.3212C34.951 22.3212 35.2526 22.0196 35.2526 21.6475C35.2526 21.2755 34.951 20.9739 34.5789 20.9739C34.2069 20.9739 33.9053 21.2755 33.9053 21.6475C33.9053 22.0196 34.2069 22.3212 34.5789 22.3212Z" fill="#5FB772"/>
<path opacity="0.5" d="M18.1146 22.3212C18.4866 22.3212 18.7883 22.0196 18.7883 21.6475C18.7883 21.2755 18.4866 20.9739 18.1146 20.9739C17.7425 20.9739 17.4409 21.2755 17.4409 21.6475C17.4409 22.0196 17.7425 22.3212 18.1146 22.3212Z" fill="#5FB772"/>
</g>
<defs>
<linearGradient id="paint0_linear_3680_32499" x1="5.66916" y1="5.4053" x2="52.3273" y2="52.0634" gradientUnits="userSpaceOnUse">
<stop stop-color="#A0F2B7"/>
<stop offset="0.058" stop-color="#99EFAF"/>
<stop offset="0.2248" stop-color="#8AE89D"/>
<stop offset="0.3457" stop-color="#85E597"/>
<stop offset="0.3602" stop-color="#83E395"/>
<stop offset="0.535" stop-color="#6ED486"/>
<stop offset="0.6515" stop-color="#67CE80"/>
<stop offset="1" stop-color="#5FB772"/>
</linearGradient>
<linearGradient id="paint1_linear_3680_32499" x1="27.1626" y1="-5.98491" x2="27.1626" y2="63.0584" gradientUnits="userSpaceOnUse">
<stop stop-color="white"/>
<stop offset="0.2428" stop-color="#FDFDFD"/>
<stop offset="0.3863" stop-color="#F4F8F5"/>
<stop offset="0.5041" stop-color="#E6EEE8"/>
<stop offset="0.6079" stop-color="#D2E0D5"/>
<stop offset="0.7025" stop-color="#B8CEBC"/>
<stop offset="0.7905" stop-color="#98B89E"/>
<stop offset="0.8733" stop-color="#719E7B"/>
<stop offset="0.9499" stop-color="#468152"/>
<stop offset="1" stop-color="#266B34"/>
</linearGradient>
<radialGradient id="paint2_radial_3680_32499" cx="0" cy="0" r="1" gradientUnits="userSpaceOnUse" gradientTransform="translate(27.388 32.5791) rotate(89.6124) scale(6.71807 5.47706)">
<stop stop-color="#1F4925"/>
<stop offset="1" stop-color="#143119"/>
</radialGradient>
<linearGradient id="paint3_linear_3680_32499" x1="27.3869" y1="26.979" x2="27.3869" y2="39.7525" gradientUnits="userSpaceOnUse">
<stop stop-color="#143018"/>
<stop offset="1" stop-color="#468751"/>
</linearGradient>
<clipPath id="clip0_3680_32499">
<rect width="54" height="54" fill="white"/>
</clipPath>
</defs>
</svg>
