<svg width="34" height="34" viewBox="0 0 34 34" fill="none" xmlns="http://www.w3.org/2000/svg">
<circle cx="17" cy="17" r="17" fill="#E5FAE9"/>
<g clip-path="url(#clip0_30_33683)">
<path d="M28.591 19.1039C30.2901 24.9043 24.9043 30.2901 19.1039 28.5911C17.7008 28.18 16.2085 28.18 14.8053 28.5911C9.00492 30.2901 3.61917 24.9043 5.31818 19.1039C5.72927 17.7008 5.72927 16.2085 5.31818 14.8053C3.61917 9.00491 9.00492 3.61917 14.8053 5.31818C16.2085 5.72927 17.7008 5.72927 19.1039 5.31818C24.9043 3.61917 30.2901 9.00491 28.591 14.8053C28.18 16.2097 28.18 17.7008 28.591 19.1039Z" fill="url(#paint0_linear_30_33683)"/>
<path opacity="0.8" d="M21.2903 5.00098V5.68414C23.4455 5.68414 25.5211 6.73682 26.8411 8.49999C28.16 10.2596 28.558 12.4885 27.9354 14.614C27.4863 16.1455 27.4863 17.7649 27.9354 19.2964C28.558 21.422 28.1588 23.6509 26.8411 25.4105C25.52 27.1737 23.4455 28.2263 21.2903 28.2263C20.6261 28.2263 19.9548 28.1289 19.2966 27.9352C18.5362 27.7119 17.7485 27.599 16.956 27.599C16.1635 27.599 15.3758 27.7119 14.6154 27.9352C13.9572 28.1277 13.2859 28.2263 12.6217 28.2263C10.4665 28.2263 8.39085 27.1737 7.07085 25.4105C5.75204 23.6509 5.35402 21.422 5.9766 19.2964C6.4257 17.7649 6.4257 16.1455 5.9766 14.614C5.35402 12.4885 5.75323 10.2596 7.07085 8.49999C8.39204 6.73682 10.4665 5.68414 12.6217 5.68414C13.2859 5.68414 13.9572 5.78157 14.6154 5.97523C15.3758 6.1986 16.1635 6.31147 16.956 6.31147C17.7485 6.31147 18.5362 6.1986 19.2978 5.97523C19.956 5.78276 20.6273 5.68414 21.2914 5.68414L21.2903 5.00098ZM21.2903 5.00098C20.5774 5.00098 19.8443 5.10197 19.1041 5.31939C18.4019 5.52494 17.6784 5.62712 16.9548 5.62712C16.2312 5.62712 15.5077 5.52494 14.8055 5.31939C14.0653 5.10315 13.3322 5.00098 12.6194 5.00098C7.74689 5.00098 3.8356 9.74632 5.31838 14.8065C5.72947 16.2097 5.72947 17.702 5.31838 19.1051C3.8356 24.1653 7.7457 28.9107 12.6194 28.9107C13.3322 28.9107 14.0653 28.8097 14.8055 28.5923C15.5077 28.3867 16.2312 28.2845 16.9548 28.2845C17.6784 28.2845 18.4019 28.3867 19.1041 28.5923C19.8443 28.8085 20.5774 28.9107 21.2903 28.9107C26.1627 28.9107 30.074 24.1653 28.5912 19.1051C28.1802 17.702 28.1802 16.2097 28.5912 14.8065C30.074 9.74514 26.1639 5.00098 21.2903 5.00098Z" fill="url(#paint1_linear_30_33683)"/>
<path d="M18.9961 15.4742C19.0911 14.8088 19.7826 14.292 20.6226 14.292C21.4614 14.292 22.1529 14.8088 22.2492 15.4742" stroke="#1A211B" stroke-width="0.712871" stroke-miterlimit="10" stroke-linecap="round"/>
<path d="M11.6621 15.4742C11.7572 14.8088 12.4486 14.292 13.2886 14.292C14.1275 14.292 14.8189 14.8088 14.9152 15.4742" stroke="#1A211B" stroke-width="0.712871" stroke-miterlimit="10" stroke-linecap="round"/>
<path d="M19.1532 18.6952C18.9702 19.5471 18.0613 20.1934 16.9682 20.1934C15.8965 20.1934 15.0019 19.5708 14.7939 18.7439" stroke="#1A211B" stroke-width="0.712871" stroke-miterlimit="10" stroke-linecap="round"/>
<g filter="url(#filter0_d_30_33683)">
<path d="M23.5106 12.7246C19.5656 10.22 21.27 8.37162 21.318 8.32361C21.3341 8.3076 21.3501 8.2916 21.3661 8.26759C21.5981 8.01153 21.9342 7.8595 22.3103 7.8595C22.8624 7.8595 23.3265 8.20358 23.5106 8.69169C23.6946 8.20358 24.1667 7.8595 24.7108 7.8595C25.0869 7.8595 25.415 8.01953 25.6551 8.26759C25.6711 8.2836 25.6871 8.2996 25.7031 8.32361C25.7591 8.37162 27.4555 10.22 23.5106 12.7246Z" fill="url(#paint2_linear_30_33683)"/>
</g>
<path d="M24.7195 8.0116C25.0396 8.0116 25.3276 8.13963 25.5437 8.37168L25.5917 8.4277C25.6077 8.4437 26.0318 8.89981 25.9438 9.65999C25.8318 10.5802 24.9916 11.5724 23.5112 12.5247C22.0389 11.5724 21.1987 10.5802 21.0866 9.65999C20.9906 8.89981 21.4227 8.4357 21.4467 8.41169L21.4867 8.36368C21.7028 8.13163 21.9989 8.0036 22.3109 8.0036C22.775 8.0036 23.1991 8.29967 23.3672 8.73177C23.3912 8.79578 23.4472 8.83579 23.5192 8.83579C23.5912 8.83579 23.6472 8.79578 23.6713 8.73177C23.8233 8.30767 24.2474 8.0116 24.7195 8.0116ZM24.7195 7.85156C24.1674 7.85156 23.7033 8.19564 23.5192 8.68376C23.3352 8.19564 22.8631 7.85156 22.3189 7.85156C21.9428 7.85156 21.6148 8.0116 21.3747 8.25966C21.3587 8.27566 21.3427 8.29167 21.3267 8.31567C21.2787 8.37168 19.5663 10.2121 23.5192 12.7167C27.4641 10.2121 25.7677 8.36368 25.7197 8.31567C25.7037 8.29967 25.6877 8.28366 25.6717 8.25966C25.4237 8.0116 25.0876 7.85156 24.7195 7.85156Z" fill="url(#paint3_linear_30_33683)"/>
<path d="M24.7195 8.0116C25.0396 8.0116 25.3276 8.13963 25.5437 8.37168L25.5917 8.4277C25.6077 8.4437 26.0318 8.89981 25.9438 9.65999C25.8318 10.5802 24.9916 11.5724 23.5112 12.5247C22.0389 11.5724 21.1987 10.5802 21.0866 9.65999C20.9906 8.89981 21.4227 8.4357 21.4467 8.41169L21.4867 8.36368C21.7028 8.13163 21.9989 8.0036 22.3109 8.0036C22.775 8.0036 23.1991 8.29967 23.3672 8.73177C23.3912 8.79578 23.4472 8.83579 23.5192 8.83579C23.5912 8.83579 23.6472 8.79578 23.6713 8.73177C23.8233 8.30767 24.2474 8.0116 24.7195 8.0116ZM24.7195 7.85156C24.1674 7.85156 23.7033 8.19564 23.5192 8.68376C23.3352 8.19564 22.8631 7.85156 22.3189 7.85156C21.9428 7.85156 21.6148 8.0116 21.3747 8.25966C21.3587 8.27566 21.3427 8.29167 21.3267 8.31567C21.2787 8.37168 19.5663 10.2121 23.5192 12.7167C27.4641 10.2121 25.7677 8.36368 25.7197 8.31567C25.7037 8.29967 25.6877 8.28366 25.6717 8.25966C25.4237 8.0116 25.0876 7.85156 24.7195 7.85156Z" fill="url(#paint4_linear_30_33683)"/>
<g filter="url(#filter1_d_30_33683)">
<path d="M22.6766 26.6483C18.7317 24.1438 20.4361 22.2953 20.4841 22.2473C20.5001 22.2313 20.5161 22.2153 20.5321 22.1913C20.7641 21.9352 21.1002 21.7832 21.4763 21.7832C22.0284 21.7832 22.4925 22.1273 22.6766 22.6154C22.8606 22.1273 23.3327 21.7832 23.8769 21.7832C24.2529 21.7832 24.581 21.9432 24.8211 22.1913C24.8371 22.2073 24.8531 22.2233 24.8691 22.2473C24.9251 22.2953 26.6215 24.1438 22.6766 26.6483Z" fill="url(#paint5_linear_30_33683)"/>
</g>
<path d="M23.8855 21.9354C24.2056 21.9354 24.4937 22.0635 24.7097 22.2955L24.7577 22.3515C24.7737 22.3675 25.1978 22.8236 25.1098 23.5838C24.9978 24.504 24.1576 25.4963 22.6772 26.4485C21.2049 25.4963 20.3647 24.504 20.2527 23.5838C20.1566 22.8236 20.5887 22.3595 20.6127 22.3355L20.6528 22.2875C20.8688 22.0555 21.1649 21.9274 21.4769 21.9274C21.9411 21.9274 22.3652 22.2235 22.5332 22.6556C22.5572 22.7196 22.6132 22.7596 22.6852 22.7596C22.7572 22.7596 22.8133 22.7196 22.8373 22.6556C22.9893 22.2315 23.4134 21.9354 23.8855 21.9354ZM23.8855 21.7754C23.3334 21.7754 22.8693 22.1195 22.6852 22.6076C22.5012 22.1195 22.0291 21.7754 21.485 21.7754C21.1089 21.7754 20.7808 21.9354 20.5407 22.1835C20.5247 22.1995 20.5087 22.2155 20.4927 22.2395C20.4447 22.2955 18.7323 24.1359 22.6852 26.6405C26.6302 24.1359 24.9338 22.2875 24.8857 22.2395C24.8697 22.2235 24.8537 22.2075 24.8377 22.1835C24.5897 21.9354 24.2536 21.7754 23.8855 21.7754Z" fill="url(#paint6_linear_30_33683)"/>
<path d="M23.8855 21.9354C24.2056 21.9354 24.4937 22.0635 24.7097 22.2955L24.7577 22.3515C24.7737 22.3675 25.1978 22.8236 25.1098 23.5838C24.9978 24.504 24.1576 25.4963 22.6772 26.4485C21.2049 25.4963 20.3647 24.504 20.2527 23.5838C20.1566 22.8236 20.5887 22.3595 20.6127 22.3355L20.6528 22.2875C20.8688 22.0555 21.1649 21.9274 21.4769 21.9274C21.9411 21.9274 22.3652 22.2235 22.5332 22.6556C22.5572 22.7196 22.6132 22.7596 22.6852 22.7596C22.7572 22.7596 22.8133 22.7196 22.8373 22.6556C22.9893 22.2315 23.4134 21.9354 23.8855 21.9354ZM23.8855 21.7754C23.3334 21.7754 22.8693 22.1195 22.6852 22.6076C22.5012 22.1195 22.0291 21.7754 21.485 21.7754C21.1089 21.7754 20.7808 21.9354 20.5407 22.1835C20.5247 22.1995 20.5087 22.2155 20.4927 22.2395C20.4447 22.2955 18.7323 24.1359 22.6852 26.6405C26.6302 24.1359 24.9338 22.2875 24.8857 22.2395C24.8697 22.2235 24.8537 22.2075 24.8377 22.1835C24.5897 21.9354 24.2536 21.7754 23.8855 21.7754Z" fill="url(#paint7_linear_30_33683)"/>
<g filter="url(#filter2_d_30_33683)">
<path d="M9.11017 22.6015C5.16525 20.0969 6.86965 18.2484 6.91766 18.2004C6.93366 18.1844 6.94967 18.1684 6.96567 18.1444C7.19772 17.8884 7.5338 17.7363 7.90989 17.7363C8.46202 17.7363 8.92613 18.0804 9.11017 18.5685C9.29421 18.0804 9.76632 17.7363 10.3105 17.7363C10.6865 17.7363 11.0146 17.8964 11.2547 18.1444C11.2707 18.1604 11.2867 18.1764 11.3027 18.2004C11.3587 18.2484 13.0551 20.0969 9.11017 22.6015Z" fill="url(#paint8_linear_30_33683)"/>
</g>
<path d="M10.3191 17.8886C10.6392 17.8886 10.9272 18.0166 11.1433 18.2486L11.1913 18.3047C11.2073 18.3207 11.6314 18.7768 11.5434 19.5369C11.4314 20.4572 10.5912 21.4494 9.11082 22.4016C7.63848 21.4494 6.79828 20.4572 6.68626 19.5369C6.59023 18.7768 7.02234 18.3127 7.04634 18.2886L7.08635 18.2406C7.3024 18.0086 7.59847 17.8806 7.91054 17.8806C8.37465 17.8806 8.79875 18.1766 8.96679 18.6087C8.9908 18.6727 9.04681 18.7127 9.11883 18.7127C9.19084 18.7127 9.24686 18.6727 9.27086 18.6087C9.4229 18.1846 9.847 17.8886 10.3191 17.8886ZM10.3191 17.7285C9.76698 17.7285 9.30287 18.0726 9.11883 18.5607C8.93478 18.0726 8.46267 17.7285 7.91855 17.7285C7.54246 17.7285 7.21438 17.8886 6.97432 18.1366C6.95832 18.1526 6.94232 18.1686 6.92631 18.1926C6.8783 18.2486 5.1659 20.0891 9.11883 22.5937C13.0637 20.0891 11.3674 18.2406 11.3193 18.1926C11.3033 18.1766 11.2873 18.1606 11.2713 18.1366C11.0233 17.8886 10.6872 17.7285 10.3191 17.7285Z" fill="url(#paint9_linear_30_33683)"/>
<path d="M10.3191 17.8886C10.6392 17.8886 10.9272 18.0166 11.1433 18.2486L11.1913 18.3047C11.2073 18.3207 11.6314 18.7768 11.5434 19.5369C11.4314 20.4572 10.5912 21.4494 9.11082 22.4016C7.63848 21.4494 6.79828 20.4572 6.68626 19.5369C6.59023 18.7768 7.02234 18.3127 7.04634 18.2886L7.08635 18.2406C7.3024 18.0086 7.59847 17.8806 7.91054 17.8806C8.37465 17.8806 8.79875 18.1766 8.96679 18.6087C8.9908 18.6727 9.04681 18.7127 9.11883 18.7127C9.19084 18.7127 9.24686 18.6727 9.27086 18.6087C9.4229 18.1846 9.847 17.8886 10.3191 17.8886ZM10.3191 17.7285C9.76698 17.7285 9.30287 18.0726 9.11883 18.5607C8.93478 18.0726 8.46267 17.7285 7.91855 17.7285C7.54246 17.7285 7.21438 17.8886 6.97432 18.1366C6.95832 18.1526 6.94232 18.1686 6.92631 18.1926C6.8783 18.2486 5.1659 20.0891 9.11883 22.5937C13.0637 20.0891 11.3674 18.2406 11.3193 18.1926C11.3033 18.1766 11.2873 18.1606 11.2713 18.1366C11.0233 17.8886 10.6872 17.7285 10.3191 17.7285Z" fill="url(#paint10_linear_30_33683)"/>
</g>
<defs>
<filter id="filter0_d_30_33683" x="19.8201" y="6.76847" width="7.38421" height="7.04718" filterUnits="userSpaceOnUse" color-interpolation-filters="sRGB">
<feFlood flood-opacity="0" result="BackgroundImageFix"/>
<feColorMatrix in="SourceAlpha" type="matrix" values="0 0 0 0 0 0 0 0 0 0 0 0 0 0 0 0 0 0 127 0" result="hardAlpha"/>
<feOffset/>
<feGaussianBlur stdDeviation="0.545516"/>
<feComposite in2="hardAlpha" operator="out"/>
<feColorMatrix type="matrix" values="0 0 0 0 0 0 0 0 0 0 0 0 0 0 0 0 0 0 0.1 0"/>
<feBlend mode="normal" in2="BackgroundImageFix" result="effect1_dropShadow_30_33683"/>
<feBlend mode="normal" in="SourceGraphic" in2="effect1_dropShadow_30_33683" result="shape"/>
</filter>
<filter id="filter1_d_30_33683" x="18.9861" y="20.6922" width="7.38421" height="7.04718" filterUnits="userSpaceOnUse" color-interpolation-filters="sRGB">
<feFlood flood-opacity="0" result="BackgroundImageFix"/>
<feColorMatrix in="SourceAlpha" type="matrix" values="0 0 0 0 0 0 0 0 0 0 0 0 0 0 0 0 0 0 127 0" result="hardAlpha"/>
<feOffset/>
<feGaussianBlur stdDeviation="0.545516"/>
<feComposite in2="hardAlpha" operator="out"/>
<feColorMatrix type="matrix" values="0 0 0 0 0 0 0 0 0 0 0 0 0 0 0 0 0 0 0.1 0"/>
<feBlend mode="normal" in2="BackgroundImageFix" result="effect1_dropShadow_30_33683"/>
<feBlend mode="normal" in="SourceGraphic" in2="effect1_dropShadow_30_33683" result="shape"/>
</filter>
<filter id="filter2_d_30_33683" x="5.41971" y="16.6453" width="7.38421" height="7.04718" filterUnits="userSpaceOnUse" color-interpolation-filters="sRGB">
<feFlood flood-opacity="0" result="BackgroundImageFix"/>
<feColorMatrix in="SourceAlpha" type="matrix" values="0 0 0 0 0 0 0 0 0 0 0 0 0 0 0 0 0 0 127 0" result="hardAlpha"/>
<feOffset/>
<feGaussianBlur stdDeviation="0.545516"/>
<feComposite in2="hardAlpha" operator="out"/>
<feColorMatrix type="matrix" values="0 0 0 0 0 0 0 0 0 0 0 0 0 0 0 0 0 0 0.1 0"/>
<feBlend mode="normal" in2="BackgroundImageFix" result="effect1_dropShadow_30_33683"/>
<feBlend mode="normal" in="SourceGraphic" in2="effect1_dropShadow_30_33683" result="shape"/>
</filter>
<linearGradient id="paint0_linear_30_33683" x1="7.40278" y1="7.40251" x2="28.1397" y2="28.1395" gradientUnits="userSpaceOnUse">
<stop stop-color="#A0F2B7"/>
<stop offset="0.058" stop-color="#99EFAF"/>
<stop offset="0.2248" stop-color="#8AE89D"/>
<stop offset="0.3457" stop-color="#85E597"/>
<stop offset="0.3602" stop-color="#83E395"/>
<stop offset="0.535" stop-color="#6ED486"/>
<stop offset="0.6515" stop-color="#67CE80"/>
<stop offset="1" stop-color="#5FB772"/>
</linearGradient>
<linearGradient id="paint1_linear_30_33683" x1="16.9554" y1="2.3402" x2="16.9554" y2="33.0261" gradientUnits="userSpaceOnUse">
<stop stop-color="white"/>
<stop offset="0.2428" stop-color="#FDFDFD"/>
<stop offset="0.3863" stop-color="#F4F8F5"/>
<stop offset="0.5041" stop-color="#E6EEE8"/>
<stop offset="0.6079" stop-color="#D2E0D5"/>
<stop offset="0.7025" stop-color="#B8CEBC"/>
<stop offset="0.7905" stop-color="#98B89E"/>
<stop offset="0.8733" stop-color="#719E7B"/>
<stop offset="0.9499" stop-color="#468152"/>
<stop offset="1" stop-color="#266B34"/>
</linearGradient>
<linearGradient id="paint2_linear_30_33683" x1="23.5097" y1="8.50349" x2="23.5097" y2="12.6766" gradientUnits="userSpaceOnUse">
<stop stop-color="#FFCCCC"/>
<stop offset="0.546875" stop-color="#FF908A"/>
<stop offset="1" stop-color="#F97973"/>
</linearGradient>
<linearGradient id="paint3_linear_30_33683" x1="23.5103" y1="7.21373" x2="23.5103" y2="13.9128" gradientUnits="userSpaceOnUse">
<stop stop-color="white"/>
<stop offset="0.1253" stop-color="#FCF4F4"/>
<stop offset="0.3432" stop-color="#F3D8D8"/>
<stop offset="0.520833" stop-color="#E4AAAA"/>
<stop offset="0.791667" stop-color="#D06A6A"/>
<stop offset="1" stop-color="#CE6363"/>
</linearGradient>
<linearGradient id="paint4_linear_30_33683" x1="22.3619" y1="7.23398" x2="23.2884" y2="9.05064" gradientUnits="userSpaceOnUse">
<stop stop-color="white"/>
<stop offset="0.359375" stop-color="white" stop-opacity="0.0868"/>
<stop offset="0.729167" stop-color="white" stop-opacity="0"/>
</linearGradient>
<linearGradient id="paint5_linear_30_33683" x1="22.6757" y1="22.4272" x2="22.6757" y2="26.6003" gradientUnits="userSpaceOnUse">
<stop stop-color="#FFCCCC"/>
<stop offset="0.546875" stop-color="#FF908A"/>
<stop offset="1" stop-color="#F97973"/>
</linearGradient>
<linearGradient id="paint6_linear_30_33683" x1="22.6764" y1="21.1376" x2="22.6764" y2="27.8366" gradientUnits="userSpaceOnUse">
<stop stop-color="white"/>
<stop offset="0.1253" stop-color="#FCF4F4"/>
<stop offset="0.3432" stop-color="#F3D8D8"/>
<stop offset="0.520833" stop-color="#E4AAAA"/>
<stop offset="0.791667" stop-color="#D06A6A"/>
<stop offset="1" stop-color="#CE6363"/>
</linearGradient>
<linearGradient id="paint7_linear_30_33683" x1="21.5274" y1="21.1578" x2="22.4538" y2="22.9745" gradientUnits="userSpaceOnUse">
<stop stop-color="white"/>
<stop offset="0.359375" stop-color="white" stop-opacity="0.0868"/>
<stop offset="0.729167" stop-color="white" stop-opacity="0"/>
</linearGradient>
<linearGradient id="paint8_linear_30_33683" x1="9.10929" y1="18.3803" x2="9.10929" y2="22.5535" gradientUnits="userSpaceOnUse">
<stop stop-color="#FFCCCC"/>
<stop offset="0.546875" stop-color="#FF908A"/>
<stop offset="1" stop-color="#F97973"/>
</linearGradient>
<linearGradient id="paint9_linear_30_33683" x1="9.10994" y1="17.0907" x2="9.10994" y2="23.7898" gradientUnits="userSpaceOnUse">
<stop stop-color="white"/>
<stop offset="0.1253" stop-color="#FCF4F4"/>
<stop offset="0.3432" stop-color="#F3D8D8"/>
<stop offset="0.520833" stop-color="#E4AAAA"/>
<stop offset="0.791667" stop-color="#D06A6A"/>
<stop offset="1" stop-color="#CE6363"/>
</linearGradient>
<linearGradient id="paint10_linear_30_33683" x1="7.96096" y1="17.1109" x2="8.88741" y2="18.9276" gradientUnits="userSpaceOnUse">
<stop stop-color="white"/>
<stop offset="0.359375" stop-color="white" stop-opacity="0.0868"/>
<stop offset="0.729167" stop-color="white" stop-opacity="0"/>
</linearGradient>
<clipPath id="clip0_30_33683">
<rect width="24" height="24" fill="white" transform="translate(5 5)"/>
</clipPath>
</defs>
</svg>
