<svg width="12" height="12" viewBox="0 0 12 12" fill="none" xmlns="http://www.w3.org/2000/svg">
<path fill-rule="evenodd" clip-rule="evenodd" d="M4.3124 10.0502C4.1399 10.0502 3.9674 9.98271 3.8324 9.85521C3.70645 9.72871 3.63574 9.55747 3.63574 9.37896C3.63574 9.20045 3.70645 9.02921 3.8324 8.90271L6.7349 6.00021L3.8324 3.10521C3.70645 2.97871 3.63574 2.80747 3.63574 2.62896C3.63574 2.45045 3.70645 2.27921 3.8324 2.15271C3.9589 2.02677 4.13014 1.95605 4.30865 1.95605C4.48716 1.95605 4.6584 2.02677 4.7849 2.15271L8.1599 5.52771C8.28585 5.65421 8.35656 5.82545 8.35656 6.00396C8.35656 6.18247 8.28585 6.35371 8.1599 6.48021L4.7849 9.85521C4.6574 9.98271 4.4849 10.0502 4.3124 10.0502Z" fill="#CFD3D6"/>
</svg>
