<svg width="60" height="60" viewBox="0 0 60 60" fill="none" xmlns="http://www.w3.org/2000/svg">
<circle cx="30" cy="30" r="30" fill="#FEE500"/>
<path d="M29.9928 21.25C24.461 21.25 19.9999 24.8697 19.9999 29.264C19.9999 32.1163 21.8557 34.6139 24.6395 36.0401L23.6973 39.6091C23.6795 39.6626 23.6768 39.72 23.6894 39.775C23.702 39.83 23.7294 39.8803 23.7686 39.9204C23.8258 39.9715 23.8994 39.9998 23.9756 40C24.0389 39.9949 24.0988 39.9695 24.1469 39.9276L28.2012 37.155C28.7997 37.2387 29.4029 37.2822 30.007 37.2852C35.5317 37.2852 39.9999 33.6655 39.9999 29.264C39.9999 24.8624 35.5174 21.25 29.9928 21.25Z" fill="black" fill-opacity="0.9"/>
</svg>
