<svg width="25" height="24" viewBox="0 0 25 24" fill="none" xmlns="http://www.w3.org/2000/svg">
<path d="M4.04863 8.92969H5.31816V14.9258H8.44316V16H4.04863V8.92969ZM11.2779 16H9.91074L8.01621 10.6973H9.34434L10.565 14.6426H10.6236L11.8541 10.6973H13.1725L11.2779 16ZM14.0932 16.0781C13.9564 16.0781 13.8295 16.0439 13.7123 15.9756C13.5951 15.9072 13.5023 15.8145 13.434 15.6973C13.3656 15.5801 13.3314 15.4531 13.3314 15.3164C13.3314 15.1829 13.3656 15.0592 13.434 14.9453C13.5023 14.8281 13.5951 14.7354 13.7123 14.667C13.8295 14.5986 13.9564 14.5645 14.0932 14.5645C14.2266 14.5645 14.3503 14.5986 14.4643 14.667C14.5814 14.7354 14.6742 14.8281 14.7426 14.9453C14.8109 15.0592 14.8451 15.1829 14.8451 15.3164C14.8451 15.4531 14.8109 15.5801 14.7426 15.6973C14.6742 15.8145 14.5814 15.9072 14.4643 15.9756C14.3503 16.0439 14.2266 16.0781 14.0932 16.0781ZM15.6096 13.666L18.6662 8.92969H20.2482V13.6367H21.176V14.6816H20.2482V16H19.0373V14.6816H15.6096V13.666ZM19.0568 13.6367V10.375H18.9787L16.9084 13.5879V13.6367H19.0568Z" fill="#FF908A"/>
<rect x="1" y="0.5" width="23" height="23" rx="11.5" stroke="#FF908A"/>
</svg>
