<svg width="34" height="34" viewBox="0 0 34 34" fill="none" xmlns="http://www.w3.org/2000/svg">
<circle cx="17" cy="17" r="17" fill="#E5FAE9"/>
<g clip-path="url(#clip0_30_33647)">
<path d="M28.5911 19.1039C30.2901 24.9043 24.9043 30.2901 19.1039 28.5911C17.7008 28.18 16.2085 28.18 14.8053 28.5911C9.00491 30.2901 3.61917 24.9043 5.31818 19.1039C5.72927 17.7008 5.72927 16.2085 5.31818 14.8053C3.61917 9.00491 9.00491 3.61917 14.8053 5.31818C16.2085 5.72927 17.7008 5.72927 19.1039 5.31818C24.9043 3.61917 30.2901 9.00491 28.5911 14.8053C28.18 16.2097 28.18 17.7008 28.5911 19.1039Z" fill="url(#paint0_linear_30_33647)"/>
<path opacity="0.8" d="M21.2903 5.00122V5.68439C23.4455 5.68439 25.5212 6.73706 26.8412 8.50023C28.16 10.2598 28.558 12.4887 27.9354 14.6143C27.4863 16.1458 27.4863 17.7652 27.9354 19.2967C28.558 21.4222 28.1588 23.6511 26.8412 25.4107C25.52 27.1739 23.4455 28.2266 21.2903 28.2266C20.6261 28.2266 19.9548 28.1291 19.2966 27.9355C18.5362 27.7121 17.7485 27.5992 16.956 27.5992C16.1635 27.5992 15.3758 27.7121 14.6154 27.9355C13.9572 28.128 13.2859 28.2266 12.6217 28.2266C10.4665 28.2266 8.39085 27.1739 7.07085 25.4107C5.75204 23.6511 5.35402 21.4222 5.97659 19.2967C6.4257 17.7652 6.4257 16.1458 5.97659 14.6143C5.35402 12.4887 5.75323 10.2598 7.07085 8.50023C8.39204 6.73706 10.4665 5.68439 12.6217 5.68439C13.2859 5.68439 13.9572 5.78181 14.6154 5.97548C15.3758 6.19884 16.1635 6.31172 16.956 6.31172C17.7485 6.31172 18.5362 6.19884 19.2966 5.97548C19.9548 5.783 20.6261 5.68439 21.2903 5.68439V5.00122ZM21.2903 5.00122C20.5774 5.00122 19.8443 5.10221 19.1041 5.31964C18.4019 5.52518 17.6784 5.62736 16.9548 5.62736C16.2312 5.62736 15.5077 5.52518 14.8055 5.31964C14.0653 5.1034 13.3322 5.00122 12.6194 5.00122C7.74689 5.00122 3.8356 9.74657 5.31838 14.8068C5.72947 16.2099 5.72947 17.7022 5.31838 19.1054C3.8356 24.1656 7.7457 28.9109 12.6194 28.9109C13.3322 28.9109 14.0653 28.8099 14.8055 28.5925C15.5077 28.387 16.2312 28.2848 16.9548 28.2848C17.6784 28.2848 18.4019 28.387 19.1041 28.5925C19.8443 28.8087 20.5774 28.9109 21.2903 28.9109C26.1627 28.9109 30.074 24.1656 28.5912 19.1054C28.1802 17.7022 28.1802 16.2099 28.5912 14.8068C30.074 9.74538 26.1639 5.00122 21.2903 5.00122Z" fill="url(#paint1_linear_30_33647)"/>
<path d="M20.6171 16.0944C21.2136 16.0944 21.6971 15.6109 21.6971 15.0144C21.6971 14.418 21.2136 13.9344 20.6171 13.9344C20.0206 13.9344 19.5371 14.418 19.5371 15.0144C19.5371 15.6109 20.0206 16.0944 20.6171 16.0944Z" fill="#1A211B"/>
<path d="M13.2939 16.0944C13.8903 16.0944 14.3739 15.6109 14.3739 15.0144C14.3739 14.418 13.8903 13.9344 13.2939 13.9344C12.6974 13.9344 12.2139 14.418 12.2139 15.0144C12.2139 15.6109 12.6974 16.0944 13.2939 16.0944Z" fill="#1A211B"/>
<path opacity="0.5" d="M20.2506 14.9217C20.4159 14.9217 20.55 14.7876 20.55 14.6223C20.55 14.4569 20.4159 14.3229 20.2506 14.3229C20.0852 14.3229 19.9512 14.4569 19.9512 14.6223C19.9512 14.7876 20.0852 14.9217 20.2506 14.9217Z" fill="#5FB772"/>
<path opacity="0.5" d="M12.9332 14.9217C13.0986 14.9217 13.2326 14.7876 13.2326 14.6223C13.2326 14.4569 13.0986 14.3229 12.9332 14.3229C12.7678 14.3229 12.6338 14.4569 12.6338 14.6223C12.6338 14.7876 12.7678 14.9217 12.9332 14.9217Z" fill="#5FB772"/>
<path opacity="0.7" d="M22.2464 19.2929C22.2464 20.241 21.8389 20.5273 21.3351 20.5273C20.8314 20.5273 20.4238 20.2398 20.4238 19.2929C20.4238 18.3459 21.3351 16.894 21.3351 16.894C21.3351 16.894 22.2464 18.3447 22.2464 19.2929Z" fill="url(#paint2_linear_30_33647)"/>
<path opacity="0.6" d="M21.7737 18.4754C21.7737 18.9316 21.5777 19.0706 21.3341 19.0706C21.0918 19.0706 20.8945 18.9328 20.8945 18.4754C20.8945 18.0179 21.3341 17.3193 21.3341 17.3193C21.3341 17.3193 21.7737 18.0191 21.7737 18.4754Z" fill="white"/>
<path d="M14.7754 19.8786C14.9584 19.0267 15.8673 18.3804 16.9603 18.3804C18.032 18.3804 18.9267 19.0029 19.1334 19.8299" stroke="#1A211B" stroke-width="0.712871" stroke-miterlimit="10" stroke-linecap="round"/>
</g>
<defs>
<linearGradient id="paint0_linear_30_33647" x1="7.40259" y1="7.40287" x2="28.1395" y2="28.1398" gradientUnits="userSpaceOnUse">
<stop stop-color="#A0F2B7"/>
<stop offset="0.058" stop-color="#99EFAF"/>
<stop offset="0.2248" stop-color="#8AE89D"/>
<stop offset="0.3457" stop-color="#85E597"/>
<stop offset="0.3602" stop-color="#83E395"/>
<stop offset="0.535" stop-color="#6ED486"/>
<stop offset="0.6515" stop-color="#67CE80"/>
<stop offset="1" stop-color="#5FB772"/>
</linearGradient>
<linearGradient id="paint1_linear_30_33647" x1="16.9552" y1="2.34079" x2="16.9552" y2="33.0267" gradientUnits="userSpaceOnUse">
<stop stop-color="white"/>
<stop offset="0.2428" stop-color="#FDFDFD"/>
<stop offset="0.3863" stop-color="#F4F8F5"/>
<stop offset="0.5041" stop-color="#E6EEE8"/>
<stop offset="0.6079" stop-color="#D2E0D5"/>
<stop offset="0.7025" stop-color="#B8CEBC"/>
<stop offset="0.7905" stop-color="#98B89E"/>
<stop offset="0.8733" stop-color="#719E7B"/>
<stop offset="0.9499" stop-color="#468152"/>
<stop offset="1" stop-color="#266B34"/>
</linearGradient>
<linearGradient id="paint2_linear_30_33647" x1="21.3352" y1="16.6243" x2="21.3352" y2="22.2055" gradientUnits="userSpaceOnUse">
<stop stop-color="white"/>
<stop offset="0.198" stop-color="#FCFEFD"/>
<stop offset="0.341" stop-color="#F3FCF7"/>
<stop offset="0.4667" stop-color="#E3F9ED"/>
<stop offset="0.5825" stop-color="#CDF4DE"/>
<stop offset="0.6915" stop-color="#B0EDCB"/>
<stop offset="0.7954" stop-color="#8CE5B4"/>
<stop offset="0.8953" stop-color="#62DC99"/>
<stop offset="0.9896" stop-color="#33D17A"/>
<stop offset="1" stop-color="#2DD076"/>
</linearGradient>
<clipPath id="clip0_30_33647">
<rect width="24" height="24" fill="white" transform="translate(5 5)"/>
</clipPath>
</defs>
</svg>
