<svg width="44" height="44" viewBox="0 0 44 44" fill="none" xmlns="http://www.w3.org/2000/svg">
<circle cx="22" cy="22" r="22" fill="#F2FFF5"/>
<path fill-rule="evenodd" clip-rule="evenodd" d="M20.9038 31.5269C21.5698 31.9669 22.4288 31.9669 23.0938 31.5269C25.2088 30.1309 29.8138 26.7939 31.7978 23.0599C34.4128 18.1339 31.3418 13.2209 27.2818 13.2209C24.9678 13.2209 23.5758 14.4299 22.8058 15.4689C22.7133 15.5962 22.592 15.6998 22.4518 15.7712C22.3116 15.8426 22.1566 15.8798 21.9993 15.8798C21.8419 15.8798 21.6869 15.8426 21.5467 15.7712C21.4065 15.6998 21.2852 15.5962 21.1928 15.4689C20.4228 14.4299 19.0308 13.2209 16.7168 13.2209C12.6568 13.2209 9.58576 18.1339 12.2018 23.0599C14.1838 26.7939 18.7908 30.1309 20.9038 31.5269Z" fill="#7BE48F"/>
</svg>
