<svg width="24" height="24" viewBox="0 0 24 24" fill="none" xmlns="http://www.w3.org/2000/svg">
<path fill-rule="evenodd" clip-rule="evenodd" d="M2.00012 11.9995C2.00012 6.48051 6.48012 1.99951 12.0001 1.99951C17.5301 1.99951 22.0001 6.48051 22.0001 11.9995C22.0001 17.5205 17.5301 21.9995 12.0001 21.9995C6.48012 21.9995 2.00012 17.5205 2.00012 11.9995ZM11.1201 8.20951C11.1201 7.73051 11.5201 7.32951 12.0001 7.32951C12.4801 7.32951 12.8701 7.73051 12.8701 8.20951V12.6295C12.8701 13.1105 12.4801 13.4995 12.0001 13.4995C11.5201 13.4995 11.1201 13.1105 11.1201 12.6295V8.20951ZM12.0101 16.6805C11.5201 16.6805 11.1301 16.2805 11.1301 15.8005C11.1301 15.3205 11.5201 14.9305 12.0001 14.9305C12.4901 14.9305 12.8801 15.3205 12.8801 15.8005C12.8801 16.2805 12.4901 16.6805 12.0101 16.6805Z" fill="#CFD3D6"/>
</svg>
