<svg width="55" height="22" viewBox="0 0 55 22" fill="none" xmlns="http://www.w3.org/2000/svg">
<rect width="55" height="22" rx="6" fill="#F2F5F5"/>
<path d="M15.0078 11.8125H5.35156V12.8789H9.52344V16.0547H10.8125V12.8789H15.0078V11.8125ZM5.87891 10.1367L6.34766 11.168C8.11133 10.9453 9.48828 10.1895 10.1797 9.1582C10.8652 10.1777 12.2246 10.9453 13.9766 11.168L14.457 10.1367C12.3418 9.87891 10.959 8.7832 10.8359 7.73438H14.1055V6.70312H10.8125V5.46094H9.52344V6.70312H6.24219V7.73438H9.51172C9.38281 8.79492 7.99414 9.87891 5.87891 10.1367ZM24.0195 5.44922H22.7188V16.0195H24.0195V10.6758H25.5898V9.58594H24.0195V5.44922ZM15.6641 13.125L16.4023 14.1328C19.9238 12.3984 21.2129 9.66211 21.2188 6.55078H16.2383V7.62891H19.8945C19.6367 10.043 18.2422 11.8359 15.6641 13.125ZM32.1406 5.90625C30.5879 5.90625 29.4863 6.76758 29.4922 8.03906C29.4863 9.11133 30.2949 9.90234 31.5078 10.1074V11.0156C30.5703 11.0449 29.6797 11.0508 28.918 11.0508L29.0586 12.0938C30.8516 12.0996 33.3125 12.0527 35.5156 11.6602L35.4102 10.7109C34.5898 10.8281 33.7051 10.9043 32.8203 10.957V10.1016C33.998 9.88477 34.7891 9.09375 34.8008 8.03906C34.7891 6.76758 33.6875 5.90625 32.1406 5.90625ZM30.3711 15.8203H37.707V14.7656H31.6719V12.832H30.3711V15.8203ZM30.7109 8.03906C30.6992 7.32422 31.2969 6.90234 32.1406 6.90234C32.9902 6.90234 33.5645 7.32422 33.5703 8.03906C33.5645 8.73633 32.9902 9.16992 32.1406 9.17578C31.2969 9.16992 30.6992 8.73633 30.7109 8.03906ZM36.0312 13.5469H37.332V9.96094H38.7617V8.88281H37.332V5.46094H36.0312V13.5469ZM48.9922 13.7344H46.543V11.9883H48.0898V10.9336H41.7617V9.57422H47.8438V6.17578H40.4375V7.23047H46.5547V8.53125H40.4609V11.9883H41.8789V13.7344H39.3125V14.8125H48.9922V13.7344ZM43.1445 13.7344V11.9883H45.2656V13.7344H43.1445Z" fill="#AAAFB3"/>
</svg>
