<svg width="12" height="12" viewBox="0 0 12 12" fill="none" xmlns="http://www.w3.org/2000/svg">
<path fill-rule="evenodd" clip-rule="evenodd" d="M4.31249 10.05C4.13999 10.05 3.96749 9.98247 3.83249 9.85497C3.70654 9.72847 3.63583 9.55723 3.63583 9.37872C3.63583 9.20021 3.70654 9.02897 3.83249 8.90247L6.73499 5.99997L3.83249 3.10497C3.70654 2.97847 3.63583 2.80723 3.63583 2.62872C3.63583 2.45021 3.70654 2.27897 3.83249 2.15247C3.95899 2.02652 4.13023 1.95581 4.30874 1.95581C4.48725 1.95581 4.65849 2.02652 4.78499 2.15247L8.15999 5.52747C8.28594 5.65397 8.35665 5.82521 8.35665 6.00372C8.35665 6.18223 8.28594 6.35347 8.15999 6.47997L4.78499 9.85497C4.65749 9.98247 4.48499 10.05 4.31249 10.05Z" fill="#CFD3D6"/>
</svg>
