<svg width="54" height="54" viewBox="0 0 54 54" fill="none" xmlns="http://www.w3.org/2000/svg">
<g clip-path="url(#clip0_3680_32496)">
<path d="M53.0799 31.7338C56.9026 44.7847 44.7847 56.9026 31.7338 53.0799C28.5767 52.1549 25.2191 52.1549 22.0619 53.0799C9.01105 56.9026 -3.10686 44.7847 0.715909 31.7338C1.64086 28.5767 1.64086 25.2191 0.715909 22.0619C-3.10686 9.01106 9.01105 -3.10686 22.0619 0.715909C25.2191 1.64086 28.5767 1.64086 31.7338 0.715909C44.7847 -3.10686 56.9026 9.01106 53.0799 22.0619C52.1549 25.2218 52.1549 28.5767 53.0799 31.7338Z" fill="url(#paint0_linear_3680_32496)"/>
<path opacity="0.8" d="M36.6531 0.00256348V1.53969C41.5024 1.53969 46.1726 3.90821 49.1426 7.87534C52.1099 11.8344 53.0054 16.8495 51.6047 21.632C50.5942 25.0778 50.5942 28.7215 51.6047 32.1673C53.0054 36.9498 52.1072 41.9648 49.1426 45.9239C46.1699 49.8911 41.5024 52.2596 36.6531 52.2596C35.1587 52.2596 33.6483 52.0404 32.1673 51.6046C30.4564 51.1021 28.6841 50.8481 26.901 50.8481C25.1179 50.8481 23.3456 51.1021 21.6347 51.6046C20.1537 52.0377 18.6433 52.2596 17.1489 52.2596C12.2996 52.2596 7.62942 49.8911 4.65942 45.9239C1.69209 41.9648 0.796539 36.9498 2.19733 32.1673C3.20783 28.7215 3.20783 25.0778 2.19733 21.632C0.796539 16.8495 1.69476 11.8344 4.65942 7.87534C7.63209 3.90821 12.2996 1.53969 17.1489 1.53969C18.6433 1.53969 20.1537 1.7589 21.6347 2.19464C23.3456 2.69722 25.1179 2.95118 26.901 2.95118C28.6841 2.95118 30.4564 2.69722 32.1673 2.19464C33.6483 1.76157 35.1587 1.53969 36.6531 1.53969V0.00256348ZM36.6531 0.00256348C35.0491 0.00256348 33.3997 0.229791 31.7343 0.718999C30.1544 1.18147 28.5263 1.41138 26.8983 1.41138C25.2703 1.41138 23.6423 1.18147 22.0624 0.718999C20.3969 0.232465 18.7475 0.00256348 17.1436 0.00256348C6.18051 0.00256348 -2.61989 10.6796 0.716347 22.065C1.6413 25.2222 1.6413 28.5798 0.716347 31.7369C-2.61989 43.1224 6.17783 53.7994 17.1436 53.7994C18.7475 53.7994 20.3969 53.5722 22.0624 53.083C23.6423 52.6205 25.2703 52.3906 26.8983 52.3906C28.5263 52.3906 30.1544 52.6205 31.7343 53.083C33.3997 53.5695 35.0491 53.7994 36.6531 53.7994C47.6161 53.7994 56.4165 43.1224 53.0803 31.7369C52.1554 28.5798 52.1554 25.2222 53.0803 22.065C56.4165 10.6769 47.6188 0.00256348 36.6531 0.00256348Z" fill="url(#paint1_linear_3680_32496)"/>
<path d="M35.139 24.9624C36.481 24.9624 37.569 23.8745 37.569 22.5324C37.569 21.1904 36.481 20.1024 35.139 20.1024C33.7969 20.1024 32.709 21.1904 32.709 22.5324C32.709 23.8745 33.7969 24.9624 35.139 24.9624Z" fill="#1A211B"/>
<path d="M18.661 24.9624C20.003 24.9624 21.091 23.8745 21.091 22.5324C21.091 21.1904 20.003 20.1024 18.661 20.1024C17.3189 20.1024 16.231 21.1904 16.231 22.5324C16.231 23.8745 17.3189 24.9624 18.661 24.9624Z" fill="#1A211B"/>
<path opacity="0.5" d="M34.3138 22.3239C34.6858 22.3239 34.9875 22.0223 34.9875 21.6502C34.9875 21.2782 34.6858 20.9766 34.3138 20.9766C33.9417 20.9766 33.6401 21.2782 33.6401 21.6502C33.6401 22.0223 33.9417 22.3239 34.3138 22.3239Z" fill="#5FB772"/>
<path opacity="0.5" d="M17.8499 22.3239C18.222 22.3239 18.5236 22.0223 18.5236 21.6502C18.5236 21.2782 18.222 20.9766 17.8499 20.9766C17.4779 20.9766 17.1763 21.2782 17.1763 21.6502C17.1763 22.0223 17.4779 22.3239 17.8499 22.3239Z" fill="#5FB772"/>
<path opacity="0.7" d="M38.8044 32.1589C38.8044 34.2922 37.8875 34.9365 36.754 34.9365C35.6205 34.9365 34.7036 34.2895 34.7036 32.1589C34.7036 30.0283 36.754 26.7616 36.754 26.7616C36.754 26.7616 38.8044 30.0257 38.8044 32.1589Z" fill="url(#paint2_linear_3680_32496)"/>
<path opacity="0.6" d="M37.7404 30.3197C37.7404 31.3463 37.2993 31.659 36.7513 31.659C36.206 31.659 35.7622 31.3489 35.7622 30.3197C35.7622 29.2905 36.7513 27.7186 36.7513 27.7186C36.7513 27.7186 37.7404 29.2932 37.7404 30.3197Z" fill="white"/>
<path d="M21.9946 33.4768C22.4063 31.5601 24.4514 30.1058 26.9108 30.1058C29.3221 30.1058 31.335 31.5066 31.8002 33.3672" stroke="#1A211B" stroke-width="1.60396" stroke-miterlimit="10" stroke-linecap="round"/>
</g>
<defs>
<linearGradient id="paint0_linear_3680_32496" x1="5.40584" y1="5.40645" x2="52.0639" y2="52.0646" gradientUnits="userSpaceOnUse">
<stop stop-color="#A0F2B7"/>
<stop offset="0.058" stop-color="#99EFAF"/>
<stop offset="0.2248" stop-color="#8AE89D"/>
<stop offset="0.3457" stop-color="#85E597"/>
<stop offset="0.3602" stop-color="#83E395"/>
<stop offset="0.535" stop-color="#6ED486"/>
<stop offset="0.6515" stop-color="#67CE80"/>
<stop offset="1" stop-color="#5FB772"/>
</linearGradient>
<linearGradient id="paint1_linear_3680_32496" x1="26.8993" y1="-5.98342" x2="26.8993" y2="63.0599" gradientUnits="userSpaceOnUse">
<stop stop-color="white"/>
<stop offset="0.2428" stop-color="#FDFDFD"/>
<stop offset="0.3863" stop-color="#F4F8F5"/>
<stop offset="0.5041" stop-color="#E6EEE8"/>
<stop offset="0.6079" stop-color="#D2E0D5"/>
<stop offset="0.7025" stop-color="#B8CEBC"/>
<stop offset="0.7905" stop-color="#98B89E"/>
<stop offset="0.8733" stop-color="#719E7B"/>
<stop offset="0.9499" stop-color="#468152"/>
<stop offset="1" stop-color="#266B34"/>
</linearGradient>
<linearGradient id="paint2_linear_3680_32496" x1="36.7541" y1="26.1547" x2="36.7541" y2="38.7123" gradientUnits="userSpaceOnUse">
<stop stop-color="white"/>
<stop offset="0.198" stop-color="#FCFEFD"/>
<stop offset="0.341" stop-color="#F3FCF7"/>
<stop offset="0.4667" stop-color="#E3F9ED"/>
<stop offset="0.5825" stop-color="#CDF4DE"/>
<stop offset="0.6915" stop-color="#B0EDCB"/>
<stop offset="0.7954" stop-color="#8CE5B4"/>
<stop offset="0.8953" stop-color="#62DC99"/>
<stop offset="0.9896" stop-color="#33D17A"/>
<stop offset="1" stop-color="#2DD076"/>
</linearGradient>
<clipPath id="clip0_3680_32496">
<rect width="54" height="54" fill="white"/>
</clipPath>
</defs>
</svg>
