<svg width="245" height="24" viewBox="0 0 245 24" fill="none" xmlns="http://www.w3.org/2000/svg">
<g clip-path="url(#clip0_2980_80849)">
<path d="M0.247986 18H3.31999V7.89599C3.31999 5.73599 4.47199 4.84799 5.98399 4.84799C7.49599 4.84799 8.64799 5.75999 8.64799 7.89599V18H11.72V7.89599C11.72 5.75999 12.872 4.84799 14.384 4.84799C15.896 4.84799 17.048 5.73599 17.048 7.89599V18H20.12V7.89599C20.12 3.86399 17.744 1.99199 14.648 1.99199C12.656 1.99199 11.096 2.83199 10.184 4.39199C9.27199 2.83199 7.71199 1.99199 5.71999 1.99199C2.62399 1.99199 0.247986 3.86399 0.247986 7.89599V18ZM27.9594 18.312C29.8314 18.312 31.4394 17.424 32.1594 15.672V18H34.7754V12.168C34.7754 8.35199 32.1834 5.83199 28.4634 5.83199C24.6954 5.83199 22.0554 8.42399 22.0554 12.192C22.0554 16.248 25.0794 18.312 27.9594 18.312ZM28.4394 15.648C26.3514 15.648 24.9354 14.16 24.9354 12.072C24.9354 9.98399 26.3514 8.49599 28.4394 8.49599C30.5274 8.49599 31.9194 9.98399 31.9194 12.072C31.9194 14.16 30.5274 15.648 28.4394 15.648ZM41.6729 18.312C44.6969 18.312 46.6409 16.728 46.6409 14.328C46.6409 11.376 43.7369 11.064 42.1529 10.848C40.8809 10.68 39.8009 10.536 39.8009 9.62399C39.8009 8.92799 40.4249 8.32799 41.6729 8.32799C42.8009 8.32799 43.4729 8.83199 43.5449 9.55199H46.3769C46.3049 7.46399 44.5289 5.83199 41.6249 5.83199C38.7689 5.83199 36.9209 7.41599 36.9209 9.83999C36.9209 12.744 39.6089 13.056 41.4329 13.296C42.7049 13.464 43.7609 13.584 43.7609 14.496C43.7609 15.216 43.1369 15.816 41.6729 15.816C40.2809 15.816 39.5849 15.288 39.5609 14.496H36.6809C36.7529 16.704 38.6489 18.312 41.6729 18.312ZM48.9116 18H51.7676V11.832C51.7676 9.62399 53.0156 8.49599 54.7676 8.49599C56.5676 8.49599 57.7676 9.57599 57.7676 11.832V18H60.6236V11.832C60.6236 7.60799 58.0316 5.83199 55.2956 5.83199C53.7836 5.83199 52.5596 6.52799 51.7676 7.79999V0.959991H48.9116V18ZM62.9651 18H65.8211V11.232C65.8211 9.28799 66.8291 8.49599 68.2211 8.49599C69.5891 8.49599 70.6211 9.31199 70.6211 11.232V18H73.4771V11.232C73.4771 9.31199 74.4851 8.49599 75.8531 8.49599C77.2451 8.49599 78.2531 9.28799 78.2531 11.232V18H81.1091V11.232C81.1091 7.51199 78.9491 5.83199 76.1411 5.83199C74.3411 5.83199 72.8771 6.57599 72.0371 7.96799C71.1731 6.57599 69.7091 5.83199 67.9331 5.83199C65.1251 5.83199 62.9651 7.51199 62.9651 11.232V18ZM88.8734 18.312C90.7454 18.312 92.3534 17.424 93.0734 15.672V18H95.6894V12.168C95.6894 8.35199 93.0974 5.83199 89.3774 5.83199C85.6094 5.83199 82.9694 8.42399 82.9694 12.192C82.9694 16.248 85.9934 18.312 88.8734 18.312ZM89.3534 15.648C87.2654 15.648 85.8494 14.16 85.8494 12.072C85.8494 9.98399 87.2654 8.49599 89.3534 8.49599C91.4414 8.49599 92.8334 9.98399 92.8334 12.072C92.8334 14.16 91.4414 15.648 89.3534 15.648ZM98.459 18H101.315V0.959991H98.459V18ZM104.482 18H107.338V0.959991H104.482V18ZM116.002 18.312C119.746 18.312 122.386 15.672 122.386 12.072C122.386 8.47199 119.746 5.83199 116.002 5.83199C112.258 5.83199 109.618 8.47199 109.618 12.072C109.618 15.672 112.258 18.312 116.002 18.312ZM116.002 15.648C113.914 15.648 112.498 14.16 112.498 12.072C112.498 9.98399 113.914 8.49599 116.002 8.49599C118.09 8.49599 119.482 9.98399 119.482 12.072C119.482 14.16 118.09 15.648 116.002 15.648ZM129.222 18.312C130.998 18.312 132.462 17.568 133.326 16.176C134.166 17.568 135.63 18.312 137.43 18.312C140.238 18.312 142.398 16.632 142.398 12.912V6.14399H139.542V12.912C139.542 14.856 138.534 15.648 137.142 15.648C135.774 15.648 134.766 14.832 134.766 12.912V6.14399H131.91V12.912C131.91 14.832 130.878 15.648 129.51 15.648C128.118 15.648 127.11 14.856 127.11 12.912V6.14399H124.254V12.912C124.254 16.632 126.414 18.312 129.222 18.312ZM152.962 4.60799C154.066 4.60799 154.858 3.81599 154.858 2.71199C154.858 1.60799 154.066 0.791992 152.962 0.791992C151.858 0.791992 151.066 1.60799 151.066 2.71199C151.066 3.81599 151.858 4.60799 152.962 4.60799ZM151.521 18H154.378V6.14399H151.521V18ZM161.673 18.312C164.697 18.312 166.641 16.728 166.641 14.328C166.641 11.376 163.737 11.064 162.153 10.848C160.881 10.68 159.801 10.536 159.801 9.62399C159.801 8.92799 160.425 8.32799 161.673 8.32799C162.801 8.32799 163.473 8.83199 163.545 9.55199H166.377C166.305 7.46399 164.529 5.83199 161.625 5.83199C158.769 5.83199 156.921 7.41599 156.921 9.83999C156.921 12.744 159.609 13.056 161.433 13.296C162.705 13.464 163.761 13.584 163.761 14.496C163.761 15.216 163.137 15.816 161.673 15.816C160.281 15.816 159.585 15.288 159.561 14.496H156.681C156.753 16.704 158.649 18.312 161.673 18.312ZM180.711 23.376C183.999 23.376 186.615 21.72 186.615 17.592V6.14399H183.759V12.168C183.759 14.376 182.511 15.504 180.759 15.504C178.959 15.504 177.759 14.424 177.759 12.168V6.14399H174.903V12.168C174.903 16.392 177.495 18.168 180.231 18.168C181.791 18.168 183.039 17.472 183.759 16.176V17.664C183.759 19.968 182.655 20.904 180.711 20.904C179.271 20.904 178.335 20.4 177.855 19.296H174.999C175.671 22.104 177.951 23.376 180.711 23.376ZM195.244 18.312C198.988 18.312 201.628 15.672 201.628 12.072C201.628 8.47199 198.988 5.83199 195.244 5.83199C191.5 5.83199 188.86 8.47199 188.86 12.072C188.86 15.672 191.5 18.312 195.244 18.312ZM195.244 15.648C193.156 15.648 191.74 14.16 191.74 12.072C191.74 9.98399 193.156 8.49599 195.244 8.49599C197.332 8.49599 198.724 9.98399 198.724 12.072C198.724 14.16 197.332 15.648 195.244 15.648ZM209.352 18.312C212.856 18.312 215.208 16.272 215.208 12.312V6.14399H212.352V12.312C212.352 14.568 211.152 15.648 209.352 15.648C207.552 15.648 206.352 14.568 206.352 12.312V6.14399H203.496V12.312C203.496 16.296 205.848 18.312 209.352 18.312ZM217.559 18H220.415V11.112C220.415 9.19199 221.375 8.49599 222.767 8.49599C224.159 8.49599 225.119 9.19199 225.119 11.112V11.232H227.951V11.16C227.951 7.53599 225.863 5.83199 222.767 5.83199C219.671 5.83199 217.559 7.53599 217.559 11.112V18ZM233.931 18.312C236.955 18.312 238.899 16.728 238.899 14.328C238.899 11.376 235.995 11.064 234.411 10.848C233.139 10.68 232.059 10.536 232.059 9.62399C232.059 8.92799 232.683 8.32799 233.931 8.32799C235.059 8.32799 235.731 8.83199 235.803 9.55199H238.635C238.563 7.46399 236.787 5.83199 233.883 5.83199C231.027 5.83199 229.179 7.41599 229.179 9.83999C229.179 12.744 231.867 13.056 233.691 13.296C234.963 13.464 236.019 13.584 236.019 14.496C236.019 15.216 235.395 15.816 233.931 15.816C232.539 15.816 231.843 15.288 231.819 14.496H228.939C229.011 16.704 230.907 18.312 233.931 18.312ZM241.649 13.08H244.097L244.481 2.30399H241.265L241.649 13.08ZM242.873 18.312C243.953 18.312 244.769 17.496 244.769 16.416C244.769 15.336 243.953 14.52 242.873 14.52C241.793 14.52 240.977 15.336 240.977 16.416C240.977 17.496 241.793 18.312 242.873 18.312Z" fill="white"/>
</g>
<defs>
<clipPath id="clip0_2980_80849">
<rect width="245" height="24" fill="white"/>
</clipPath>
</defs>
</svg>
