<svg width="211" height="47" viewBox="0 0 211 47" fill="none" xmlns="http://www.w3.org/2000/svg">
<path d="M0.781006 23.451C0.781006 20.1795 1.3125 17.2241 2.37297 14.5799C3.43595 11.9381 4.90758 9.67512 6.78534 7.79352C8.66561 5.91192 10.9244 4.45431 13.5669 3.41817C16.2093 2.38455 19.1375 1.86523 22.3515 1.86523C25.5103 1.86523 28.426 2.39709 31.0935 3.46082C33.761 4.52456 36.0624 5.99471 37.9979 7.87631C39.9308 9.75541 41.43 12.0058 42.493 14.6225C43.5559 17.2392 44.0849 20.0741 44.0849 23.1273C44.0849 26.725 43.4983 29.8459 42.3275 32.4902C41.1567 35.1345 39.6324 37.3422 37.7522 39.1134C35.8719 40.8846 33.7334 42.2068 31.3392 43.0773C28.9425 43.9504 26.5457 44.3869 24.149 44.3869C21.098 44.3869 18.4155 43.7848 16.1015 42.5881C13.785 41.3889 11.9749 39.7532 10.6687 37.6834H10.5058V44.3869H0.781006V23.451ZM22.3515 10.9421C18.7564 10.9421 15.8834 12.0736 13.7323 14.3365C11.5788 16.5994 10.5058 19.5297 10.5058 23.1273C10.5058 26.725 11.5813 29.6552 13.7323 31.9182C15.8834 34.1811 18.7564 35.3126 22.3515 35.3126C25.9466 35.3126 28.8347 34.1811 31.0133 31.9182C33.1919 29.6577 34.2824 26.725 34.2824 23.1273C34.2824 19.5297 33.1919 16.5994 31.0133 14.3365C28.8347 12.0736 25.9466 10.9421 22.3515 10.9421Z" fill="white"/>
<path d="M124.733 43.3207V20.2623C124.733 16.9908 123.956 14.62 122.404 13.1473C120.853 11.6747 118.905 10.9396 116.563 10.9396C114.166 10.9396 112.203 11.6621 110.682 13.1072C109.155 14.5523 108.393 16.9381 108.393 20.2623V43.3207H98.6704V20.2623C98.6704 17.1012 99.1066 14.3616 99.9766 12.0435C100.847 9.72781 102.032 7.81861 103.532 6.32086C105.028 4.8231 106.813 3.70418 108.884 2.9691C110.955 2.23402 113.186 1.86523 115.585 1.86523C118.636 1.86523 121.346 2.47737 123.716 3.70418C126.085 4.93098 128.005 6.68965 129.477 8.97768H129.64C131.056 6.68714 132.949 4.93098 135.318 3.70418C137.682 2.47737 140.42 1.86523 143.526 1.86523C145.923 1.86523 148.157 2.23402 150.227 2.9691C152.296 3.70418 154.081 4.8231 155.58 6.32086C157.077 7.82112 158.263 9.72781 159.135 12.0435C160.005 14.3616 160.441 17.1012 160.441 20.2623V43.3207H150.719V20.2623C150.719 16.9381 149.954 14.5523 148.43 13.1072C146.906 11.6646 144.943 10.9396 142.548 10.9396C140.204 10.9396 138.271 11.6747 136.747 13.1473C135.223 14.62 134.461 16.9908 134.461 20.2623V43.3207H124.733Z" fill="white"/>
<path d="M177.024 26.5594V26.7224C177.678 29.4495 178.997 31.6021 180.987 33.1826C182.975 34.7632 185.495 35.5534 188.546 35.5534C192.903 35.5534 196.09 34.2739 198.105 31.7099H208.482C206.958 35.581 204.451 38.6593 200.966 40.9499C197.479 43.2379 193.34 44.3844 188.546 44.3844C185.332 44.3844 182.404 43.8525 179.761 42.7913C177.119 41.7276 174.83 40.2549 172.897 38.3758C170.964 36.4942 169.465 34.2463 168.402 31.6297C167.339 29.013 166.81 26.1805 166.81 23.1248C166.81 20.0716 167.342 17.2367 168.402 14.62C169.465 12.0033 170.962 9.75541 172.897 7.8738C174.83 5.9922 177.119 4.52205 179.761 3.45831C182.401 2.39709 185.33 1.86523 188.544 1.86523C191.702 1.86523 194.616 2.39709 197.286 3.46082C199.953 4.52456 202.229 5.99471 204.11 7.87631C205.987 9.7554 207.459 12.0058 208.522 14.6225C209.585 17.2392 210.114 20.0741 210.114 23.1273V26.5619H177.024V26.5594ZM188.544 10.6962C185.655 10.6962 183.246 11.4062 181.311 12.8212C179.378 14.2387 178.029 16.1729 177.267 18.6265V18.7896H199.818V18.6265C199.053 16.1729 197.692 14.2387 195.731 12.8212C193.773 11.4062 191.377 10.6962 188.544 10.6962Z" fill="white"/>
<path d="M91.2513 26.7619C90.5318 24.3033 90.5318 21.6891 91.2513 19.2305C94.2272 9.06482 84.7957 -0.37078 74.6398 2.60465C72.1829 3.32468 69.5706 3.32468 67.1137 2.60465C56.9577 -0.373289 47.5262 9.06482 50.5021 19.228C51.2216 21.6866 51.2216 24.3008 50.5021 26.7594C47.5262 36.9225 56.9577 46.3607 67.1137 43.3827C69.5706 42.6627 72.1829 42.6627 74.6398 43.3827C84.7957 46.3607 94.2272 36.925 91.2513 26.7619ZM82.6021 25.1613C84.3144 31.0093 78.8867 36.4409 73.0428 34.7273C71.6288 34.3134 70.1246 34.3134 68.7106 34.7273C62.8668 36.4409 57.439 31.0093 59.1513 25.1613C59.565 23.7463 59.565 22.241 59.1513 20.8261C57.439 14.9781 62.8668 9.54651 68.7106 11.26C70.1246 11.674 71.6288 11.674 73.0428 11.26C78.8867 9.54651 84.3144 14.9781 82.6021 20.8261C82.1884 22.2435 82.1884 23.7463 82.6021 25.1613Z" fill="white"/>
</svg>
