<svg width="20" height="20" viewBox="0 0 20 20" fill="none" xmlns="http://www.w3.org/2000/svg">
<path fill-rule="evenodd" clip-rule="evenodd" d="M9.99998 15.9926C9.86866 15.9926 9.73863 15.9667 9.6173 15.9165C9.49597 15.8662 9.38573 15.7926 9.29288 15.6997C9.20002 15.6068 9.12636 15.4966 9.0761 15.3753C9.02585 15.2539 8.99998 15.1239 8.99998 14.9926C8.99998 14.8613 9.02585 14.7312 9.0761 14.6099C9.12636 14.4886 9.20002 14.3783 9.29288 14.2855C9.38573 14.1926 9.49597 14.119 9.6173 14.0687C9.73863 14.0185 9.86866 13.9926 9.99998 13.9926C10.2652 13.9926 10.5196 14.0979 10.7071 14.2855C10.8946 14.473 11 14.7274 11 14.9926C11 15.2578 10.8946 15.5122 10.7071 15.6997C10.5196 15.8872 10.2652 15.9926 9.99998 15.9926ZM9.16665 7.67342C9.16665 7.45241 9.25445 7.24045 9.41073 7.08417C9.56701 6.92789 9.77897 6.84009 9.99998 6.84009C10.221 6.84009 10.433 6.92789 10.5892 7.08417C10.7455 7.24045 10.8333 7.45241 10.8333 7.67342V11.8401C10.8333 12.0611 10.7455 12.2731 10.5892 12.4293C10.433 12.5856 10.221 12.6734 9.99998 12.6734C9.77897 12.6734 9.56701 12.5856 9.41073 12.4293C9.25445 12.2731 9.16665 12.0611 9.16665 11.8401V7.67342ZM19.095 15.6793L11.7325 2.92676C10.9625 1.59342 9.03748 1.59342 8.26748 2.92676L0.904983 15.6793C0.135816 17.0126 1.09665 18.6793 2.63748 18.6793H17.3625C18.9025 18.6793 19.8641 17.0126 19.095 15.6793Z" fill="#AAAFB3"/>
</svg>
