<svg width="150" height="150" viewBox="0 0 150 150" fill="none" xmlns="http://www.w3.org/2000/svg">
<circle cx="75" cy="75" r="75" fill="#EBEEEF"/>
<path d="M89.4565 87.6367C89.4565 93.9155 83.2271 99.0078 75.5146 99.0078C67.802 99.0078 61.5726 93.9155 61.5726 87.6367" stroke="#CFD3D6" stroke-width="3.97059" stroke-miterlimit="10" stroke-linecap="round"/>
<path d="M52.7732 73.5465C56.514 73.5465 59.5465 70.514 59.5465 66.7732C59.5465 63.0325 56.514 60 52.7732 60C49.0325 60 46 63.0325 46 66.7732C46 70.514 49.0325 73.5465 52.7732 73.5465Z" fill="#CFD3D6"/>
<path d="M98.7517 73.5465C102.493 73.5465 105.525 70.514 105.525 66.7732C105.525 63.0325 102.493 60 98.7517 60C95.011 60 91.9785 63.0325 91.9785 66.7732C91.9785 70.514 95.011 73.5465 98.7517 73.5465Z" fill="#CFD3D6"/>
<path opacity="0.3" d="M50.5477 66.1798C51.5852 66.1798 52.4264 65.3387 52.4264 64.3011C52.4264 63.2635 51.5852 62.4224 50.5477 62.4224C49.5101 62.4224 48.6689 63.2635 48.6689 64.3011C48.6689 65.3387 49.5101 66.1798 50.5477 66.1798Z" fill="#F8FAFB"/>
<path opacity="0.3" d="M96.4271 66.1798C97.4646 66.1798 98.3058 65.3387 98.3058 64.3011C98.3058 63.2635 97.4646 62.4224 96.4271 62.4224C95.3895 62.4224 94.5483 63.2635 94.5483 64.3011C94.5483 65.3387 95.3895 66.1798 96.4271 66.1798Z" fill="#F8FAFB"/>
</svg>
