<svg width="52" height="52" viewBox="0 0 52 52" fill="none" xmlns="http://www.w3.org/2000/svg">
<g clip-path="url(#clip0_3759_25753)">
<path d="M0.692352 21.3257C-3.00387 8.70985 8.70985 -3.00387 21.3257 0.692352C24.3783 1.586 27.6217 1.586 30.6743 0.692352C43.2902 -3.00218 55.0039 8.70985 51.3076 21.3257C50.414 24.3783 50.414 27.6217 51.3076 30.6743C55.0022 43.2902 43.2902 55.0039 30.6743 51.3076C27.6217 50.414 24.3783 50.414 21.3257 51.3076C8.70985 55.0022 -3.00387 43.2902 0.692352 30.6743C1.586 27.6217 1.586 24.3783 0.692352 21.3257Z" fill="#EBEEEF"/>
<path d="M34.1148 25.3182C35.4203 25.3182 36.4786 24.2599 36.4786 22.9544C36.4786 21.6489 35.4203 20.5906 34.1148 20.5906C32.8093 20.5906 31.751 21.6489 31.751 22.9544C31.751 24.2599 32.8093 25.3182 34.1148 25.3182Z" fill="#CFD3D6"/>
<path d="M18.0684 25.3182C19.3739 25.3182 20.4322 24.2599 20.4322 22.9544C20.4322 21.6489 19.3739 20.5906 18.0684 20.5906C16.7629 20.5906 15.7046 21.6489 15.7046 22.9544C15.7046 24.2599 16.7629 25.3182 18.0684 25.3182Z" fill="#CFD3D6"/>
<path opacity="0.3" d="M33.3036 22.7473C33.6657 22.7473 33.9593 22.4538 33.9593 22.0917C33.9593 21.7296 33.6657 21.436 33.3036 21.436C32.9415 21.436 32.6479 21.7296 32.6479 22.0917C32.6479 22.4538 32.9415 22.7473 33.3036 22.7473Z" fill="#F8FAFB"/>
<path opacity="0.3" d="M17.2919 22.7473C17.654 22.7473 17.9475 22.4538 17.9475 22.0917C17.9475 21.7296 17.654 21.436 17.2919 21.436C16.9298 21.436 16.6362 21.7296 16.6362 22.0917C16.6362 22.4538 16.9298 22.7473 17.2919 22.7473Z" fill="#F8FAFB"/>
<path d="M30.8706 30.2355C30.8706 32.4268 28.6966 34.204 26.0049 34.204C23.3133 34.204 21.1393 32.4268 21.1393 30.2355" stroke="#CFD3D6" stroke-width="1.29044" stroke-miterlimit="10" stroke-linecap="round"/>
</g>
<defs>
<clipPath id="clip0_3759_25753">
<rect width="52" height="52" fill="white"/>
</clipPath>
</defs>
</svg>
