<svg width="14" height="14" viewBox="0 0 14 14" fill="none" xmlns="http://www.w3.org/2000/svg">
<path fill-rule="evenodd" clip-rule="evenodd" d="M2.14117 5.55867C2.14117 5.36926 2.21528 5.17985 2.35528 5.03161C2.49419 4.89332 2.68222 4.81567 2.87823 4.81567C3.07423 4.81567 3.26226 4.89332 3.40117 5.03161L6.58823 8.21867L9.76705 5.03161C9.90595 4.89332 10.094 4.81567 10.29 4.81567C10.486 4.81567 10.674 4.89332 10.8129 5.03161C10.9512 5.17052 11.0289 5.35854 11.0289 5.55455C11.0289 5.75056 10.9512 5.93859 10.8129 6.07749L7.10705 9.78338C6.96815 9.92167 6.78012 9.99932 6.58411 9.99932C6.3881 9.99932 6.20007 9.92167 6.06117 9.78338L2.35528 6.07749C2.21528 5.93749 2.14117 5.74808 2.14117 5.55867Z" fill="#AAAFB3"/>
</svg>
