<svg width="24" height="24" viewBox="0 0 24 24" fill="none" xmlns="http://www.w3.org/2000/svg">
<path fill-rule="evenodd" clip-rule="evenodd" d="M10.5 12.5C5.95735 12.5 2.06216 15.4645 1.07165 19.5702C0.660761 21.2733 2.0914 22.5 3.46871 22.5H17.5313C18.9086 22.5 20.3392 21.2733 19.9284 19.5702C18.9378 15.4645 15.0426 12.5 10.5 12.5Z" fill="#CFD3D6"/>
<path fill-rule="evenodd" clip-rule="evenodd" d="M15.4626 6.02684C15.4626 8.81705 13.2546 11.0537 10.5 11.0537C7.74541 11.0537 5.53735 8.81705 5.53735 6.02684C5.53735 3.23663 7.74541 1 10.5 1C13.2546 1 15.4626 3.23663 15.4626 6.02684ZM20.8979 8.08786H22.101C22.5962 8.08786 23 8.49731 23 8.99948C23 9.50165 22.5962 9.9111 22.101 9.9111H20.8979V11.0884C20.8979 11.5906 20.4952 12 19.999 12C19.5038 12 19.1 11.5906 19.1 11.0884V9.9111H17.899C17.4027 9.9111 17 9.50165 17 8.99948C17 8.49731 17.4027 8.08786 17.899 8.08786H19.1V6.91162C19.1 6.40945 19.5038 6 19.999 6C20.4952 6 20.8979 6.40945 20.8979 6.91162V8.08786Z" fill="#CFD3D6"/>
</svg>
