<svg width="24" height="24" viewBox="0 0 24 24" fill="none" xmlns="http://www.w3.org/2000/svg">
<path fill-rule="evenodd" clip-rule="evenodd" d="M10.5 12.5C5.95735 12.5 2.06216 15.4645 1.07165 19.5702C0.660761 21.2733 2.0914 22.5 3.46871 22.5H17.5313C18.9086 22.5 20.3392 21.2733 19.9284 19.5702C18.9378 15.4645 15.0426 12.5 10.5 12.5Z" fill="#AAAFB3"/>
<path fill-rule="evenodd" clip-rule="evenodd" d="M15.4624 6.02684C15.4624 8.81705 13.2543 11.0537 10.4997 11.0537C7.74517 11.0537 5.53711 8.81705 5.53711 6.02684C5.53711 3.23663 7.74517 1 10.4997 1C13.2543 1 15.4624 3.23663 15.4624 6.02684ZM20.8977 8.08786H22.1008C22.596 8.08786 22.9997 8.49731 22.9997 8.99948C22.9997 9.50165 22.596 9.9111 22.1008 9.9111H20.8977V11.0884C20.8977 11.5906 20.4949 12 19.9987 12C19.5035 12 19.0997 11.5906 19.0997 11.0884V9.9111H17.8987C17.4025 9.9111 16.9997 9.50165 16.9997 8.99948C16.9997 8.49731 17.4025 8.08786 17.8987 8.08786H19.0997V6.91162C19.0997 6.40945 19.5035 6 19.9987 6C20.4949 6 20.8977 6.40945 20.8977 6.91162V8.08786Z" fill="#AAAFB3"/>
</svg>
